<?xml version="1.0" encoding="utf-8"?>
<!-- Generator: Adobe Illustrator 16.0.0, SVG Export Plug-In . SVG Version: 6.00 Build 0)  -->
<!DOCTYPE svg PUBLIC "-//W3C//DTD SVG 1.1//EN" "http://www.w3.org/Graphics/SVG/1.1/DTD/svg11.dtd">
<svg version="1.1" id="Layer_1" xmlns="http://www.w3.org/2000/svg" xmlns:xlink="http://www.w3.org/1999/xlink" x="0px" y="0px"
	 width="1400px" height="980px" viewBox="0 0 1400 980" enable-background="new 0 0 1400 980" xml:space="preserve">
<g opacity="0.18">
	<path fill="#001E72" d="M1371.618,516.438l11.96-11.961l-25.477-5.729c2.123-3.976-2.688-8.785-6.663-6.662l-5.729-25.477
		l-36.096,36.095l5.672,25.222c-8.162,8.163-16.325,16.326-24.488,24.488c-25.25-23.886-59.327-38.537-96.829-38.537
		c-77.835,0-140.933,63.098-140.933,140.934c0,77.835,63.098,140.933,140.933,140.933c77.836,0,140.934-63.098,140.934-140.933
		c0-36.785-14.099-70.272-37.179-95.37c8.18-8.179,16.359-16.358,24.539-24.538l25.222,5.672l22.06-22.061L1371.618,516.438
		L1371.618,516.438z"/>
	<path fill="#001E72" d="M992.619,694.45c0,0-6.447-30.026-14.818-30.026s-14.82,30.026-14.82,30.026s-30.55-3.146-33.136,4.814
		c-2.587,7.962,23.979,23.374,23.979,23.374s-12.434,28.082-5.661,33.002s29.639-15.582,29.639-15.582s22.864,20.502,29.637,15.582
		c6.773-4.92-5.659-33.002-5.659-33.002s26.564-15.412,23.979-23.374C1023.169,691.304,992.619,694.45,992.619,694.45z"/>
	<circle fill="#001E72" cx="568.175" cy="470.711" r="94.373"/>
	<path fill="#001E72" d="M824.902,314h27.979h60.407c0,0,4.08-21.982-22.734-31.02c-26.816-9.034-37.892-10.845-36.434-24.836
		c1.457-13.99,14.974-12.854,16.906-45.499c1.632-27.689-23.063-31.483-30.96-31.991l-0.01-0.093c0,0-0.481-0.01-1.221,0.017
		c-0.741-0.026-1.221-0.022-1.221-0.022l-0.008,0.084c-7.915,0.507-32.704,4.277-31.069,31.974
		c1.93,32.646,15.448,31.48,16.905,45.47c1.458,13.99-9.617,15.862-36.432,24.897c-26.816,9.036-22.736,31.02-22.736,31.02H824.902z
		"/>
	<path fill="#001E72" d="M735,281.161v-0.375C735,260.111,718.686,243,698.013,243h-3.952c0.493-3,0.76-5.186,0.76-7.888
		c0-22.946-18.599-41.538-41.542-41.538c-10.192,0-19.522,3.679-26.753,9.771c-10.411-19.077-30.652-32.019-53.917-32.019
		c-33.902,0-61.387,27.486-61.387,61.389c0,3.671,0.614,7.258,1.23,10.75C494.488,246.262,481,262.051,481,280.786v0.375
		C481,301.834,497.212,319,517.884,319h27.479l19.045,25.282L583.454,319H629v26h38v-26h31.013C718.686,319,735,301.834,735,281.161
		z"/>
	<path fill="#001E72" d="M955.155,360h334.647L1349,408.177v-69.831v-16.138V191.914c0-12.104-9.815-21.914-21.919-21.914H955.155
		C943.052,170,933,179.81,933,191.914v146.433C933,350.45,943.052,360,955.155,360z"/>
	<path fill="#001E72" d="M985,553c-26,0-52,0-79,0c-6,0-6,10,0,10c0,0,53,0,79,0C992,563,992,553,985,553z"/>
	<path fill="#001E72" d="M985,579c-26,0-52,0-79,0c-6,0-6,10,0,10c0,0,53,0,79,0C992,589,992,579,985,579z"/>
	<path fill="#001E72" d="M985,604c-26,0-52,0-79,0c-6,0-6,10,0,10c0,0,53,0,79,0C992,614,992,604,985,604z"/>
	<path fill="#001E72" d="M1152.094,459.067c-11.56,11.561,6.448,29.433,18.037,17.845c9.072-9.072,18.145-18.146,27.217-27.22
		c2.999-2.998,3.996-6.419,3.645-9.643c0.036-2.931-1.052-5.965-3.74-8.654c-9.072-9.072-18.146-18.147-27.218-27.22
		c-11.56-11.563-29.433,6.447-17.844,18.035c1.93,1.93,3.859,3.86,5.789,5.79c-40.118,0-80.237,0-120.356,0
		c-16.381,0-16.525,25-0.182,25c40.239,0,80.479,0,120.721,0C1156.139,455.022,1154.116,457.045,1152.094,459.067z"/>
	<path fill="#001E72" d="M882.754,715h-2.703c-1.079-7-3.23-10.625-6.232-15.129l1.89-1.893c1.265-1.264,1.265-3.315,0-4.579
		l-7.681-7.686c-1.266-1.263-3.314-1.264-4.578,0.001l-1.998,2.008c-4.342-2.777-10.451-4.781-14.451-5.809v-3.787
		c0-1.787-1.469-2.127-3.257-2.127h-10.862c-1.788,0-3.881,0.34-3.881,2.127v4.02c-3,1.14-9.509,3.195-13.715,5.998l-2.813-2.972
		c-1.264-1.264-3.234-1.265-4.499,0l-7.64,7.68c-1.264,1.266-1.242,3.315,0.021,4.579l3.101,3.1
		c-2.777,4.342-4.771,10.469-5.799,14.469h-4.869c-1.789,0-3.787,1.433-3.787,3.221v10.863c0,1.787,1.998,4.916,3.787,4.916h5.104
		c1.08,4,2.989,8.496,5.574,12.534l-3.632,3.216c-1.265,1.264-1.265,3.105,0,4.368l7.681,7.575c1.264,1.264,3.314,1.215,4.578-0.05
		l3.193-3.542c4.206,2.801,10.715,4.832,13.715,5.973v4.02c0,1.787,2.093,4.906,3.881,4.906h10.862c1.788,0,3.257-3.119,3.257-4.906
		v-3.788c4-1.026,10.109-3.03,14.451-5.807l2.544,2.549c1.264,1.264,3.313,1.265,4.574,0l7.683-7.683
		c1.265-1.265,1.263-3.313-0.001-4.576l-2.433-1.592c2.804-4.206,4.858-9.197,5.998-13.197h2.938c1.789,0,4.246-3.129,4.246-4.916
		v-10.863C887,716.433,884.543,715,882.754,715z M838.854,749.117c-14.361,0-26.005-11.644-26.005-26.008
		c0-14.363,11.644-26.007,26.005-26.007c14.363,0,26.007,11.644,26.007,26.007C864.86,737.474,853.217,749.117,838.854,749.117z"/>
	<path fill="#001E72" d="M814.494,682.127c1.643,1.644,4.207,1.644,5.852,0l9.94-9.992c1.645-1.644,1.618-4.309-0.024-5.954
		l-9.758-9.636c3.418-5.328,5.929-11.545,7.346-17.545h13.323c2.323,0,4.827-2.102,4.827-4.426v-14.129
		c0-2.324-2.504-3.445-4.827-3.445h-13.025c-1.345-7-3.986-13.726-7.655-19.444l9.04-9.23c1.643-1.645,1.643-4.405,0-6.049
		l-9.992-10.04c-1.644-1.644-4.31-1.668-5.954-0.024l-8.48,8.874c-5.541-3.703-11.105-6.426-18.105-7.921v-13.321
		c0-2.324-2.696-3.844-5.021-3.844h-14.129c-2.325,0-3.851,1.52-3.851,3.844v13.024c-7,1.346-13.521,3.985-19.242,7.655l-9.131-9.04
		c-1.644-1.644-4.354-1.644-5.998,0l-10.012,9.991c-1.645,1.645-1.656,4.311-0.012,5.955l8.878,9.268
		c-3.96,5.929-6.798,11.303-8.21,20.303h-13.025c-2.324,0-3.248,1.121-3.248,3.445v14.129c0,2.324,0.924,4.426,3.248,4.426h13.322
		c1.494,6,4.206,12.863,7.908,18.404l-9.59,9.536c-1.644,1.644-1.644,4.284,0,5.927l9.992,9.978
		c1.643,1.644,4.309,1.637,5.953-0.007l9.924-9.747c5.721,3.668,12.242,6.307,19.242,7.651v13.024c0,2.324,1.525,4.233,3.851,4.233
		h14.129c2.324,0,5.021-1.909,5.021-4.233v-13.323c7-1.493,12.564-4.204,18.105-7.906L814.494,682.127z M774.21,660.629
		c-18.681,0-33.823-15.144-33.823-33.824c0-18.68,15.143-33.824,33.823-33.824s33.824,15.145,33.824,33.824
		C808.034,645.485,792.891,660.629,774.21,660.629z"/>
	<path fill="#001E72" d="M621.483,604h-89.466C511.571,604,495,620.523,495,640.967v89.466C495,750.877,511.571,766,532.017,766
		h89.466C641.93,766,658,750.877,658,730.433v-89.466C658,620.523,641.93,604,621.483,604z"/>
	<path fill="#001E72" d="M704.395,456.522c-0.157,1.981,0.5,4.067,2.333,5.9c12.847,12.848,25.69,25.693,38.534,38.54
		c7.298,7.297,18.604-4.011,11.309-11.307c-11.046-11.047-22.091-22.092-33.136-33.138c11.045-11.045,22.09-22.091,33.136-33.137
		c7.297-7.295-4.011-18.604-11.309-11.306c-12.844,12.846-25.688,25.691-38.534,38.537
		C704.891,452.448,704.234,454.538,704.395,456.522z"/>
	<path fill="#001E72" d="M931.901,500.962c12.844-12.847,25.688-25.691,38.533-38.537c1.835-1.835,2.492-3.923,2.334-5.906
		c0.158-1.982-0.499-4.071-2.334-5.906c-12.845-12.848-25.689-25.693-38.533-38.539c-7.298-7.297-18.605,4.011-11.308,11.306
		c11.046,11.048,22.09,22.093,33.135,33.139c-11.045,11.044-22.089,22.091-33.135,33.136
		C913.296,496.951,924.604,508.259,931.901,500.962z"/>
	<circle fill="#001E72" cx="782.615" cy="498.084" r="7.995"/>
	<circle fill="#001E72" cx="808.599" cy="498.084" r="7.995"/>
	<circle fill="#001E72" cx="834.582" cy="498.084" r="7.995"/>
	<path fill="#001E72" d="M896.555,394.615c-14.641,38.745-29.282,77.495-43.923,116.242c-3.653,9.664,11.809,13.799,15.417,4.25
		c14.643-38.746,29.284-77.496,43.925-116.242C915.625,389.201,900.164,385.066,896.555,394.615z"/>
	<path fill="#001E72" d="M396.805,170H70.195C59.594,170,51,178.594,51,189.195v583.609C51,783.406,59.594,792,70.195,792h326.61
		c10.601,0,19.195-8.594,19.195-19.195V189.195C416,178.594,407.406,170,396.805,170z"/>
</g>
<g>
	<circle fill="#0E3C55" cx="1186.968" cy="643.811" r="140.933"/>
	<circle fill="#FFFFFF" cx="1186.968" cy="643.811" r="111.337"/>
	<circle fill="#5097CD" cx="1186.968" cy="643.811" r="83.15"/>
	<circle fill="#FFFFFF" cx="1186.968" cy="643.811" r="53.555"/>
	<circle fill="#EB4C49" cx="1186.968" cy="643.811" r="25.368"/>
	<g>
		<polygon fill="#FFAD01" points="1345.661,486.525 1309.566,522.621 1302.613,491.704 1338.709,455.609 		"/>
		<polygon fill="#FFAD01" points="1376.578,493.477 1340.483,529.574 1309.566,522.621 1345.661,486.525 		"/>
		<polygon fill="#FFFFFF" points="1316.786,477.534 1311.803,482.516 1316.786,509.423 1321.769,504.44 		"/>
		<polygon fill="#EB4C49" points="1364.619,505.438 1359.636,510.419 1332.729,505.438 1337.713,500.453 		"/>
		<g>
			<line fill="#0E3C55" x1="1188.231" y1="643.956" x2="1346.682" y2="485.505"/>
			<g>
				<path fill="#0E3C55" d="M1191.719,647.443c49.057-49.057,98.114-98.113,147.171-147.169c3.76-3.762,7.521-7.521,11.28-11.282
					c4.503-4.502-2.474-11.478-6.976-6.975c-49.057,49.057-98.113,98.113-147.17,147.169c-3.761,3.762-7.521,7.521-11.28,11.282
					C1180.24,644.971,1187.217,651.947,1191.719,647.443L1191.719,647.443z"/>
			</g>
		</g>
	</g>
</g>
<path fill="#FFAD01" d="M970.801,653.424c8.371,0,14.818,30.026,14.818,30.026s30.55-3.146,33.138,4.814
	c2.586,7.962-23.979,23.374-23.979,23.374s12.433,28.082,5.659,33.002c-6.772,4.92-29.637-15.582-29.637-15.582
	s-22.866,20.502-29.639,15.582s5.661-33.002,5.661-33.002s-26.565-15.412-23.979-23.374c2.586-7.961,33.136-4.814,33.136-4.814
	S962.43,653.424,970.801,653.424z"/>
<g>
	<circle fill="#5097CD" cx="561.175" cy="459.711" r="94.372"/>
	<circle fill="#0E3C55" cx="561.175" cy="459.711" r="78.911"/>
	<circle fill="#FFFFFF" cx="561.175" cy="459.711" r="69.846"/>
	<g>
		<path fill="#0E3C55" d="M599.327,413.119C588.915,404.515,577,399.346,561,399.346v60.215L599.327,413.119z"/>
	</g>
</g>
<path fill="#0E3C55" d="M883.555,271.98c-26.816-9.034-37.892-10.845-36.434-24.836c1.457-13.99,14.974-12.854,16.906-45.499
	c1.632-27.689-23.063-31.483-30.96-31.991l-0.01-0.093c0,0-0.481-0.01-1.221,0.017c-0.741-0.026-1.221-0.022-1.221-0.022
	l-0.008,0.084c-7.915,0.507-32.704,4.277-31.069,31.974c1.93,32.646,15.448,31.48,16.905,45.47
	c1.458,13.99-9.617,15.862-36.432,24.897c-26.816,9.036-22.736,31.02-22.736,31.02h60.626h27.979h60.407
	C906.289,303,910.369,281.018,883.555,271.98z"/>
<g>
	<path fill="#5097CD" d="M691.013,232h-3.952c0.493-3,0.76-5.186,0.76-7.888c0-22.946-18.599-41.538-41.542-41.538
		c-10.192,0-19.522,3.679-26.753,9.771c-10.411-19.077-30.652-32.019-53.917-32.019c-33.902,0-61.387,27.486-61.387,61.389
		c0,3.671,0.614,7.258,1.23,10.75C487.488,235.262,474,251.051,474,269.786v0.375C474,290.834,490.212,308,510.884,308h180.129
		C711.686,308,728,290.834,728,270.161v-0.375C728,249.111,711.686,232,691.013,232z"/>
	<polygon fill="#0E3C55" points="640.661,227.717 602.03,279 622,279 622,334 660,334 660,279 679.295,279 	"/>
	<polygon fill="#0E3C55" points="557.408,333.282 596.041,282 577,282 577,228 537,228 537,282 518.776,282 	"/>
</g>
<g>
	<path fill="#0E3C55" d="M1320.081,159H948.155C936.052,159,926,168.81,926,180.914v146.433C926,339.45,936.052,349,948.155,349
		h334.647L1342,397.177v-69.831v-16.138V180.914C1342,168.81,1332.185,159,1320.081,159z"/>
	<path fill="#5097CD" d="M1107,198.114c0,3.251-2.635,5.886-5.886,5.886H968.886c-3.251,0-5.886-2.635-5.886-5.886v-1.228
		c0-3.251,2.635-5.886,5.886-5.886h132.229c3.251,0,5.886,2.635,5.886,5.886V198.114z"/>
	<path fill="#5097CD" d="M1299,227.114c0,3.251-2.635,5.886-5.886,5.886h-132.229c-3.251,0-5.886-2.635-5.886-5.886v-1.228
		c0-3.251,2.635-5.886,5.886-5.886h132.229c3.251,0,5.886,2.635,5.886,5.886V227.114z"/>
	<path fill="#EB4C49" d="M1263,198.114c0,3.251-2.636,5.886-5.887,5.886h-132.227c-3.251,0-5.887-2.635-5.887-5.886v-1.228
		c0-3.251,2.636-5.886,5.887-5.886h132.227c3.251,0,5.887,2.635,5.887,5.886V198.114z"/>
	<path fill="#5097CD" d="M1143,227.114c0,3.251-2.635,5.886-5.886,5.886H968.886c-3.251,0-5.886-2.635-5.886-5.886v-1.228
		c0-3.251,2.635-5.886,5.886-5.886h168.229c3.251,0,5.886,2.635,5.886,5.886V227.114z"/>
	<path fill="#EB4C49" d="M1107,255.114c0,3.251-2.635,5.886-5.886,5.886H968.886c-3.251,0-5.886-2.635-5.886-5.886v-1.228
		c0-3.251,2.635-5.886,5.886-5.886h132.229c3.251,0,5.886,2.635,5.886,5.886V255.114z"/>
	<path fill="#5097CD" d="M1298,255.114c0,3.251-2.635,5.886-5.886,5.886h-168.229c-3.251,0-5.886-2.635-5.886-5.886v-1.228
		c0-3.251,2.635-5.886,5.886-5.886h168.229c3.251,0,5.886,2.635,5.886,5.886V255.114z"/>
	<path fill="#EB4C49" d="M1299,283.113c0,3.251-2.635,5.887-5.886,5.887h-132.229c-3.251,0-5.886-2.636-5.886-5.887v-1.227
		c0-3.251,2.635-5.887,5.886-5.887h132.229c3.251,0,5.886,2.636,5.886,5.887V283.113z"/>
	<path fill="#5097CD" d="M1143,283.113c0,3.251-2.635,5.887-5.886,5.887H968.886c-3.251,0-5.886-2.636-5.886-5.887v-1.227
		c0-3.251,2.635-5.887,5.886-5.887h168.229c3.251,0,5.886,2.636,5.886,5.887V283.113z"/>
	<path fill="#5097CD" d="M1107,311.114c0,3.251-2.635,5.886-5.886,5.886H968.886c-3.251,0-5.886-2.635-5.886-5.886v-1.228
		c0-3.251,2.635-5.886,5.886-5.886h132.229c3.251,0,5.886,2.635,5.886,5.886V311.114z"/>
	<path fill="#5097CD" d="M1298,311.114c0,3.251-2.635,5.886-5.886,5.886h-168.229c-3.251,0-5.886-2.635-5.886-5.886v-1.228
		c0-3.251,2.635-5.886,5.886-5.886h168.229c3.251,0,5.886,2.635,5.886,5.886V311.114z"/>
	<rect x="1028" y="183" fill="#0E3C55" width="18" height="27"/>
	<rect x="997" y="241" fill="#0E3C55" width="18" height="27"/>
	<rect x="1179" y="241" fill="#0E3C55" width="18" height="27"/>
	<rect x="1239" y="213" fill="#0E3C55" width="18" height="26"/>
	<rect x="1198" y="184" fill="#0E3C55" width="19" height="27"/>
	<rect x="1073" y="269" fill="#0E3C55" width="18" height="27"/>
	<rect x="1212" y="297" fill="#0E3C55" width="19" height="27"/>
</g>
<g>
	<g>
		<path fill="#0E3C55" d="M899,552c0,0,53,0,79,0c7,0,7-10,0-10c-26,0-52,0-79,0C893,542,893,552,899,552C899,552,893,552,899,552z"
			/>
	</g>
	<g>
		<path fill="#0E3C55" d="M899,578c0,0,53,0,79,0c7,0,7-10,0-10c-26,0-52,0-79,0C893,568,893,578,899,578C899,578,893,578,899,578z"
			/>
	</g>
	<g>
		<path fill="#0E3C55" d="M899,603c0,0,53,0,79,0c7,0,7-10,0-10c-26,0-52,0-79,0C893,593,893,603,899,603C899,603,893,603,899,603z"
			/>
	</g>
</g>
<g>
	<g>
		<path fill="#0E3C55" d="M1030.441,442c45.332,0,90.666,0,136,0c16.381,0,16.525-25,0.182-25c-45.332,0-90.666,0-136,0
			C1014.242,417,1014.098,442,1030.441,442L1030.441,442z"/>
	</g>
	<g>
		<g>
			<path fill="#0E3C55" d="M1163.131,465.912c9.072-9.072,18.145-18.146,27.217-27.22c11.562-11.56-6.446-29.432-18.034-17.842
				c-9.074,9.072-18.146,18.145-27.22,27.218C1133.534,459.628,1151.542,477.5,1163.131,465.912L1163.131,465.912z"/>
		</g>
		<g>
			<path fill="#0E3C55" d="M1145.19,411.21c9.072,9.075,18.146,18.148,27.219,27.223c11.559,11.561,29.431-6.447,17.843-18.038
				c-9.072-9.072-18.146-18.147-27.218-27.22C1151.475,381.612,1133.602,399.622,1145.19,411.21L1145.19,411.21z"/>
		</g>
	</g>
</g>
<g>
	<g>
		<path fill="#5097CD" d="M875.754,704h-2.703c-1.079-7-3.23-10.625-6.232-15.129l1.89-1.893c1.265-1.264,1.265-3.315,0-4.579
			l-7.681-7.686c-1.266-1.263-3.314-1.264-4.578,0.001l-1.998,2.008c-4.342-2.777-10.451-4.781-14.451-5.809v-3.787
			c0-1.787-1.469-2.127-3.257-2.127h-10.862c-1.788,0-3.881,0.34-3.881,2.127v4.02c-3,1.14-9.509,3.195-13.715,5.998l-2.813-2.972
			c-1.264-1.264-3.234-1.265-4.499,0l-7.64,7.68c-1.264,1.266-1.242,3.315,0.021,4.579l3.101,3.1
			c-2.777,4.342-4.771,10.469-5.799,14.469h-4.869c-1.789,0-3.787,1.433-3.787,3.221v10.863c0,1.787,1.998,4.916,3.787,4.916h5.104
			c1.08,4,2.989,8.496,5.574,12.534l-3.632,3.216c-1.265,1.264-1.265,3.105,0,4.368l7.681,7.575c1.264,1.264,3.314,1.215,4.578-0.05
			l3.193-3.542c4.206,2.801,10.715,4.832,13.715,5.973v4.02c0,1.787,2.093,4.906,3.881,4.906h10.862
			c1.788,0,3.257-3.119,3.257-4.906v-3.788c4-1.026,10.109-3.03,14.451-5.807l2.544,2.549c1.264,1.264,3.313,1.265,4.574,0
			l7.683-7.683c1.265-1.265,1.263-3.313-0.001-4.576l-2.433-1.592c2.804-4.206,4.858-9.197,5.998-13.197h2.938
			c1.789,0,4.246-3.129,4.246-4.916v-10.863C880,705.433,877.543,704,875.754,704z M831.854,738.117
			c-14.361,0-26.005-11.644-26.005-26.008c0-14.363,11.644-26.007,26.005-26.007c14.363,0,26.007,11.644,26.007,26.007
			C857.86,726.474,846.217,738.117,831.854,738.117z"/>
	</g>
	<g>
		<path fill="#0E3C55" d="M834.173,606h-13.025c-1.345-7-3.986-13.726-7.655-19.444l9.04-9.23c1.643-1.645,1.643-4.405,0-6.049
			l-9.992-10.04c-1.644-1.644-4.31-1.668-5.954-0.024l-8.48,8.874c-5.541-3.703-11.105-6.426-18.105-7.921v-13.321
			c0-2.324-2.696-3.844-5.021-3.844h-14.129c-2.325,0-3.851,1.52-3.851,3.844v13.024c-7,1.346-13.521,3.985-19.242,7.655
			l-9.131-9.04c-1.644-1.644-4.354-1.644-5.998,0l-10.012,9.991c-1.645,1.645-1.656,4.311-0.012,5.955l8.878,9.268
			c-3.96,5.929-6.798,11.303-8.21,20.303h-13.026c-2.323,0-3.248,1.121-3.248,3.445v14.129c0,2.324,0.924,4.426,3.248,4.426h13.323
			c1.494,6,4.206,12.863,7.908,18.404l-9.59,9.536c-1.644,1.644-1.644,4.284,0,5.927l9.992,9.978
			c1.643,1.644,4.309,1.637,5.953-0.007l9.924-9.747c5.721,3.668,12.242,6.307,19.242,7.651v13.024c0,2.324,1.525,4.233,3.851,4.233
			h14.129c2.324,0,5.021-1.909,5.021-4.233v-13.323c7-1.493,12.564-4.204,18.105-7.906l9.389,9.59c1.643,1.644,4.207,1.644,5.852,0
			l9.94-9.992c1.645-1.644,1.618-4.309-0.024-5.954l-9.758-9.636c3.418-5.328,5.929-11.545,7.346-17.545h13.323
			c2.323,0,4.827-2.102,4.827-4.426v-14.129C839,607.121,836.496,606,834.173,606z M767.21,649.629
			c-18.681,0-33.823-15.144-33.823-33.824c0-18.68,15.143-33.824,33.823-33.824s33.824,15.145,33.824,33.824
			C801.034,634.485,785.891,649.629,767.21,649.629z"/>
	</g>
</g>
<g>
	<path fill="#0E3C55" d="M651,719.433C651,739.877,634.93,755,614.483,755h-89.466C504.571,755,488,739.877,488,719.433v-89.466
		C488,609.523,504.571,593,525.017,593h89.466C634.93,593,651,609.523,651,629.967V719.433z"/>
	<g>
		<g>
			<g>
				<path fill="#5097CD" d="M609,719c0,0,0-51,0-77c0-8-13-8-13,0c0,26,0,51,0,77C596,727,609,727,609,719C609,719,609,727,609,719z
					"/>
			</g>
			<g>
				<g>
					<path fill="#5097CD" d="M633.854,651.32c-8.667-8.663-17.329-17.326-25.992-25.992c-5.841-5.839-14.89,3.21-9.051,9.05
						c8.666,8.663,17.329,17.326,25.992,25.993C630.643,666.21,639.692,657.161,633.854,651.32L633.854,651.32z"/>
				</g>
				<g>
					<path fill="#5097CD" d="M581.521,660.371c8.667-8.667,17.333-17.33,25.999-25.993c5.839-5.84-3.208-14.889-9.05-9.05
						c-8.665,8.666-17.329,17.329-25.996,25.992C566.634,657.161,575.683,666.21,581.521,660.371L581.521,660.371z"/>
				</g>
			</g>
		</g>
		<g>
			<g>
				<path fill="#EB4C49" d="M529,631c0,0,0,51,0,76c0,9,12,9,12,0c0-25,0-51,0-76C541,621,529,621,529,631C529,631,529,621,529,631z
					"/>
			</g>
			<g>
				<g>
					<path fill="#EB4C49" d="M505.294,697.726c8.665,8.663,17.33,17.326,25.993,25.992c5.842,5.839,14.89-3.21,9.051-9.05
						c-8.666-8.663-17.329-17.326-25.995-25.993C508.502,682.837,499.454,691.885,505.294,697.726L505.294,697.726z"/>
				</g>
				<g>
					<path fill="#EB4C49" d="M557.623,688.675c-8.663,8.667-17.33,17.33-25.996,25.993c-5.839,5.84,3.208,14.889,9.05,9.05
						c8.663-8.666,17.329-17.329,25.996-25.992C572.513,691.885,563.465,682.837,557.623,688.675L557.623,688.675z"/>
				</g>
			</g>
		</g>
	</g>
</g>
<g>
	<g>
		<g>
			<g>
				<path fill="#EB4C49" d="M738.262,401.075c-12.844,12.846-25.688,25.691-38.534,38.537c-7.297,7.297,4.011,18.604,11.308,11.306
					c12.845-12.845,25.689-25.691,38.535-38.537C756.867,405.085,745.56,393.777,738.262,401.075L738.262,401.075z"/>
			</g>
			<g>
				<path fill="#EB4C49" d="M749.57,478.655c-12.846-12.848-25.69-25.692-38.535-38.538c-7.297-7.298-18.602,4.009-11.308,11.305
					c12.847,12.848,25.69,25.693,38.534,38.54C745.56,497.259,756.866,485.951,749.57,478.655L749.57,478.655z"/>
			</g>
		</g>
	</g>
	<g>
		<g>
			<g>
				<path fill="#EB4C49" d="M924.901,489.962c12.844-12.847,25.688-25.691,38.533-38.537c7.298-7.297-4.011-18.605-11.308-11.305
					c-12.844,12.843-25.688,25.69-38.533,38.535C906.296,485.951,917.604,497.259,924.901,489.962L924.901,489.962z"/>
			</g>
			<g>
				<path fill="#EB4C49" d="M913.594,412.381c12.846,12.848,25.689,25.693,38.533,38.538c7.297,7.298,18.605-4.008,11.308-11.305
					c-12.845-12.848-25.689-25.693-38.533-38.539C917.604,393.777,906.296,405.085,913.594,412.381L913.594,412.381z"/>
			</g>
		</g>
	</g>
	<circle fill="#EB4C49" cx="775.615" cy="487.084" r="7.995"/>
	<circle fill="#EB4C49" cx="801.599" cy="487.084" r="7.995"/>
	<circle fill="#EB4C49" cx="827.582" cy="487.084" r="7.995"/>
	<g>
		<path fill="#EB4C49" d="M861.049,504.107c14.643-38.746,29.284-77.496,43.925-116.242c3.651-9.665-11.81-13.799-15.419-4.25
			c-14.641,38.745-29.282,77.495-43.923,116.242C841.979,509.521,857.44,513.656,861.049,504.107L861.049,504.107z"/>
	</g>
</g>
<g>
	<g>
		<path fill="#0E3C55" d="M409,761.805c0,10.602-8.594,19.195-19.195,19.195H63.195C52.594,781,44,772.406,44,761.805V178.195
			C44,167.594,52.594,159,63.195,159h326.61c10.601,0,19.195,8.594,19.195,19.195V761.805z"/>
		<rect x="65" y="210" fill="#5097CD" width="323" height="493"/>
		<g>
			<line fill="#5097CD" x1="167" y1="186" x2="274" y2="186"/>
			<g>
				<path fill="#5097CD" d="M167,193c0,0,70,0,107,0c7,0,7-11,0-11c-37,0-72,0-107,0C160,182,160,193,167,193
					C167,193,160,193,167,193z"/>
			</g>
		</g>
		<circle fill="#5097CD" cx="308.849" cy="186.592" r="7.598"/>
		<circle fill="#5097CD" cx="226.874" cy="741.229" r="19.194"/>
	</g>
	<g>
		<path fill="#FFFFFF" d="M169.677,453.438c30.434-10.254,43.004-12.239,41.35-28.116c-1.654-15.878-16.996-14.555-19.186-51.607
			c-1.856-31.434,26.278-35.714,35.261-36.289l0.009-0.097c0,0,0.544-0.006,1.386,0.023c0.838-0.03,1.385-0.023,1.385-0.023
			l0.011,0.097c8.963,0.576,36.991,4.864,35.139,36.291c-2.193,37.05-17.534,35.725-19.188,51.603
			c-1.654,15.879,10.916,17.865,41.35,28.118c16.639,5.608,22.788,15.562,24.952,23.435c19.395-20.837,31.277-48.76,31.277-79.473
			c0-64.45-52.247-116.695-116.695-116.695S110.031,332.95,110.031,397.4c0,32.155,13.008,61.268,34.043,82.375
			C145.483,471.612,150.913,459.762,169.677,453.438z"/>
		<path fill="#0E3C55" d="M226.727,514.096c33.737,0,64.112-14.334,85.418-37.223c-2.164-7.874-8.313-17.827-24.952-23.435
			c-30.435-10.253-43.004-12.239-41.35-28.118c1.654-15.878,16.995-14.553,19.188-51.603c1.853-31.427-26.175-35.715-35.139-36.291
			l-0.011-0.097c0,0-0.547-0.006-1.385,0.023c-0.842-0.03-1.386-0.023-1.386-0.023l-0.009,0.097
			c-8.983,0.575-37.117,4.855-35.261,36.289c2.189,37.052,17.531,35.729,19.186,51.607c1.654,15.877-10.916,17.862-41.35,28.116
			c-18.764,6.324-24.193,18.174-25.602,26.336C165.204,500.975,194.432,514.096,226.727,514.096z"/>
	</g>
	<path fill="#0E3C55" d="M310,532.319c0,3.689-2.991,6.681-6.681,6.681H153.681c-3.689,0-6.681-2.991-6.681-6.681v-0.639
		c0-3.689,2.991-6.681,6.681-6.681h149.639c3.689,0,6.681,2.991,6.681,6.681V532.319z"/>
	<path fill="#0E3C55" d="M310,556.32c0,3.689-2.991,6.68-6.681,6.68H153.681c-3.689,0-6.681-2.99-6.681-6.68v-0.641
		c0-3.689,2.991-6.68,6.681-6.68h149.639c3.689,0,6.681,2.99,6.681,6.68V556.32z"/>
	<circle fill="#FFFFFF" cx="273.261" cy="611.133" r="29.325"/>
	<circle fill="#FFFFFF" cx="180.488" cy="611.133" r="29.325"/>
	<g>
		<g>
			<path fill="#EB4C49" d="M260.818,602.949c6.787,6.787,13.572,13.572,20.359,20.359c2.919,2.919,7.444-1.604,4.523-4.523
				c-6.786-6.787-13.572-13.572-20.358-20.359C262.422,595.506,257.898,600.029,260.818,602.949L260.818,602.949z"/>
		</g>
		<g>
			<path fill="#EB4C49" d="M265.342,623.309c6.786-6.787,13.572-13.572,20.358-20.359c2.921-2.92-1.604-7.443-4.523-4.523
				c-6.787,6.787-13.572,13.572-20.359,20.359C257.898,621.704,262.422,626.228,265.342,623.309L265.342,623.309z"/>
		</g>
	</g>
	<g>
		<g>
			<path fill="#32BF6E" d="M181.263,626.539c5.538-7.839,11.077-15.677,16.615-23.516c2.387-3.378-3.165-6.57-5.524-3.23
				c-5.538,7.839-11.077,15.678-16.615,23.516C173.352,626.687,178.904,629.879,181.263,626.539L181.263,626.539z"/>
		</g>
		<g>
			<path fill="#32BF6E" d="M179.688,622.235c-3.919-2.77-7.838-5.538-11.758-8.306c-3.379-2.387-6.57,3.165-3.229,5.523
				c3.92,2.77,7.839,5.537,11.758,8.305C179.837,630.146,183.028,624.594,179.688,622.235L179.688,622.235z"/>
		</g>
	</g>
</g>
</svg>
