<?xml version="1.0" encoding="utf-8"?>
<!-- Generator: Adobe Illustrator 21.0.0, SVG Export Plug-In . SVG Version: 6.00 Build 0)  -->
<svg version="1.1" id="Layer_1" xmlns="http://www.w3.org/2000/svg" xmlns:xlink="http://www.w3.org/1999/xlink" x="0px" y="0px"
	 width="2800px" height="2000px" viewBox="0 0 2800 2000" style="enable-background:new 0 0 2800 2000;" xml:space="preserve">
<style type="text/css">
	.st0{fill:url(#SVGID_1_);}
	.st1{opacity:0.64;fill:#7498CF;}
	.st2{opacity:0.6;fill:#9188C1;}
	.st3{opacity:0.18;fill:#434D5B;}
	.st4{fill:#FFFFFF;}
	.st5{fill:url(#SVGID_2_);}
	.st6{fill:#F1E6EE;}
	.st7{fill:#D7BFD1;}
	.st8{fill:#DECBDA;}
	.st9{fill:#F7F2F6;}
	.st10{fill:#EFDAE8;}
	.st11{fill:#4C476D;}
	.st12{fill:#5B5380;}
	.st13{fill:#746E99;}
	.st14{fill:#433F5B;}
	.st15{fill:#EEECE8;}
	.st16{fill:#F6C1B0;}
	.st17{fill:url(#SVGID_3_);}
	.st18{fill:#C45329;}
	.st19{fill:#EC7955;}
	.st20{fill:#963820;}
	.st21{fill:#3C3A54;}
	.st22{fill:#E0A494;}
	.st23{fill:#F8DCD4;}
	.st24{fill:#F15D4F;}
	.st25{fill:#A63832;}
	.st26{font-family:'OpenSans-Bold';}
	.st27{font-size:186.25354px;}
	.st28{fill:none;stroke:#EFDAE8;stroke-width:11;stroke-linecap:round;stroke-linejoin:round;stroke-miterlimit:10;}
	.st29{font-family:'OpenSans-Semibold';}
	.st30{font-size:68.06246px;}
</style>
<linearGradient id="SVGID_1_" gradientUnits="userSpaceOnUse" x1="2733.60156" y1="-9.83697" x2="138.34196" y2="1955.3595">
	<stop  offset="0" style="stop-color:#6A58A5"/>
	<stop  offset="0.15797" style="stop-color:#6B5CA8"/>
	<stop  offset="0.37712" style="stop-color:#6D66AE"/>
	<stop  offset="0.63208" style="stop-color:#6F77B9"/>
	<stop  offset="0.91206" style="stop-color:#738FC9"/>
	<stop  offset="0.99559" style="stop-color:#7498CF"/>
</linearGradient>
<rect class="st0" width="2800" height="2000"/>
<path class="st1" d="M2800,862.82806c-126.92432-86.0448-280.07227-136.31622-444.96436-136.31622
	c-438.49463,0-793.9646,355.47009-793.9646,793.96448c0,180.15698,60.01416,346.29053,161.12646,479.52368H2800V862.82806z"/>
<path class="st2" d="M266.81445,54.22288C163.28748,54.22288,69.28857,95.00749,0,161.382v557.2074
	c69.28857,66.37457,163.28748,107.15912,266.81445,107.15912c213.05096,0,385.76282-172.71191,385.76282-385.76285
	S479.86542,54.22288,266.81445,54.22288z"/>
<rect x="379.6687" y="283.0368" class="st3" width="2116.74854" height="1511.96313"/>
<rect x="342.58282" y="245" class="st4" width="2116.74854" height="1511.96313"/>
<g>
	<linearGradient id="SVGID_2_" gradientUnits="userSpaceOnUse" x1="840.39673" y1="1452.20129" x2="840.39673" y2="717.19031">
		<stop  offset="0" style="stop-color:#EFDAE8"/>
		<stop  offset="0.40964" style="stop-color:#ECD4E3"/>
		<stop  offset="0.97679" style="stop-color:#E3C4D8"/>
		<stop  offset="0.99559" style="stop-color:#E2C3D8"/>
	</linearGradient>
	<path class="st5" d="M916.03229,732.85199H342.58282v844.35736h573.44946c233.16254,0,422.17828-189.01563,422.17828-422.17822
		v-0.00085C1338.21057,921.86761,1149.19482,732.85199,916.03229,732.85199z"/>
	<g>
		<rect x="563.77008" y="1061.44275" class="st6" width="52.29816" height="514.3219"/>
		<rect x="442.62057" y="1061.44275" class="st7" width="121.14951" height="514.3219"/>
		<polygon class="st8" points="442.62057,1061.44275 528.04883,972.23694 563.77008,1061.44275 		"/>
		<polygon class="st9" points="616.06824,1061.44275 528.04883,972.23694 563.77008,1061.44275 		"/>
		<rect x="454.90872" y="1084.12219" class="st10" width="19.1516" height="19.15153"/>
		<rect x="489.31039" y="1084.12219" class="st10" width="19.1516" height="19.15153"/>
		<rect x="574.70551" y="1078.89441" class="st9" width="9.5758" height="19.15153"/>
		<rect x="574.70551" y="1176.87122" class="st9" width="9.5758" height="19.15153"/>
		<rect x="593.85706" y="1176.87122" class="st9" width="9.5758" height="19.15153"/>
		<rect x="603.43286" y="1078.89441" class="st9" width="9.5758" height="19.15153"/>
		<rect x="498.8862" y="1239.75" class="st10" width="19.1516" height="19.15153"/>
		<rect x="533.2879" y="1239.75" class="st10" width="19.1516" height="19.15153"/>
		<rect x="457.5592" y="1176.87122" class="st10" width="19.1516" height="19.15153"/>
		<rect x="491.96091" y="1176.87122" class="st10" width="19.1516" height="19.15153"/>
		<rect x="493.84631" y="1126.29395" class="st10" width="19.1516" height="19.15153"/>
		<rect x="528.24805" y="1126.29395" class="st10" width="19.1516" height="19.15153"/>
	</g>
	<g>
		<path class="st6" d="M611.72253,1194.43799v382.77063H444.81537v-382.77063c0-11.82043,9.57996-21.40039,21.39413-21.40039
			h124.11893C602.14258,1173.0376,611.72253,1182.61755,611.72253,1194.43799z"/>
		<path class="st7" d="M538.52045,1194.43799v382.77063H371.61328v-382.77063c0-11.82043,9.57996-21.40039,21.39413-21.40039
			h124.11893C528.94049,1173.0376,538.52045,1182.61755,538.52045,1194.43799z"/>
		<g>
			<rect x="393.57166" y="1212.18445" class="st10" width="24.82382" height="24.82379"/>
			<rect x="442.65552" y="1212.18445" class="st10" width="24.82382" height="24.82379"/>
			<rect x="491.73935" y="1212.18445" class="st10" width="24.82382" height="24.82379"/>
		</g>
		<rect x="393.57166" y="1273.40247" class="st10" width="24.82382" height="24.82379"/>
		<rect x="491.73935" y="1273.40247" class="st10" width="24.82382" height="24.82379"/>
		<rect x="553.89966" y="1209.32019" class="st9" width="18.17031" height="24.82379"/>
		<rect x="553.89966" y="1518.27441" class="st9" width="18.17031" height="24.82379"/>
		<rect x="553.89966" y="1395.81006" class="st9" width="18.17031" height="24.82379"/>
		<g>
			<rect x="442.65552" y="1334.62048" class="st10" width="24.82382" height="24.82379"/>
			<rect x="491.73935" y="1334.62048" class="st10" width="24.82382" height="24.82379"/>
		</g>
		<g>
			<rect x="393.57166" y="1395.83838" class="st10" width="24.82382" height="24.82379"/>
			<rect x="442.65552" y="1395.83838" class="st10" width="24.82382" height="24.82379"/>
			<rect x="491.73935" y="1395.83838" class="st10" width="24.82382" height="24.82379"/>
		</g>
		<g>
			<rect x="393.57166" y="1457.0564" class="st10" width="24.82382" height="24.82379"/>
			<rect x="491.73935" y="1457.0564" class="st10" width="24.82382" height="24.82379"/>
		</g>
		<g>
			<rect x="393.57166" y="1518.27441" class="st10" width="24.82382" height="24.82379"/>
			<rect x="442.65552" y="1518.27441" class="st10" width="24.82382" height="24.82379"/>
			<rect x="491.73935" y="1518.27441" class="st10" width="24.82382" height="24.82379"/>
		</g>
	</g>
	<g>
		<path class="st6" d="M982.83118,1215.15393v356.71741c-10.59125,1.70105-21.3111,3.00122-32.15186,3.89331
			c-11.58923,0.96021-23.31451,1.44397-35.15314,1.44397H815.9256v-362.05469c0-11.82361,9.57825-21.40186,21.39423-21.40186
			h124.11707C973.25293,1193.75208,982.83118,1203.33032,982.83118,1215.15393z"/>
		<path class="st7" d="M909.62952,1215.15393v362.05469H742.72388v-362.05469c0-11.82361,9.57825-21.40186,21.39429-21.40186
			h124.11707C900.05121,1193.75208,909.62952,1203.33032,909.62952,1215.15393z"/>
		<g>
			<rect x="764.68243" y="1232.89978" class="st10" width="24.82382" height="24.82379"/>
			<rect x="813.7663" y="1232.89978" class="st10" width="24.82382" height="24.82379"/>
			<rect x="862.85016" y="1232.89978" class="st10" width="24.82382" height="24.82379"/>
		</g>
		<rect x="764.68243" y="1294.1178" class="st10" width="24.82382" height="24.82379"/>
		<rect x="862.85016" y="1294.1178" class="st10" width="24.82382" height="24.82379"/>
		<rect x="925.0105" y="1230.03552" class="st9" width="18.17031" height="24.82379"/>
		<rect x="925.0105" y="1538.98975" class="st9" width="18.17031" height="24.82379"/>
		<rect x="925.0105" y="1416.52539" class="st9" width="18.17031" height="24.82379"/>
		<g>
			<rect x="813.7663" y="1355.33582" class="st10" width="24.82382" height="24.82379"/>
			<rect x="862.85016" y="1355.33582" class="st10" width="24.82382" height="24.82379"/>
		</g>
		<g>
			<rect x="764.68243" y="1416.55383" class="st10" width="24.82382" height="24.82379"/>
			<rect x="813.7663" y="1416.55383" class="st10" width="24.82382" height="24.82379"/>
			<rect x="862.85016" y="1416.55383" class="st10" width="24.82382" height="24.82379"/>
		</g>
		<g>
			<rect x="764.68243" y="1477.77173" class="st10" width="24.82382" height="24.82379"/>
			<rect x="862.85016" y="1477.77173" class="st10" width="24.82382" height="24.82379"/>
		</g>
		<g>
			<rect x="764.68243" y="1538.98975" class="st10" width="24.82382" height="24.82379"/>
			<rect x="813.7663" y="1538.98975" class="st10" width="24.82382" height="24.82379"/>
			<rect x="862.85016" y="1538.98975" class="st10" width="24.82382" height="24.82379"/>
		</g>
	</g>
	<g>
		<path class="st7" d="M1129.59753,1140.35706v378.91321c-53.13049,31.23706-113.69971,51.16467-178.41174,56.49438v-435.40759
			H1129.59753z"/>
		<path class="st6" d="M1209.69373,1140.35706v317.96582c-24.10071,23.35229-50.9834,43.84692-80.09619,60.94739v-378.91321
			H1209.69373z"/>
		<rect x="976.47559" y="1177.25049" class="st10" width="28.34714" height="28.34714"/>
		<rect x="1071.16333" y="1363.14075" class="st10" width="28.34714" height="28.34714"/>
		<rect x="1035.44214" y="1177.25049" class="st10" width="28.34714" height="28.34714"/>
		<rect x="976.47559" y="1436.55212" class="st10" width="28.34714" height="28.34714"/>
		<rect x="1035.44214" y="1436.55212" class="st10" width="28.34714" height="28.34714"/>
		<rect x="1141.29846" y="1177.25049" class="st10" width="21.0204" height="28.34714"/>
		<rect x="1141.29846" y="1362.47571" class="st10" width="21.0204" height="28.34714"/>
		<rect x="1162.31885" y="1249.59338" class="st10" width="21.0204" height="28.34714"/>
		<rect x="982.39288" y="1315.64001" class="st10" width="28.34714" height="28.34714"/>
		<rect x="1026.37036" y="1251.32251" class="st10" width="28.34714" height="28.34714"/>
		<rect x="1085.33691" y="1251.32251" class="st10" width="28.34714" height="28.34714"/>
	</g>
	<g>
		<path class="st9" d="M1097.3241,1017.5152L1097.3241,1017.5152c0,10.7724,8.73279,19.50519,19.50513,19.50519h60.58911
			c10.77246,0,19.50525-8.73279,19.50525-19.50519l0,0c0-10.77246-8.73279-19.50519-19.50525-19.50519h-60.58911
			C1106.05688,998.01001,1097.3241,1006.74274,1097.3241,1017.5152z"/>
		<path class="st9" d="M1030.44458,992.2663L1030.44458,992.2663c0,10.7724,8.73267,19.50519,19.50513,19.50519h60.58911
			c10.77246,0,19.50513-8.73279,19.50513-19.50519l0,0c0-10.77246-8.73267-19.50519-19.50513-19.50519h-60.58911
			C1039.17725,972.76111,1030.44458,981.49384,1030.44458,992.2663z"/>
		<path class="st9" d="M1061.60291,965.96912v0.00006c0,10.7724,8.73279,19.50513,19.50513,19.50513h60.58911
			c10.77246,0,19.50525-8.73273,19.50525-19.50513v-0.00006c0-10.7724-8.73279-19.50519-19.50525-19.50519h-60.58911
			C1070.33569,946.46393,1061.60291,955.19672,1061.60291,965.96912z"/>
	</g>
	<g>
		<path class="st9" d="M386.1835,954.65717v0.00006c0,10.7724,8.73276,19.50513,19.50516,19.50513h60.58911
			c10.77243,0,19.50519-8.73273,19.50519-19.50513v-0.00006c0-10.7724-8.73276-19.50519-19.50519-19.50519h-60.58911
			C394.91626,935.15198,386.1835,943.88477,386.1835,954.65717z"/>
		<path class="st9" d="M422.28955,906.92938v0.00006c0,10.7724,8.73279,19.50519,19.50519,19.50519h60.58911
			c10.7724,0,19.50519-8.73279,19.50519-19.50519v-0.00006c0-10.7724-8.73279-19.50513-19.50519-19.50513h-60.58911
			C431.02234,887.42426,422.28955,896.15698,422.28955,906.92938z"/>
		<path class="st9" d="M462.33768,935.15198v0.00006c0,10.7724,8.73276,19.50513,19.50516,19.50513h60.58911
			c10.7724,0,19.50519-8.73273,19.50519-19.50513v-0.00006c0-10.7724-8.73279-19.50519-19.50519-19.50519h-60.58911
			C471.07043,915.64679,462.33768,924.37958,462.33768,935.15198z"/>
	</g>
</g>
<g>
	<g>
		<path class="st11" d="M562.21674,1497.07544c-6.46954,0-13.0318-1.521-19.16064-4.73071
			c-20.24445-10.60132-28.06195-35.60669-17.46057-55.85071l105.84027-202.11438
			c10.60138-20.24573,35.60675-28.06201,55.85162-17.46057c20.24445,10.60132,28.06189,35.60669,17.46051,55.85071
			l-105.84021,202.1145C591.51556,1489.00073,577.11755,1497.07544,562.21674,1497.07544z"/>
		<path class="st12" d="M562.29163,1497.07544c-2.91705,0-5.87793-0.30957-8.84473-0.95618
			c-22.32904-4.86255-36.48846-26.90576-31.62549-49.23486l21.11639-96.96326c4.86304-22.3291,26.90881-36.49146,49.23492-31.62549
			c22.3291,4.86267,36.4881,26.90588,31.62549,49.23499l-21.11639,96.96313
			C598.46533,1483.85571,581.32935,1497.07544,562.29163,1497.07544z"/>
		<path class="st11" d="M560.63934,1496.23303c-22.3291-4.86255-36.48853-26.90576-31.62549-49.23486l21.11639-96.96326
			c3.99902-18.36169,19.61938-31.19019,37.45807-32.46716c-20.68469-2.14832-40.12103,11.55603-44.65051,32.35339
			l-21.11639,96.96326c-4.86298,22.3291,9.29645,44.37231,31.62549,49.23486c2.9668,0.64661,5.92767,0.95618,8.84473,0.95618
			c0.97638,0,1.94592-0.04333,2.91083-0.11206C563.68634,1496.80542,562.16376,1496.56531,560.63934,1496.23303z"/>
		<path class="st11" d="M577.27026,1424.43054c14.28064,0,27.30731-5.34302,37.21307-14.1272l9.31488-42.77271
			c4.86261-22.3291-9.29639-44.37231-31.62549-49.23499c-22.32611-4.86597-44.37189,9.29639-49.23492,31.62549l-11.15833,51.23767
			C541.97485,1415.25232,558.54596,1424.43054,577.27026,1424.43054z"/>
		<circle class="st12" cx="583.36798" cy="1358.72595" r="58.55235"/>
		<path class="st11" d="M935.11865,1477.91187c-15.32867,0-30.05768-8.55212-37.22559-23.25806l-82.37299-168.99597
			c-10.0127-20.54175-1.47681-45.31152,19.065-55.32422c20.5426-10.01428,45.31232-1.47681,55.32501,19.06592l82.37292,168.99585
			c10.0127,20.54187,1.47681,45.31152-19.06494,55.32422C947.38147,1476.56433,941.20197,1477.91187,935.11865,1477.91187z"/>
		<path class="st12" d="M604.50061,1577.20935h285.7251c0-39.20007-14.74988-95.21375-18.97906-135.89355
			c-7.1543-68.81799,23.90863-140.80591-5.41211-203.25977c-24.39117-51.95374-87.98242-51.10535-118.47137-51.10535
			s-94.0802-0.84839-118.47137,51.10535c-29.32074,62.45386,1.74219,134.44177-5.41217,203.25977
			C619.25049,1481.99561,604.50061,1538.00928,604.50061,1577.20935z"/>
		<g>
			<path class="st13" d="M744.62585,1186.94983c-0.25696,0-0.51813,0.00024-0.77881,0.00024
				C744.1051,1186.95007,744.3634,1186.94983,744.62585,1186.94983z"/>
			<path class="st13" d="M871.24664,1441.3158c-7.1543-68.81799,23.90863-140.80591-5.41211-203.25977
				c-24.39117-51.95374-87.98242-51.10535-118.47137-51.10535c-0.66748,0-1.35645-0.00024-2.05487-0.00061
				c30.41644,0.00867,88.07635,1.03503,110.69965,51.10596c28.21826,62.45386-1.6767,134.44177,5.20862,203.25977
				c4.07013,40.67981,18.2655,96.69348,18.2655,135.89355h10.74365C890.22571,1538.00928,875.47583,1481.99561,871.24664,1441.3158z
				"/>
		</g>
		<g>
			<path class="st14" d="M845.35767,1259.60901l-26.94537-55.58203c-6.41974-13.24243-17.56348-23.12976-30.88965-27.40686
				l-23.34167-7.4917c-4.78156-1.53467-9.74579-2.31421-14.73657-2.31421h-4.16248c-4.99078,0-9.95502,0.77954-14.73657,2.31421
				l-23.34167,7.4917c-13.32617,4.2771-24.46991,14.16443-30.88965,27.40686l-26.94537,55.58203l38.34222,35.57141
				l-17.68652,15.46582l67.64435,91.53381c4.95386,6.70325,14.43506,6.70325,19.38892,0l67.64435-91.53381l-17.68652-15.46582
				L845.35767,1259.60901z"/>
			<path class="st15" d="M739.67023,1381.63477c2.67462,7.61462,12.71124,7.61462,15.38586,0l49.62762-141.28992
				c4.77838-13.60364,6.53363-27.95862,5.4162-42.01746c-23.35065-6.3894-47.12524-6.16785-62.73676-6.16785
				s-39.38599-0.22156-62.73676,6.16785c-1.11743,14.05884,0.63782,28.41382,5.4162,42.01746L739.67023,1381.63477z"/>
			<path class="st15" d="M822.13977,1261.47327l-8.84607-55.23682c-1.36389-8.51563-7.38824-15.30212-15.24768-17.17639
				l-50.68286-11.80957l-50.68286,11.80957c-7.85944,1.87427-13.88379,8.66077-15.24768,17.17639l-8.84607,55.23682
				c-1.5575,9.72412,8.56317,16.66077,16.12872,11.05457l18.58862-13.77454h80.11847l18.58868,13.77454
				C813.5766,1278.13403,823.69727,1271.19739,822.13977,1261.47327z"/>
		</g>
		<path class="st16" d="M755.26489,1238.05603h-15.80347c-21.52332,0-38.97137-17.44812-38.97137-38.97144v-31.29834h93.74622
			v31.29834C794.23627,1220.60791,776.78821,1238.05603,755.26489,1238.05603z"/>
		<linearGradient id="SVGID_3_" gradientUnits="userSpaceOnUse" x1="750.51611" y1="1170.96643" x2="708.7027" y2="1209.87622">
			<stop  offset="0" style="stop-color:#E6A995"/>
			<stop  offset="0.37426" style="stop-color:#E9AE9B"/>
			<stop  offset="0.89242" style="stop-color:#F3BDAC"/>
			<stop  offset="1" style="stop-color:#F6C1B0"/>
		</linearGradient>
		<path class="st17" d="M700.48999,1199.08459c0,2.22815,0.19714,4.40906,0.55634,6.53503
			c34.29565-0.69885,78.0108-13.81714,93.19-25.60486v-12.22852h-93.74634V1199.08459z"/>
		<g>
			<g>
				<circle class="st18" cx="664.11664" cy="761.82129" r="102.92437"/>
				<path class="st19" d="M664.11664,658.89691c-0.88232,0-1.76202,0.01135-2.6391,0.03339
					c52.84271,1.40002,95.27106,46.92981,95.27106,102.89099s-42.42834,101.49103-95.27106,102.89099
					c0.87708,0.02209,1.75677,0.03339,2.6391,0.03339c56.84351,0,102.92438-46.08081,102.92438-102.92438
					S720.96014,658.89691,664.11664,658.89691z"/>
				<path class="st20" d="M684.76074,825.36591c-56.84351,0-102.92438-46.08081-102.92438-102.92438
					c0-9.31744,1.24548-18.34265,3.56622-26.92627c-15.10315,17.91095-24.21033,41.04321-24.21033,66.30603
					c0,56.84357,46.08087,102.92438,102.92438,102.92438c47.52606,0,87.52136-32.21539,99.35828-75.99811
					C744.59473,811.13782,716.34149,825.36591,684.76074,825.36591z"/>
				<path class="st18" d="M629.2594,837.59753h55.90088c-8.07135-46.24969-48.41583-81.40875-96.97583-81.40875
					c-47.98053,0-87.93692,34.32605-96.66968,79.75861c17.67691-16.90381,41.6402-27.28809,68.02985-27.28809
					C586.78241,808.6593,611.43561,819.7218,629.2594,837.59753z"/>
				<path class="st20" d="M629.2594,837.59747h29.88495c-73.72998-93.802-148.06424-30.81805-167.62958-1.65015
					c17.67691-16.90381,41.6402-27.28802,68.02985-27.28802C586.78241,808.6593,611.43561,819.7218,629.2594,837.59747z"/>
				<g>
					<path class="st18" d="M581.21198,842.6048c32.75098-12.8302,69.62085,2.89447,83.17163,35.14221
						c1.60016-10.78949,0.50708-22.12671-3.75677-33.0108c-13.02661-33.25208-50.54279-49.64807-83.7948-36.62152
						c-33.25208,13.02661-49.64807,50.54279-36.62146,83.7948c0.19629,0.5011,0.41577,0.9859,0.62311,1.47931
						C544.12189,871.21539,558.84412,851.36749,581.21198,842.6048z"/>
					<path class="st20" d="M581.21198,842.60486c32.75085-12.83026,69.62091,2.89441,83.17169,35.14215
						c1.6001-10.78949,0.50702-22.12671-3.7569-33.0108c-0.46356-1.18323-0.96606-2.33899-1.49042-3.47894
						c-104.75684-46.30011-119.42395,23.04169-118.30261,52.13153C544.12195,871.21539,558.84412,851.36749,581.21198,842.60486z"/>
				</g>
			</g>
			<path class="st18" d="M700.6134,754.58826h93.49951c78.90082,0,142.86255,63.96173,142.86255,142.86255v153.75146H557.75085
				V897.45081C557.75085,818.54999,621.71259,754.58826,700.6134,754.58826z"/>
			<path class="st20" d="M713.30646,754.5882h-12.69312c-78.90082,0-142.86255,63.96179-142.86255,142.86255v153.75153h15.67725
				V894.46661C573.42804,817.21393,636.05377,754.5882,713.30646,754.5882z"/>
			<path class="st19" d="M794.11298,754.5882h-93.49963c-15.67065,0-30.74854,2.53131-44.85657,7.19348
				c10.93231-2.67871,22.35468-4.10956,34.11292-4.10956h93.49939c78.90082,0,142.86255,63.96179,142.86255,142.86255v150.6676
				h10.7439V897.45074C936.97552,818.54999,873.01379,754.5882,794.11298,754.5882z"/>
			<path class="st16" d="M776.95093,1177.90991h-59.17554c-58.33246,0-105.62024-47.28784-105.62024-105.62024V936.74359
				c0-29.2381,23.70215-52.94025,52.94025-52.94025h164.53552c29.2381,0,52.94025,23.70215,52.94025,52.94025v135.54608
				C882.57117,1130.62207,835.28339,1177.90991,776.95093,1177.90991z"/>
			<path class="st4" d="M715.99835,1087.6438v15.53015c0,17.32227,14.04248,31.36475,31.36475,31.36475h0.00006
				c17.32233,0,31.36481-14.04248,31.36481-31.36475v-15.53015H715.99835z"/>
			<g>
				<g>
					<circle class="st21" cx="817.19739" cy="1031.16663" r="15.24448"/>
					<circle class="st21" cx="677.52893" cy="1031.16663" r="15.24448"/>
				</g>
			</g>
			<path class="st18" d="M841.86957,997.48529c-1.74054,0-3.50403-0.43469-5.12714-1.35089
				c-12.23724-6.90424-26.85138-6.90509-39.09033,0c-5.02679,2.83752-11.40363,1.06165-14.24066-3.96722
				c-2.8371-5.02844-1.06085-11.40399,3.96765-14.24109c18.67194-10.53546,40.96613-10.53461,59.63635,0
				c5.02844,2.8371,6.80469,9.21265,3.96765,14.24109C849.06219,995.57166,845.51819,997.48529,841.86957,997.48529z"/>
			<path class="st18" d="M702.20056,997.48529c-1.73969,0-3.5036-0.43469-5.1272-1.35089
				c-12.23724-6.90424-26.8501-6.90509-39.08905,0c-5.02679,2.83752-11.40356,1.06165-14.24109-3.96722
				c-2.8371-5.02802-1.06079-11.40399,3.96722-14.24109c18.67065-10.53503,40.96527-10.53503,59.63678,0
				c5.02808,2.8371,6.80432,9.21307,3.96722,14.24109C709.39362,995.57166,705.84961,997.48529,702.20056,997.48529z"/>
			<g>
				<path class="st16" d="M903.38025,1091.99939h-33.5379v-81.5943h33.5379c22.53162,0,40.79706,18.26556,40.79706,40.79706v0.00012
					C944.17731,1073.73389,925.91187,1091.99939,903.38025,1091.99939z"/>
				<path class="st22" d="M903.38019,1026.95642h-16.98669v48.49182h16.98669c13.36957,0,24.24573-10.87659,24.24573-24.24609
					C927.62592,1037.83301,916.74976,1026.95642,903.38019,1026.95642z"/>
				<path class="st16" d="M591.34607,1091.99939h33.5379v-81.5943h-33.5379c-22.53162,0-40.79706,18.26556-40.79706,40.79706
					v0.00012C550.54901,1073.73389,568.81445,1091.99939,591.34607,1091.99939z"/>
				<path class="st22" d="M591.34613,1026.95642h16.98669v48.49182h-16.98669c-13.36957,0-24.24573-10.87659-24.24573-24.24609
					C567.1004,1037.83301,577.97656,1026.95642,591.34613,1026.95642z"/>
			</g>
			<path class="st18" d="M882.57117,1067.17261L882.57117,1067.17261v-86.67572h17.88702v68.78876
				C900.45819,1059.16443,892.44989,1067.17261,882.57117,1067.17261z"/>
			<path class="st18" d="M612.15515,1067.17261L612.15515,1067.17261v-86.67572h-17.88702v68.78876
				C594.26813,1059.16443,602.27643,1067.17261,612.15515,1067.17261z"/>
			<path class="st18" d="M813.52417,807.14539H683.48438c-47.19684,0-87.45099,29.70496-103.0874,71.43127
				c-4.50378,12.01263-6.96893,25.02704-6.96893,38.61639v66.5705h36.76965c21.9259,0,39.98401-16.54242,42.37958-37.82373h67.92938
				c33.43347,0,60.54236-27.10034,60.54236-60.54236v-1.59412v-44.18286
				C781.04901,821.68427,795.58795,807.14539,813.52417,807.14539z"/>
			<g>
				<path class="st19" d="M598.62653,983.76355h11.57117c21.9259,0,39.98401-16.54242,42.37958-37.82373H641.0061
					C638.61053,967.22113,620.55237,983.76355,598.62653,983.76355z"/>
				<path class="st19" d="M801.953,807.14539c-17.93634,0-32.47516,14.53888-32.47516,32.4751v44.18286v1.59412
					c0,33.44202-27.10889,60.54236-60.54236,60.54236h11.57117c33.43347,0,60.54236-27.10034,60.54236-60.54236v-1.59412v-44.18286
					c0-17.93622,14.53894-32.4751,32.47516-32.4751H801.953z"/>
			</g>
			<path class="st19" d="M683.48438,807.14539c-40.80518,0-76.40619,22.21338-95.40942,55.19336
				c20.00238-27.52539,52.44647-45.42963,89.08173-45.42963h130.03979v66.89423h6.3277v-76.65796H683.48438z"/>
			<path class="st20" d="M845.99927,839.62048v46.76135c-5.15692-1.67255-10.65369-2.57849-16.36823-2.57849h-48.58203v-44.18286
				c0-17.93622,14.53894-32.4751,32.47516-32.4751C831.46045,807.14539,845.99927,821.68427,845.99927,839.62048z"/>
			<path class="st12" d="M829.70715,1076.31934h-25.01984c-21.54895,0-39.08014-17.53162-39.08014-39.08057v-24.80121
				c0-3.84894,3.12036-6.96887,6.96893-6.96887c3.84851,0,6.96887,3.11993,6.96887,6.96887v24.80121
				c0,13.86377,11.27856,25.14282,25.14233,25.14282h25.01984c13.86383,0,25.14233-11.27905,25.14233-25.14282v-24.80121
				c0-3.84894,3.12036-6.96887,6.96893-6.96887c3.84851,0,6.96887,3.11993,6.96887,6.96887v24.80121
				C868.78729,1058.78772,851.25616,1076.31934,829.70715,1076.31934z"/>
			<path class="st12" d="M690.03857,1076.31934h-25.01941c-21.54901,0-39.08057-17.53162-39.08057-39.08057v-24.80121
				c0-3.84894,3.11993-6.96887,6.96887-6.96887c3.849,0,6.96893,3.11993,6.96893,6.96887v24.80121
				c0,13.86377,11.27893,25.14282,25.14276,25.14282h25.01941c13.86377,0,25.14276-11.27905,25.14276-25.14282v-24.80121
				c0-3.84894,3.11993-6.96887,6.96887-6.96887c3.849,0,6.96893,3.11993,6.96893,6.96887v24.80121
				C729.11914,1058.78772,711.58752,1076.31934,690.03857,1076.31934z"/>
			<path class="st12" d="M772.57611,1034.34082h-50.4259c-3.84894,0-6.96887-3.11987-6.96887-6.96887
				c0-3.84894,3.11993-6.96887,6.96887-6.96887h50.4259c3.84851,0,6.96887,3.11993,6.96887,6.96887
				C779.54498,1031.22095,776.42462,1034.34082,772.57611,1034.34082z"/>
			<path class="st23" d="M829.63092,883.80334h-6.08972c28.87061,0,52.27478,23.40424,52.27478,52.27484v137.539
				c0,57.59924-46.69336,104.29272-104.2926,104.29272h5.42761c58.3324,0,105.62018-47.28784,105.62018-105.62024V936.74359
				C882.57117,907.50549,858.86902,883.80334,829.63092,883.80334z"/>
		</g>
		<path class="st16" d="M911.40295,1260.71033c-10.64734,0-20.29425-7.27686-22.86334-18.08752l-17.42224-73.31897
			c-3.00299-12.63794,4.80731-25.3175,17.44525-28.32056c12.64215-3.00037,25.31757,4.80823,28.3205,17.44531l17.4223,73.31897
			c3.00293,12.63794-4.80731,25.3175-17.44525,28.32056C915.0329,1260.50195,913.20215,1260.71033,911.40295,1260.71033z"/>
		<path class="st12" d="M936.92981,1478.05566c-19.48096,0-36.83435-13.82043-40.60461-33.66211l-19.77441-104.07507
			c-4.26538-22.45068,10.47632-44.10852,32.92706-48.37402c22.45154-4.26953,44.10773,10.47644,48.37396,32.92712
			l19.77448,104.07507c4.26538,22.45068-10.47638,44.10852-32.92706,48.37402
			C942.09009,1477.81653,939.49121,1478.05566,936.92981,1478.05566z"/>
		<path class="st13" d="M977.62628,1428.94666l-19.77448-104.07507c-4.26624-22.45068-25.92242-37.19666-48.37396-32.92712
			c-3.42908,0.65149-6.67566,1.71313-9.70477,3.11707c0.61615-0.14636,1.23627-0.28406,1.86475-0.40344
			c22.45154-4.26965,44.10773,10.47632,48.37396,32.927l19.77448,104.07507c3.61395,19.02173-6.41913,37.46985-23.22235,45.25708
			C967.95819,1471.8374,981.77234,1450.76892,977.62628,1428.94666z"/>
		<path class="st11" d="M960.37604,1338.15686l-2.52423-13.28528c-4.26624-22.45068-25.92242-37.19666-48.37396-32.92712
			c-22.45074,4.2655-37.19244,25.92334-32.92706,48.37402l5.89447,31.02356c7.41315,3.60999,15.73743,5.63977,24.53748,5.63977
			C931.94067,1376.98181,953.08228,1360.68542,960.37604,1338.15686z"/>
		<circle class="st12" cx="912.85059" cy="1309.6969" r="56.12238"/>
		<path class="st16" d="M912.80829,1348.03259c-18.04584,0-34.12054-12.80127-37.61267-31.1814l-11.73621-61.76819
			c-3.95148-20.79614,9.70386-40.85815,30.50085-44.80957c20.7995-3.95154,40.85895,9.70386,44.80957,30.50085l11.73621,61.76819
			c3.95148,20.79614-9.70386,40.85815-30.50085,44.80957C917.58838,1347.8114,915.18091,1348.03259,912.80829,1348.03259z"/>
		<path class="st16" d="M827.09045,1305.86023c-7.78729,0-14.63708-5.6571-15.89697-13.59155
			c-1.39514-8.79028,4.59967-17.04712,13.38995-18.44312l51.21021-8.13013c8.79535-1.38574,17.04712,4.60059,18.44312,13.38989
			c1.39514,8.79028-4.59973,17.04712-13.38995,18.44312l-51.21027,8.13013
			C828.78076,1305.79382,827.93005,1305.86023,827.09045,1305.86023z"/>
		<path class="st16" d="M619.65021,1369.22668c-4.22498,0-8.5014-1.13831-12.35803-3.52539
			c-11.04462-6.83789-14.45502-21.33459-7.61713-32.37915l39.63519-64.02087c6.83746-11.04456,21.33337-14.45337,32.37836-7.61707
			c11.04462,6.83789,14.45502,21.33459,7.61713,32.3783l-39.63519,64.02087
			C635.22052,1365.27173,627.52557,1369.22668,619.65021,1369.22668z"/>
		<g>
			<path class="st24" d="M545.48297,1236.62341v146.14697c0,6.35889,5.15497,11.51379,11.51392,11.51379h77.73102
				c6.35895,0,11.51392-5.15491,11.51392-11.51379v-146.14697c0-6.35889-5.15497-11.51392-11.51392-11.51392h-77.73102
				C550.63794,1225.1095,545.48297,1230.26453,545.48297,1236.62341z"/>
			<rect x="551.9223" y="1248.85229" class="st4" width="87.87994" height="121.68955"/>
			<circle class="st25" cx="595.86237" cy="1382.41309" r="7.05965"/>
			<path class="st25" d="M609.34827,1239.35498h-26.97174c-1.31128,0-2.37427-1.06299-2.37427-2.37427l0,0
				c0-1.31128,1.06299-2.37427,2.37427-2.37427h26.97174c1.31128,0,2.37427,1.06299,2.37427,2.37427l0,0
				C611.72253,1238.29199,610.65955,1239.35498,609.34827,1239.35498z"/>
		</g>
		<path class="st16" d="M540.90942,1269.69592h-0.00012c-14.75372,0-26.71411,11.96033-26.71411,26.71423v56.85852
			c0,14.75391,11.96039,26.71423,26.71411,26.71423h0.00012c14.75372,0,26.71399-11.96033,26.71399-26.71423v-56.85852
			C567.62341,1281.65625,555.66315,1269.69592,540.90942,1269.69592z"/>
		<circle class="st16" cx="882.57117" cy="1247.1427" r="55.46086"/>
		<path class="st23" d="M877.76086,1196.35791c25.24786,0,46.54034,17.08459,53.24915,40.45178
			c1.33282,2.88098,2.336,5.97522,2.94958,9.24451l11.73621,62.52808c1.8338,9.76953-0.12897,19.3761-4.83282,27.26978
			c8.0426-8.62756,12.01355-20.83411,9.64307-33.30957l-11.73621-61.76819c-0.61353-3.22974-1.61676-6.28625-2.94958-9.1322
			c-6.7088-23.08325-28.0014-39.96021-53.24908-39.96021c-16.61285,0-31.50873,7.31384-41.67322,18.88611
			C850.69745,1201.73364,863.60645,1196.35791,877.76086,1196.35791z"/>
	</g>
	<circle class="st14" cx="747.36316" cy="1431.73352" r="10.7437"/>
	<circle class="st14" cx="747.36316" cy="1500.8418" r="10.7437"/>
</g>
<text transform="matrix(1 0 0 1 1130.04395 541.4458)" class="st14 st26 st27">CONTACT ME</text>
<path class="st12" d="M1505.71814,963.50751c-30.57507,0-55.35864,24.78363-55.35864,55.35858
	c0,21.35425,12.09363,39.8866,29.80847,49.11865l25.55017,44.15637l25.55005-44.16199h0.00574
	c17.70337-9.23779,29.79712-27.75879,29.79712-49.11304C1561.07104,988.29114,1536.28735,963.50751,1505.71814,963.50751z
	 M1505.71814,994.44586c13.48474,0,24.42017,10.92975,24.42017,24.42023c0,13.48474-10.93542,24.42017-24.42017,24.42017
	c-13.49048,0-24.42029-10.93542-24.42029-24.42017C1481.29785,1005.37561,1492.22766,994.44586,1505.71814,994.44586z"/>
<line class="st28" x1="1472.37903" y1="904.64581" x2="1539.05139" y2="904.64581"/>
<line class="st28" x1="1472.37903" y1="1127.94788" x2="1539.05139" y2="1127.94788"/>
<line class="st28" x1="1472.37903" y1="1339.5946" x2="1539.05139" y2="1339.5946"/>
<line class="st28" x1="1472.37903" y1="1529.49341" x2="1539.05139" y2="1529.49341"/>
<g>
	<path class="st12" d="M1561.13013,1450.10168c0,6.51526-1.04089,12.47681-3.1217,17.88342
		c-2.08167,5.40759-5.02271,9.6488-8.82288,12.72522c-3.80115,3.07739-8.21216,4.61523-13.23474,4.61523
		c-3.34851,0-6.31213-0.80237-8.89075-2.40967c-2.57861-1.60559-4.43445-3.7207-5.56567-6.34546h-1.08521
		c-4.88708,5.83679-11.10876,8.75513-18.66406,8.75513c-8.00879,0-14.3208-2.40967-18.93604-7.22815
		c-4.61511-4.81848-6.92188-11.41248-6.92188-19.78357c0-9.54663,3.0304-17.23926,9.09399-23.07605
		c6.06262-5.83667,13.98108-8.75513,23.75452-8.75513c3.89063,0,8.17773,0.37402,12.86072,1.12036s8.54016,1.64087,11.57141,2.68079
		l-1.5603,33.18823c0,6.28943,1.71851,9.43372,5.15723,9.43372c2.89587,0,5.20349-2.11523,6.92285-6.34644
		c1.71936-4.22937,2.57959-9.76074,2.57959-16.59314c0-7.28418-1.51709-13.72095-4.54749-19.3092
		c-3.03223-5.5874-7.2959-9.85107-12.79297-12.79297c-5.49792-2.94104-11.77563-4.41199-18.83398-4.41199
		c-9.14001,0-17.08105,1.87842-23.82227,5.63354c-6.74207,3.75586-11.91113,9.17346-15.50806,16.25439
		c-3.59692,7.08179-5.3949,15.25952-5.3949,24.53516c0,12.48755,3.33569,22.0686,10.01013,28.74194
		c6.67334,6.67432,16.34473,10.01111,29.01392,10.01111c4.7959,0,10.06702-0.53137,15.81348-1.5957
		c5.74548-1.0625,11.40247-2.61206,16.96729-4.64856v13.03064c-9.68311,4.11731-20.42871,6.17639-32.23779,6.17639
		c-17.19397,0-30.59778-4.52478-40.21216-13.57361c-9.61536-9.04883-14.42212-21.62671-14.42212-37.7356
		c0-11.1748,2.45398-21.32141,7.36377-30.43884c4.90881-9.11658,11.89941-16.26526,20.97168-21.4469
		c9.07043-5.17993,19.51245-7.77124,31.32153-7.77124c9.95325,0,18.84387,2.0365,26.672,6.10876
		c7.82727,4.07214,13.86816,9.86377,18.12109,17.37378C1559.0033,1431.61926,1561.13013,1440.28406,1561.13013,1450.10168z
		 M1491.63196,1458.58484c0,9.54761,3.89148,14.32092,11.67358,14.32092c4.07214,0,7.17126-1.43579,9.29822-4.30981
		c2.12598-2.87329,3.41614-7.54443,3.86877-14.0155l0.88184-14.99854c-2.3075-0.4978-4.90967-0.74622-7.80457-0.74622
		c-5.65613,0-10.05627,1.76453-13.20044,5.2937C1493.2041,1447.65857,1491.63196,1452.47705,1491.63196,1458.58484z"/>
</g>
<g>
	<path class="st12" d="M1540.48303,1172.64929h-69.53552c-5.68762,0-10.2998,4.6123-10.2998,10.2998v128.03394
		c0,5.6875,4.61218,10.2998,10.2998,10.2998h69.53552c5.6875,0,10.29968-4.6123,10.29968-10.2998V1182.9491
		C1550.78271,1177.2616,1546.17053,1172.64929,1540.48303,1172.64929z M1492.14893,1181.76563
		c0.3855-0.38562,0.9198-0.62219,1.50146-0.62219h24.12976c1.17004,0,2.12354,0.95349,2.12354,2.12341
		c0,0.5885-0.23669,1.12268-0.62219,1.50134c-0.3855,0.38562-0.9198,0.62219-1.50134,0.62219h-24.12976
		c-1.17004,0-2.12354-0.94678-2.12354-2.12354C1491.52686,1182.6853,1491.76355,1182.15112,1492.14893,1181.76563z
		 M1505.71521,1316.98169c-3.4895,0-6.31641-2.8269-6.31641-6.31653s2.8269-6.31641,6.31641-6.31641
		c3.48962,0,6.31653,2.82678,6.31653,6.31641S1509.20483,1316.98169,1505.71521,1316.98169z M1539.7052,1300.04761h-67.97998
		v-106.15637h67.97998V1300.04761z"/>
</g>
<text transform="matrix(1 0 0 1 1667.71191 848.24023)" class="st12 st29 st30">www.janedoe.com</text>
<text transform="matrix(1 0 0 1 1671.72754 1475.66504)" class="st12 st29 st30">janedoe@mail.com</text>
<text transform="matrix(1 0 0 1 1667.71191 1057.38184)" class="st12 st29 st30">3314, Somewhere</text>
<text transform="matrix(1 0 0 1 1667.71191 1266.52344)" class="st12 st29 st30">123 - 4567</text>
<g>
	<path class="st12" d="M1502.38696,859.8252h-22.61523c3.70154,13.31671,9.65137,23.70575,16.66492,28.67969
		c1.95398,0.30054,3.93958,0.50427,5.95032,0.61328V859.8252z"/>
	<path class="st12" d="M1502.38696,797.53992v-29.29315c-2.01074,0.10901-3.99609,0.31268-5.94995,0.61322
		c-7.01367,4.97388-12.96362,15.36298-16.66528,28.67993H1502.38696z"/>
	<path class="st12" d="M1509.04346,859.8252v29.29297c2.01086-0.10901,3.99634-0.31274,5.95032-0.61328
		c7.01367-4.97394,12.96338-15.36298,16.66492-28.67969H1509.04346z"/>
	<path class="st12" d="M1509.04346,797.53992h22.61523c-3.70166-13.31696-9.65149-23.70605-16.66528-28.67993
		c-1.95386-0.30054-3.93921-0.50421-5.94995-0.61322V797.53992z"/>
	<path class="st12" d="M1475.75269,825.35431h26.63428v-21.15796h-24.2312
		C1476.78821,810.78943,1475.94702,817.92438,1475.75269,825.35431z"/>
	<path class="st12" d="M1540.1322,804.19635c1.26636,6.60815,2.02869,13.71301,2.20447,21.15796h23.81421
		c-0.40649-7.49927-2.18738-14.62897-5.07983-21.15796H1540.1322z"/>
	<path class="st12" d="M1538.64063,797.53992h18.98291c-6.90833-11.48956-17.52478-20.48645-30.19141-25.35852
		C1532.17944,778.72375,1536.03625,787.39948,1538.64063,797.53992z"/>
	<path class="st12" d="M1540.1322,853.16876h20.93872c2.89258-6.52899,4.67346-13.65869,5.07996-21.15796h-23.81421
		C1542.16089,839.45575,1541.39856,846.56061,1540.1322,853.16876z"/>
	<path class="st12" d="M1472.78979,859.8252h-18.98267c6.9082,11.48944,17.52454,20.48621,30.19104,25.35828
		C1479.25085,878.64117,1475.39417,869.96552,1472.78979,859.8252z"/>
	<path class="st12" d="M1478.15576,853.16876h24.2312V832.0108h-26.63428
		C1475.94702,839.44073,1476.78821,846.57568,1478.15576,853.16876z"/>
	<path class="st12" d="M1538.64063,859.8252c-2.60437,10.14032-6.46094,18.81598-11.20837,25.35828
		c12.6665-4.87207,23.28296-13.86884,30.19116-25.35828H1538.64063z"/>
	<path class="st12" d="M1469.09375,832.0108h-23.81421c0.40649,7.49927,2.1875,14.62897,5.08008,21.15796h20.9386
		C1470.03186,846.56061,1469.26953,839.45575,1469.09375,832.0108z"/>
	<path class="st12" d="M1450.3595,804.19635c-2.89246,6.52899-4.67346,13.65869-5.07996,21.15796h23.81421
		c0.17578-7.44495,0.93811-14.5498,2.20447-21.15796H1450.3595z"/>
	<path class="st12" d="M1472.78979,797.53992c2.60437-10.14044,6.46118-18.81616,11.2085-25.35852
		c-12.66663,4.87207-23.28308,13.86896-30.19116,25.35852H1472.78979z"/>
	<path class="st12" d="M1535.67786,832.0108h-26.6344v21.15796h24.23132
		C1534.64221,846.57568,1535.4834,839.44073,1535.67786,832.0108z"/>
	<path class="st12" d="M1533.27478,804.19635h-24.23132v21.15796h26.6344
		C1535.4834,817.92438,1534.64221,810.78943,1533.27478,804.19635z"/>
</g>
</svg>
