<?xml version="1.0" encoding="UTF-8" standalone="no"?>
<svg
   xmlns:dc="http://purl.org/dc/elements/1.1/"
   xmlns:cc="http://creativecommons.org/ns#"
   xmlns:rdf="http://www.w3.org/1999/02/22-rdf-syntax-ns#"
   xmlns:svg="http://www.w3.org/2000/svg"
   xmlns="http://www.w3.org/2000/svg"
   viewBox="0 0 1600 1066.6667"
   height="1066.6667"
   width="1600"
   xml:space="preserve"
   id="svg2"
   version="1.1"><metadata
     id="metadata8"><rdf:RDF><cc:Work
         rdf:about=""><dc:format>image/svg+xml</dc:format><dc:type
           rdf:resource="http://purl.org/dc/dcmitype/StillImage" /></cc:Work></rdf:RDF></metadata><defs
     id="defs6"><clipPath
       id="clipPath206"
       clipPathUnits="userSpaceOnUse"><path
         id="path204"
         d="m 8667.13,4280.12 c -25.77,0 -52.06,3.22 -78.81,9.66 -0.26,0.06 -0.51,0.12 -0.77,0.18 0.26,-0.06 0.51,-0.12 0.77,-0.18 26.75,-6.44 53.04,-9.66 78.81,-9.66 7,0 13.96,0.24 20.88,0.71 49.24,3.38 96.46,18.75 141.18,46.06 32.77,20.05 60.45,44.25 82.92,72.43 v 0 c -22.47,-28.18 -50.15,-52.38 -82.92,-72.43 -44.72,-27.31 -91.94,-42.68 -141.18,-46.06 -6.92,-0.47 -13.88,-0.71 -20.88,-0.71" /></clipPath></defs><g
     transform="matrix(1.3333333,0,0,-1.3333333,0,1066.6667)"
     id="g10"><g
       transform="scale(0.1)"
       id="g12"><path
         id="path14"
         style="fill:transparent;fill-opacity:1;fill-rule:nonzero;stroke:none"
         d="M 0,0 H 12000 V 8000 H 0 Z" /><path
         id="path16"
         style="fill:#3a332d;fill-opacity:1;fill-rule:nonzero;stroke:none"
         d="m 2045.84,4329.91 c -1.99,-8.31 -3.64,-17.7 0.97,-24.9 4.03,-6.31 11.73,-9.07 18.9,-11.24 167.67,-50.53 347.54,-5.88 516.86,38.82 28.3,7.46 56.6,14.94 84.72,23.05 13.73,3.96 27.86,8.32 38.7,17.62 15.09,12.95 21.42,33.55 23.13,53.37 4.06,47.02 -13.61,92.96 -32.04,136.41 -47.19,111.21 -101.53,219.4 -162.57,323.65 -7.81,13.34 -15.92,26.84 -27.49,37.08 -22.79,20.17 -56.24,24.66 -86.08,18.68 -29.84,-5.99 -56.95,-21.15 -83.13,-36.66 -92.03,-54.54 -153.24,-110.54 -172.12,-215.99 -22.45,-125.47 -90.24,-236.48 -119.85,-359.89" /><path
         id="path18"
         style="fill:#e1cfb5;fill-opacity:1;fill-rule:nonzero;stroke:none"
         d="m 2685.88,4928.67 c -71.62,254.67 -391.24,181.73 -465.76,-36.05 -44.93,-131.29 36.45,-307.63 161.23,-373.84 -4.15,-33.99 4,-122.93 5.8,-122.93 44.72,0.05 89.43,0.09 134.15,0.13 1.16,33.19 0.4,66.44 -1.91,99.57 15.62,2.8 31.4,7.26 47.27,14.05 73.1,31.26 121.52,105.68 137.44,183.57 15.91,77.88 3.3,158.97 -18.22,235.5" /><path
         id="path20"
         style="fill:#323643;fill-opacity:1;fill-rule:nonzero;stroke:none"
         d="m 2384.22,252.379 -8.17,-83.789 -171.97,-72.6681 -73.75,89.3481 90.08,78.242 171.97,72.668 -8.16,-83.801" /><path
         id="path22"
         style="fill:#68707f;fill-opacity:1;fill-rule:nonzero;stroke:none"
         d="M 2527.85,1950.67 2395.42,278.801 2229.71,256.59 l -137.15,1424.96 -113.41,452.07 548.7,-182.95" /><path
         id="path24"
         style="fill:#68707f;fill-opacity:1;fill-rule:nonzero;stroke:none"
         d="m 2873.71,2398.63 99.34,-1986.661 -100.72,-37.258 -314.96,1503.229 -173.26,435.26 489.6,85.43" /><path
         id="path26"
         style="fill:#323643;fill-opacity:1;fill-rule:nonzero;stroke:none"
         d="m 2885.78,308.949 179.59,-54.179 65.61,99.691 -97.86,69.348 -163.47,-30.34 16.13,-84.52" /><path
         id="path28"
         style="fill:#dad9ca;fill-opacity:1;fill-rule:nonzero;stroke:none"
         d="m 2697.78,4459.39 c -34.53,4.32 -69.85,0.65 -104.46,-4.17 -104.45,-14.54 -207.42,-39.45 -306.85,-74.22 -32.07,-11.22 -63.97,-23.55 -93.1,-40.93 -141.66,-84.49 -130.17,-216.85 -156.15,-364.23 -18.11,-102.74 -44.66,-208.23 -51.84,-312.5 -18.7,-271.82 -104.1,-546.78 -221.94,-795.66 -49.68,-104.94 -108.9,-206.15 -144.23,-316.6 -58.54,-183.01 -58.38,-398.63 -41.83,-588.06 166.63,-45.17 322.7,-129.78 494.07,-151.7 140.98,-18.04 283.37,7.54 424.98,19.9 167.46,14.62 336.09,10.72 503.71,23.43 167.62,12.72 337.07,43.1 485.43,121.08 -15.31,-8.05 -227.67,559.68 -242.65,610.57 -25.09,85.24 -38.52,173.31 -52.61,260.98 -69.6,432.87 -157.49,864.65 -298.83,1280.87 -36.31,106.92 -43.56,302.25 -178.94,328.88 -4.9,0.96 -9.83,1.74 -14.76,2.36" /><path
         id="path30"
         style="fill:#3a332d;fill-opacity:1;fill-rule:nonzero;stroke:none"
         d="m 2450.38,4997.24 c 77.54,-13.93 173.15,-79.28 191.83,-159.96 9,-38.86 -3.83,-74.64 7.48,-115.85 21.98,-81.33 -77.78,-201.14 20.97,-257.67 50.77,-29.05 114.2,-19.64 171.95,-9.35 7,1.25 14.33,2.64 19.87,7.05 9.12,7.25 10.65,20.81 7.19,31.86 -3.45,11.04 -10.87,20.36 -17.36,29.99 -67.86,100.65 -51.42,245.02 -77.8,359.64 -26.34,114.4 -88.66,228.35 -203.55,275.3 -57.29,-36.6 -98.94,-96.24 -113.22,-162.08 l -7.36,1.07" /><path
         id="path32"
         style="fill:#3a332d;fill-opacity:1;fill-rule:nonzero;stroke:none"
         d="m 2167.88,4363.67 c 36.62,22.46 72.53,45.97 93.75,87.91 34.29,67.78 19.83,173.11 23.92,246.65 4.28,77.51 11.44,161.98 65.32,218.56 35.19,36.96 78.48,47.1 127.37,52.01 33.48,3.37 35.85,-9.03 62.65,11.1 20.55,15.44 35.59,57.62 38.55,81.79 5,40.78 -14.98,81.65 -44.51,110.6 -45.45,44.55 -96.46,64.27 -158.81,60.39 -218.85,-13.64 -371.77,-155.18 -415.13,-370.87 -20.84,-103.68 10.82,-214.48 -12.34,-314.52 -14.29,-61.76 -49.88,-105.1 -60.16,-170.45 -26.71,-169.57 -101.37,-389.86 -79.42,-561.03 0.81,-6.33 2.18,-13.31 7.38,-17.13 10.57,-7.76 24.38,3.95 32.1,14.48 45.05,61.56 90.1,123.1 135.16,184.64 17.69,24.17 35.6,48.75 45.85,76.79 25.52,69.81 1.81,155.35 45.84,215.53 24.02,32.83 58.56,52.75 92.48,73.55" /><path
         id="path34"
         style="fill:#dad9ca;fill-opacity:1;fill-rule:nonzero;stroke:none"
         d="m 1942.72,4290.32 -451.9,-835.3 504.82,-370.68 117.15,114.47 -285.88,261.54 434.42,336.41 -51.25,547.86 -267.36,-54.3" /><path
         id="path36"
         style="fill:#777f87;fill-opacity:1;fill-rule:nonzero;stroke:none"
         d="m 2569.91,4505.85 c 91.75,0 166.12,74.37 166.12,166.12 h 33.02 c 0,-109.98 -89.16,-199.15 -199.14,-199.15 v 33.03" /><path
         id="path38"
         style="fill:#434d55;fill-opacity:1;fill-rule:nonzero;stroke:none"
         d="m 2481.44,4519.17 h 64.4 c 16.48,0 29.84,-13.36 29.84,-29.85 v -6.93 c 0,-16.48 -13.36,-29.84 -29.84,-29.84 h -64.4 c -16.49,0 -29.85,13.36 -29.85,29.84 v 6.93 c 0,16.49 13.36,29.85 29.85,29.85" /><path
         id="path40"
         style="fill:#919ca6;fill-opacity:1;fill-rule:nonzero;stroke:none"
         d="m 2734,4793.97 v 136.62 c 0,147.65 -119.69,267.35 -267.34,267.35 -147.66,0 -267.35,-119.7 -267.35,-267.35 v -136.62 h -58.73 v 137.65 c 0,180.08 145.99,326.08 326.08,326.08 180.08,0 326.07,-146 326.07,-326.08 V 4793.97 H 2734" /><path
         id="path42"
         style="fill:#777f87;fill-opacity:1;fill-rule:nonzero;stroke:none"
         d="m 2062.55,4818.1 c -10.1,-15.21 -10.1,-25.57 -10.1,-38.45 v -24.96 -24.97 c 0,-12.87 0,-23.23 10.1,-38.44 l 16.48,-19.31 v 82.72 82.71 l -16.48,-19.3" /><path
         id="path44"
         style="fill:#434d55;fill-opacity:1;fill-rule:nonzero;stroke:none"
         d="m 2169.79,4632.02 h -35.57 c -30.48,0 -55.19,24.72 -55.19,55.2 v 134.93 c 0,30.49 24.71,55.2 55.19,55.2 h 35.57 c 30.49,0 55.2,-24.71 55.2,-55.2 v -134.93 c 0,-30.48 -24.71,-55.2 -55.2,-55.2" /><path
         id="path46"
         style="fill:#777f87;fill-opacity:1;fill-rule:nonzero;stroke:none"
         d="m 2875.43,4818.1 c 10.11,-15.21 10.11,-25.57 10.11,-38.45 v -24.96 -24.97 c 0,-12.87 0,-23.23 -10.11,-38.44 l -16.47,-19.31 v 82.72 82.71 l 16.47,-19.3" /><path
         id="path48"
         style="fill:#434d55;fill-opacity:1;fill-rule:nonzero;stroke:none"
         d="m 2768.24,4632.02 h 35.57 c 30.48,0 55.2,24.72 55.2,55.2 v 134.93 c 0,30.49 -24.72,55.2 -55.2,55.2 h -35.57 c -30.49,0 -55.2,-24.71 -55.2,-55.2 v -134.93 c 0,-30.48 24.71,-55.2 55.2,-55.2" /><path
         id="path50"
         style="fill:#e1cfb5;fill-opacity:1;fill-rule:nonzero;stroke:none"
         d="m 5997.66,3925.1 -165.08,64.62 -30.02,-32.32 v -53.43 h -83.92 l 7.43,-96.56 76.49,-29.21 161.05,21.78 34.05,125.12" /><path
         id="path52"
         style="fill:#323643;fill-opacity:1;fill-rule:nonzero;stroke:none"
         d="m 7378.64,546.961 c 16.43,18.098 35.61,27.961 57.27,24.551 20.81,-3.274 39.52,-17.371 48.1,-36.242 5.85,-12.86 7.09,-27.2 8.25,-41.231 6,-72.617 5.45,-245.051 -91.27,-269.859 -40.66,-10.43 -74.29,18.461 -85.14,54.949 -16.35,55.012 7.86,207.351 62.79,267.832" /><path
         id="path54"
         style="fill:#e1ceb4;fill-opacity:1;fill-rule:nonzero;stroke:none"
         d="m 7344.24,1642.51 5.06,-442.95 c -5.89,-196.75 24.83,-394.599 18.94,-591.361 -1.36,-45.238 -13.14,-92.969 -1.75,-137.808 11.16,-43.871 46.8,-51.621 83.38,-29.399 49.03,29.746 41.13,99.246 49.29,149.957 22.42,139.321 48.73,278.012 72.16,417.171 11.48,68.22 -12.19,163.83 -7.04,232.88 l 71.56,371.22 -291.6,30.29" /><path
         id="path56"
         style="fill:#9096a4;fill-opacity:1;fill-rule:nonzero;stroke:none"
         d="m 7850.33,2358.22 -192.78,-856.36 -40.96,-808.719 -305.68,6.859 -83.13,2262.11 592.6,-10.76 29.95,-593.13" /><path
         id="path58"
         style="fill:#323643;fill-opacity:1;fill-rule:nonzero;stroke:none"
         d="m 6941.4,563.07 c 17.14,17.129 36.69,25.879 58.13,21.192 20.6,-4.5 38.64,-19.723 46.4,-39.11 5.27,-13.222 5.9,-27.652 6.45,-41.761 2.87,-73.032 -5.04,-245.551 -102.51,-264.692 -40.96,-8.039 -73.25,22.852 -82.51,60.02 -13.94,56.011 16.7,207.051 74.04,264.351" /><path
         id="path60"
         style="fill:#e1ceb4;fill-opacity:1;fill-rule:nonzero;stroke:none"
         d="m 7102.53,1580.33 -25.94,-442.23 c -2.12,-122.9 -18.5,-244.85 -31.22,-366.909 -11.82,-113.39 6.57,-231.492 -52.68,-334.621 -18.59,-32.328 -56.15,-53.859 -82.4,-14.582 -20.22,30.282 -8.21,80.793 -12.09,115.141 -15.84,140.211 -35.57,279.973 -52.41,420.07 -8.26,68.691 19.89,163.091 18.01,232.291 l -53.99,374.15 292.72,16.69" /><path
         id="path62"
         style="fill:#9096a4;fill-opacity:1;fill-rule:nonzero;stroke:none"
         d="m 6715.68,2410.59 -24.87,-831.29 130.46,-840.652 310.95,-9.296 -13.72,909.778 164.54,754.48 55.23,493.86 -493.4,58.2 -129.19,-535.08" /><path
         id="path64"
         style="fill:#abb8c3;fill-opacity:1;fill-rule:nonzero;stroke:none"
         d="m 7106.01,4646.95 531.55,12.69 308.19,-573.18 -109.54,-536.86 -19.51,-642.48 -758.24,-10.34 -249.5,40.5 66.26,686.47 -37.99,917 268.78,106.2" /><path
         id="path66"
         style="fill:#abb8c3;fill-opacity:1;fill-rule:nonzero;stroke:none"
         d="m 7086.82,4299.64 -276.88,-553.51 -298.53,-59.32 -597.76,91.39 73.34,186.99 h 548.13 l 309.51,575.56 242.19,-241.11" /><path
         id="path68"
         style="fill:#e1ceb4;fill-opacity:1;fill-rule:nonzero;stroke:none"
         d="m 7139.29,5092.31 c 80.12,232.98 387.69,145.67 451.1,-61.77 41.36,-135.32 -63.14,-310.92 -203.36,-349.79 -0.61,-5.32 -1.08,-10.3 -1.09,-14.52 -0.1,-21.72 -2.78,-43.13 -6,-64.84 -1.2,-8.09 -123.9,15.49 -137.59,18.18 -4.79,0.94 -10.13,2.25 -12.7,6.26 -4.95,7.71 3.09,30.4 3.99,38.96 1.07,10.1 2.12,20.21 3.19,30.32 -69.17,33.76 -112.82,105.66 -124.99,178.85 -12.25,73.54 3.37,148.34 27.45,218.35" /><path
         id="path70"
         style="fill:#4d4343;fill-opacity:1;fill-rule:nonzero;stroke:none"
         d="m 7339.94,5302.84 c 16.5,-16.75 22.97,-40.1 27.73,-62.53 2.84,-13.39 5.28,-27.24 2.42,-40.51 -11.43,-52.89 -63.88,-50.12 -104.45,-67.16 -50.02,-21.02 -93.16,-59.73 -121.18,-104.31 -43.85,-69.79 -24.13,-159.6 -6.33,-236.6 6.26,-27.13 18.88,-67.47 -2.16,-91.67 -21.38,-24.59 -70.8,-20.79 -96.41,-8.14 -23.4,11.57 -42.63,32.94 -68.32,37.25 -27.19,4.55 -63.95,-7.4 -76.59,17.55 -3.53,6.94 -3.85,15.42 -8.3,21.78 -15.02,21.49 -52.39,-3.68 -73.57,11.47 -13.02,9.32 -12.94,29.17 -8.53,44.88 4.4,15.71 11.81,31.63 8.75,47.62 -2.64,13.73 -12.54,24.59 -18.66,37.08 -12.1,24.69 -7.92,56.83 10.08,77.67 33.49,38.76 98.29,31.4 134.17,67.85 18.7,18.99 25.94,46.38 32.91,72.3 6.97,25.93 15.33,53.25 35.32,70.82 24.67,21.7 60.32,18.01 84.66,43.74 14.31,15.13 23.85,34.81 39.92,47.97 21.16,17.34 62.54,30.68 88.86,39.52 41.77,14.04 88.47,5.11 119.68,-26.58" /><path
         id="path72"
         style="fill:#4d4343;fill-opacity:1;fill-rule:nonzero;stroke:none"
         d="m 7534.49,4931.05 c 1.43,-76.68 -36.66,-159.58 -1.34,-227.08 35.65,-68.12 124.52,-80.4 200.25,-83.95 12.46,-0.58 172.3,-14.39 172.98,-11.36 11.97,53.42 24.34,107.88 52.26,154.79 27.91,46.9 74.59,85.75 128.04,89.09 -15.42,2.67 -23.19,21.55 -21.42,37.47 1.79,15.92 10.03,30.28 14.8,45.57 11.71,37.59 0.31,81.44 -28.03,107.85 -56.54,52.7 -159.06,30.81 -207.53,91.34 -30.05,37.53 -26.47,91.97 -42.22,137.79 -30.45,88.61 -127.46,107.15 -199.97,147.16 -76.53,42.24 -148.6,65.39 -236.94,50.67 -109.51,-18.26 -190.91,-129.74 -148.67,-234.66 54.17,-134.56 270.73,-122.95 311.28,-259.57 4.35,-14.68 6.22,-29.77 6.51,-45.11" /><path
         id="path74"
         style="fill:#ececec;fill-opacity:1;fill-rule:nonzero;stroke:none"
         d="m 7480.31,4650 -164.9,-233.08 -77.52,6.35 -129.21,236.37 371.63,-9.64" /><path
         id="path76"
         style="fill:#d2c3a8;fill-opacity:1;fill-rule:nonzero;stroke:none"
         d="m 3783.87,4992.86 -102.64,187.44 100.91,193.3 105.18,-55.71 -12.67,-158.87 55.47,-54.08 -21.51,-136.25 -124.74,24.17" /><path
         id="path78"
         style="fill:#5a5751;fill-opacity:1;fill-rule:nonzero;stroke:none"
         d="M 5360.37,3221.19 5374.32,2015.03 5245.77,462.34 H 5071 l -209.13,1432.5 -239.16,1434.97 737.66,-108.62" /><path
         id="path80"
         style="fill:#3b3631;fill-opacity:1;fill-rule:nonzero;stroke:none"
         d="m 5072.01,388.629 189,-94.488 94.49,94.488 -94.49,94.5 h -189 v -94.5" /><path
         id="path82"
         style="fill:#5a5751;fill-opacity:1;fill-rule:nonzero;stroke:none"
         d="m 4162.1,3221.19 -3.43,-697.8 117.87,-2061.062 h 174.77 L 4743.68,1830.04 4899.76,3329.8 4162.1,3221.19" /><path
         id="path84"
         style="fill:#3b3631;fill-opacity:1;fill-rule:nonzero;stroke:none"
         d="m 4450.3,388.629 -188.99,-94.488 -94.5,94.488 94.5,94.5 h 188.99 v -94.5" /><path
         id="path86"
         style="fill:#40495f;fill-opacity:1;fill-rule:nonzero;stroke:none"
         d="m 3980.34,2801.03 c -3.74,-110.72 -1.34,-258.81 45.28,-264.34 8.73,-1.04 17.14,2.82 24.82,6.55 81.06,39.39 138.84,95.05 218.76,133.1 83.73,39.86 178.91,60.73 271.92,75.14 138.73,22.15 279.75,35.46 419.38,36.7 120,1.07 244.8,-53.67 358.24,-83.77 43.67,-11.6 79.19,-43.42 115.47,-68.37 53.58,-36.87 77.07,-51.47 69.77,23.85 -11.93,122.9 -24.31,245.77 -39.43,368.33 -30.15,244.45 -71.21,488.31 -140.66,724.95 -26.54,90.4 -57.15,179.54 -87.75,268.66 -37.26,108.51 -74.52,217.02 -111.79,325.53 -46.31,134.86 -124.47,229.87 -261.33,277.04 -118.28,40.77 -265.19,51.92 -380.24,-5.15 -127.88,-63.43 -188.7,-279.56 -250.83,-395.06 -54.44,-101.21 -123.07,-377.26 -143.44,-486.37 -24.53,-131.33 -47.19,-262.04 -65.03,-392.4 -19.76,-144.39 -33.68,-288.35 -37.71,-431.47 -0.45,-15.82 -3.64,-60.06 -5.43,-112.92" /><path
         id="path88"
         style="fill:#ffffff;fill-opacity:1;fill-rule:nonzero;stroke:none"
         d="m 4612.07,4600.18 236.19,-2.25 c 0,0 253.43,-885.68 262.75,-1038.33 9.14,-149.86 73.19,-757.48 73.19,-757.48 0,0 -261.56,-6.16 -562.94,-42.88 -294.62,-63.05 -319.39,-25.76 -319.39,-25.76 0,0 159.01,638.63 164.29,822.11 5.39,187.67 29.42,807.51 29.42,807.51 l 116.49,237.08" /><path
         id="path90"
         style="fill:#d2c3a8;fill-opacity:1;fill-rule:nonzero;stroke:none"
         d="m 4671.53,4602.49 c 2.78,-2.41 5.97,-4.31 9.67,-5.52 7.34,-2.42 15.29,-1.54 22.97,-0.63 31.24,3.7 62.49,7.4 93.73,11.09 -10.31,95.68 45.62,117.32 100.12,178.85 55.24,62.38 38.23,146.49 35.13,222.83 -0.88,21.26 -1.92,43.17 -10.91,62.45 -15.78,33.85 -52.5,52.54 -88.16,63.62 -91,28.28 -195.08,21.31 -275.2,-30.27 -21.33,-13.72 -41.24,-30.97 -52.79,-53.55 -17.81,-34.81 -13.28,-76.35 -8.32,-115.14 7.64,-59.61 25.28,-118.16 58.99,-168.41 31.4,-46.81 91.28,-69.23 98.16,-125.41 1.78,-14.51 6.17,-30.84 16.61,-39.91" /><path
         id="path92"
         style="fill:#3b3631;fill-opacity:1;fill-rule:nonzero;stroke:none"
         d="m 4500.41,5005.52 c 5.31,-24.05 16.51,-48.37 10.68,-72.28 -38.19,12.96 -63.15,52.02 -76.67,91.72 -6.13,18 -10.59,37.05 -9.04,56.1 1.54,19.04 9.81,38.17 24.84,48.94 20.98,15.01 58.61,9.11 64.62,-18.1 6.05,-27.44 -22.43,-70.21 -14.43,-106.38" /><path
         id="path94"
         style="fill:#6e694f;fill-opacity:1;fill-rule:nonzero;stroke:none"
         d="m 4297.66,5216.71 c 0.9,28.81 11.88,54.54 37.62,71.93 22.19,14.99 47.78,27.42 61.26,51.25 10.47,18.49 12,41.38 22.38,59.93 18.77,33.59 59.52,43.48 94.98,54.86 88.69,28.49 136.44,61.37 230.38,24.91 66.78,-25.93 153.08,-29.4 215.07,-67.22 25.88,-15.79 47.91,-41.16 65.98,-69.42 62.62,-97.91 77.66,-235.58 36.87,-337.7 -9.13,-22.86 -20.73,-43.87 -33.13,-64 -24.8,-40.24 -51.36,-89.76 -95.26,-109.46 -2.76,18.96 -16.89,29.43 -21.31,48.06 -3.17,13.41 -2.11,27.47 -1.42,41.27 2.7,53.7 19.17,138.59 -34.45,165.22 -67.81,33.67 -194.99,3.3 -260.3,-25.2 -57.78,-25.22 -155.3,-58.03 -216.91,-31.02 -57.19,25.09 -103.69,125.05 -101.76,186.59" /><path
         id="path96"
         style="fill:#40495f;fill-opacity:1;fill-rule:nonzero;stroke:none"
         d="m 4482.78,4619.25 -416.88,-350.17 -97.27,715.81 -220.94,42.81 -38.69,-972.83 236.42,-222.06 430.05,212.38 107.31,574.06" /><path
         id="path98"
         style="fill:#2d61a9;fill-opacity:1;fill-rule:nonzero;stroke:none"
         d="m 4679.13,2878.77 c 0,823.78 667.81,1491.58 1491.59,1491.58 823.78,0 1491.58,-667.8 1491.58,-1491.58 0,-823.79 -667.8,-1491.59 -1491.58,-1491.59 -823.78,0 -1491.59,667.8 -1491.59,1491.59" /><path
         id="path100"
         style="fill:#ffffff;fill-opacity:1;fill-rule:nonzero;stroke:none"
         d="m 6520.82,3873.86 c -44.67,39.49 -106.48,59.26 -185.47,59.26 -65.29,0 -124.54,-13.75 -177.75,-41.24 -53.24,-27.47 -94.9,-63.98 -124.92,-109.45 -30.07,-45.54 -45.1,-95.77 -45.1,-150.72 0,-61.82 22.3,-112.49 67,-151.98 44.63,-39.52 107.3,-59.25 188.04,-59.25 65.26,0 124.04,13.28 176.45,39.92 52.38,26.61 93.61,63.13 123.64,109.49 30.05,46.37 45.1,96.17 45.1,149.42 0,63.52 -22.33,115.04 -66.99,154.55" /><path
         id="path102"
         style="fill:#ffffff;fill-opacity:1;fill-rule:nonzero;stroke:none"
         d="m 6483.74,2104.41 c 0,0 -237.46,-94.68 -215.94,27.37 l 162.65,921.7 c 20.27,114.86 -68.09,220.18 -184.73,220.18 h -258.14 -25.74 -168.35 l -13.56,-57.43 c 0,0 170.15,-9.19 144.21,-156.2 -59.06,-334.66 -166.77,-945.02 -166.87,-945.6 -14.46,-81.94 14.77,-167.02 76.37,-222.93 92.15,-83.62 218.66,-78.13 330.3,-42.53 37.24,11.89 361.52,156.99 361.02,158.17 l -41.22,97.27" /><path
         id="path104"
         style="fill:#dddddd;fill-opacity:1;fill-rule:nonzero;stroke:none"
         d="m 6169.37,1387.18 c -0.13,0 -0.31,0 -0.44,0 0.16,0 0.29,0 0.44,0 m -1.35,0 c -0.19,0 -0.35,0 -0.53,0 0.15,0 0.38,0 0.53,0 m -1.43,0 c -0.16,0.01 -0.28,0.01 -0.44,0.01 0.16,0 0.28,0 0.44,-0.01 m -1.48,0.01 c -0.12,0 -0.22,0 -0.34,0 0.15,0 0.19,0 0.34,0 m -1.71,0.01 c -0.06,0 -0.14,0 -0.2,0 0.05,0 0.15,0 0.2,0 m -1.36,0 c -0.16,0 -0.23,0 -0.38,0.01 0.1,0 0.27,-0.01 0.38,-0.01 m -1.46,0.01 c -0.12,0 -0.18,0 -0.3,0 0.1,0 0.2,0 0.3,0 m -1.47,0.01 c -0.09,0 -0.13,0 -0.22,0 0.1,0 0.12,0 0.22,0 m -4.54,0.04 -0.06,0.01 c 0.05,-0.01 0.01,0 0.06,-0.01 m -1.49,0.02 h -0.01 0.01" /><path
         id="path106"
         style="fill:#858a97;fill-opacity:1;fill-rule:nonzero;stroke:none"
         d="m 7662.3,2880.13 c 0,0.15 0,0.28 0,0.43 0,-0.12 0,-0.31 0,-0.43 m 0,1.35 c 0,0.15 0,0.37 0,0.52 0,-0.18 0,-0.34 0,-0.52 m 0,1.43 c 0,0.15 0,0.28 0,0.43 0,-0.15 0,-0.28 0,-0.43 m -0.01,1.47 c 0,0.15 0,0.2 0,0.35 0,-0.12 0,-0.23 0,-0.35 m 0,1.72 c 0,0.05 0,0.14 0,0.19 0,-0.06 0,-0.13 0,-0.19 m -0.01,1.36 c 0,0.1 0,0.27 0,0.37 0,-0.15 0,-0.22 0,-0.37 m -0.01,1.45 c 0,0.1 0,0.2 0,0.3 0,-0.12 0,-0.18 0,-0.3 m -0.01,1.47 c 0,0.1 0,0.12 0,0.22 0,-0.09 0,-0.13 0,-0.22 m -0.04,4.54 c 0,0.05 0,0.02 0,0.07 v -0.07 m -0.02,1.49 v 0.02 -0.02" /><path
         id="path108"
         style="fill:#2c5b9c;fill-opacity:1;fill-rule:nonzero;stroke:none"
         d="m 6170.72,1387.18 v 0 c -0.46,0 -0.89,0 -1.35,0 -0.15,0 -0.28,0 -0.44,0 -0.3,0 -0.61,0 -0.91,0 -0.15,0 -0.38,0 -0.53,0 -0.31,0 -0.6,0 -0.9,0 -0.16,0.01 -0.28,0.01 -0.44,0.01 -0.33,0 -0.7,0 -1.04,0 -0.15,0 -0.19,0 -0.34,0 -0.46,0 -0.91,0 -1.37,0.01 -0.05,0 -0.15,0 -0.2,0 -0.36,0 -0.8,0 -1.16,0 -0.11,0 -0.28,0.01 -0.38,0.01 -0.34,0 -0.74,0 -1.08,0 -0.1,0 -0.2,0 -0.3,0 -0.37,0.01 -0.8,0.01 -1.17,0.01 -0.1,0 -0.12,0 -0.22,0 -1.44,0.02 -2.88,0.03 -4.32,0.04 -0.05,0.01 -0.01,0 -0.06,0.01 -0.49,0 -0.94,0.01 -1.43,0.01 h -0.01 c -495.46,5.75 -932.52,253.32 -1199.57,629.93 243.38,-172.59 540.49,-274.37 861.56,-274.37 823.78,0 1491.59,667.81 1491.59,1491.58 0,321.08 -101.79,618.19 -274.38,861.57 376.61,-267.06 624.18,-704.11 629.93,-1199.56 v -0.02 c 0.01,-0.49 0.01,-0.93 0.02,-1.42 0,-0.05 0,-0.02 0,-0.07 0.01,-1.44 0.03,-2.88 0.04,-4.32 0,-0.1 0,-0.12 0,-0.22 0,-0.37 0.01,-0.8 0.01,-1.17 0,-0.1 0,-0.2 0,-0.3 0,-0.34 0,-0.74 0.01,-1.08 0,-0.1 0,-0.27 0,-0.37 0,-0.37 0,-0.8 0.01,-1.17 0,-0.05 0,-0.14 0,-0.19 0,-0.46 0,-0.91 0,-1.37 0,-0.15 0,-0.2 0,-0.35 0,-0.34 0.01,-0.7 0.01,-1.04 0,-0.15 0,-0.28 0,-0.43 0,-0.31 0,-0.6 0,-0.91 0,-0.15 0,-0.37 0,-0.52 0,-0.31 0,-0.61 0,-0.92 0,-0.15 0,-0.28 0,-0.43 0,-0.46 0,-0.9 0,-1.36 v 0 c 0,-808.49 -643.25,-1466.76 -1445.89,-1490.91 -15.17,-0.45 -30.4,-0.68 -45.69,-0.68" /><path
         id="path110"
         style="fill:#5781ba;fill-opacity:1;fill-rule:nonzero;stroke:none"
         d="m 4892.26,2992.23 c -0.07,5.62 -0.15,11.25 -0.15,16.89 0,253.17 77.59,488.26 210.32,682.91 v 0.3 c 0,9.16 5.76,16.88 13.62,19.28 220.71,310.45 583.8,513.04 994.31,513.04 145.58,0 285.19,-25.5 414.6,-72.23 -6.68,0.08 -13.37,0.12 -20.07,0.12 -750.99,0 -1388.15,-486.19 -1612.63,-1160.31" /><path
         id="path112"
         style="fill:#6baa9e;fill-opacity:1;fill-rule:nonzero;stroke:none"
         d="m 1035.62,5479.72 c -32.29,-261.38 -3.9,-676.09 277.22,-1235.74 281.12,-559.66 596.87,-830.03 825.83,-960.18 163.64,-93.03 370.21,-95.02 546.61,-6.41 l 98.53,49.5 c 80.02,40.19 114.43,133.41 76.85,208.22 l -235.4,468.64 c -37.57,74.8 -132.9,102.85 -212.92,62.66 l -137.67,-69.15 c -45.36,-22.79 -98.66,-22.58 -140.67,1.46 -214.07,122.5 -382.11,465.79 -382.11,465.79 0,0 -175.07,339.76 -145.53,584.64 5.8,48.05 37.45,90.93 82.82,113.71 l 137.66,69.16 c 80.02,40.19 114.43,133.42 76.85,208.21 l -235.4,468.65 c -37.58,74.8 -132.9,102.85 -212.92,62.66 l -98.53,-49.49 c -176.41,-88.62 -298.14,-255.51 -321.22,-442.33" /><path
         id="path114"
         style="fill:#c8c7b9;fill-opacity:1;fill-rule:nonzero;stroke:none"
         d="m 2784.39,3327.18 c 0.01,0 0.03,0.01 0.04,0.02 -0.01,-0.01 -0.03,-0.02 -0.04,-0.02" /><path
         id="path116"
         style="fill:#649c92;fill-opacity:1;fill-rule:nonzero;stroke:none"
         d="m 2413.72,3212.44 c -96.39,0.01 -191.34,23.77 -275.05,71.36 -82.87,47.1 -177.11,112.58 -276.96,203.49 -72.29,65.82 -147.53,144.98 -223.51,240.14 -109.05,136.57 -219.65,306.09 -325.36,516.55 v 0 c -38.68,77.01 -72.16,151 -101.77,222.5 13.01,-21.54 668.67,-1100.02 1481.72,-1100.02 50.05,0 100.82,4.1 151.95,12.78 -15.25,-20.98 -35.21,-39.3 -60.31,-52.04 -0.01,-0.01 -0.03,-0.02 -0.04,-0.02 -0.19,-0.1 -0.38,-0.2 -0.58,-0.29 v 0 l -98.53,-49.5 c -86.17,-43.28 -179.52,-64.95 -271.56,-64.95" /><path
         id="path118"
         style="fill:#e1cfb5;fill-opacity:1;fill-rule:nonzero;stroke:none"
         d="m 2080.87,3045.01 c 26.72,-34.07 129.56,-85.04 174.53,-72.49 103.81,28.97 -19.28,100.24 -56.3,134.44 15.89,9.33 31.53,17.85 45.04,29.83 12.38,10.98 -128.18,77.85 -149.36,75.6 -50.86,-5.39 -57.78,-37.16 -86.87,-74.95 24.96,-30.14 48.76,-61.53 72.96,-92.43" /><path
         id="path120"
         style="fill:#777f87;fill-opacity:1;fill-rule:nonzero;stroke:none"
         d="m 4821.91,4749.03 c 96.58,0 174.87,78.29 174.87,174.87 h 34.76 c 0,-115.78 -93.85,-209.63 -209.63,-209.63 v 34.76" /><path
         id="path122"
         style="fill:#434d55;fill-opacity:1;fill-rule:nonzero;stroke:none"
         d="m 4728.78,4763.05 h 67.8 c 17.35,0 31.41,-14.07 31.41,-31.41 v -7.3 c 0,-17.35 -14.06,-31.42 -31.41,-31.42 h -67.8 c -17.35,0 -31.41,14.07 -31.41,31.42 v 7.3 c 0,17.34 14.06,31.41 31.41,31.41" /><path
         id="path124"
         style="fill:#919ca6;fill-opacity:1;fill-rule:nonzero;stroke:none"
         d="m 4994.64,5052.31 v 143.82 c 0,155.42 -126,281.41 -281.42,281.41 -155.42,0 -281.41,-125.99 -281.41,-281.41 v -143.82 h -61.82 v 144.9 c 0,189.56 153.67,343.23 343.23,343.23 189.57,0 343.24,-153.67 343.24,-343.23 v -144.9 h -61.82" /><path
         id="path126"
         style="fill:#777f87;fill-opacity:1;fill-rule:nonzero;stroke:none"
         d="m 4287.85,5077.71 c -10.63,-16.01 -10.63,-26.91 -10.63,-40.46 v -26.28 -26.28 c 0,-13.56 0,-24.46 10.63,-40.47 l 17.35,-20.32 v 87.07 87.06 l -17.35,-20.32" /><path
         id="path128"
         style="fill:#434d55;fill-opacity:1;fill-rule:nonzero;stroke:none"
         d="m 4400.74,4881.85 h -37.44 c -32.09,0 -58.1,26.01 -58.1,58.1 v 142.03 c 0,32.09 26.01,58.11 58.1,58.11 h 37.44 c 32.09,0 58.1,-26.02 58.1,-58.11 v -142.03 c 0,-32.09 -26.01,-58.1 -58.1,-58.1" /><path
         id="path130"
         style="fill:#777f87;fill-opacity:1;fill-rule:nonzero;stroke:none"
         d="m 5143.52,5077.71 c 10.63,-16.01 10.63,-26.91 10.63,-40.46 v -26.28 -26.28 c 0,-13.56 0,-24.46 -10.63,-40.47 l -17.34,-20.32 v 87.07 87.06 l 17.34,-20.32" /><path
         id="path132"
         style="fill:#434d55;fill-opacity:1;fill-rule:nonzero;stroke:none"
         d="m 5030.68,4881.85 h 37.44 c 32.09,0 58.11,26.01 58.11,58.1 v 142.03 c 0,32.09 -26.02,58.11 -58.11,58.11 h -37.44 c -32.09,0 -58.1,-26.02 -58.1,-58.11 v -142.03 c 0,-32.09 26.01,-58.1 58.1,-58.1" /><path
         id="path134"
         style="fill:#777f87;fill-opacity:1;fill-rule:nonzero;stroke:none"
         d="m 7439.28,4684.62 c 91.82,0 166.28,74.45 166.28,166.28 h 33.04 c 0,-110.08 -89.23,-199.33 -199.32,-199.33 v 33.05" /><path
         id="path136"
         style="fill:#434d55;fill-opacity:1;fill-rule:nonzero;stroke:none"
         d="m 7350.72,4697.95 h 64.47 c 16.49,0 29.87,-13.37 29.87,-29.87 v -6.93 c 0,-16.5 -13.38,-29.88 -29.87,-29.88 h -64.47 c -16.49,0 -29.87,13.38 -29.87,29.88 v 6.93 c 0,16.5 13.38,29.87 29.87,29.87" /><path
         id="path138"
         style="fill:#919ca6;fill-opacity:1;fill-rule:nonzero;stroke:none"
         d="m 7603.53,4973.01 v 136.75 c 0,147.78 -119.81,267.59 -267.6,267.59 -147.79,0 -267.59,-119.81 -267.59,-267.59 v -136.75 h -58.79 v 137.78 c 0,180.25 146.12,326.37 326.38,326.37 180.25,0 326.37,-146.12 326.37,-326.37 v -137.78 h -58.77" /><path
         id="path140"
         style="fill:#777f87;fill-opacity:1;fill-rule:nonzero;stroke:none"
         d="m 6931.46,4997.16 c -10.11,-15.22 -10.11,-25.59 -10.11,-38.48 v -24.99 -24.98 c 0,-12.89 0,-23.26 10.11,-38.49 l 16.48,-19.32 v 82.79 82.79 l -16.48,-19.32" /><path
         id="path142"
         style="fill:#434d55;fill-opacity:1;fill-rule:nonzero;stroke:none"
         d="m 7038.79,4810.92 h -35.6 c -30.51,0 -55.25,24.73 -55.25,55.25 v 135.05 c 0,30.51 24.74,55.25 55.25,55.25 h 35.6 c 30.52,0 55.25,-24.74 55.25,-55.25 v -135.05 c 0,-30.52 -24.73,-55.25 -55.25,-55.25" /><path
         id="path144"
         style="fill:#777f87;fill-opacity:1;fill-rule:nonzero;stroke:none"
         d="m 7745.09,4997.16 c 10.11,-15.22 10.11,-25.59 10.11,-38.48 v -24.99 -24.98 c 0,-12.89 0,-23.26 -10.11,-38.49 l -16.5,-19.32 v 82.79 82.79 l 16.5,-19.32" /><path
         id="path146"
         style="fill:#434d55;fill-opacity:1;fill-rule:nonzero;stroke:none"
         d="m 7637.79,4810.92 h 35.6 c 30.52,0 55.25,24.73 55.25,55.25 v 135.05 c 0,30.51 -24.73,55.25 -55.25,55.25 h -35.6 c -30.51,0 -55.25,-24.74 -55.25,-55.25 v -135.05 c 0,-30.52 24.74,-55.25 55.25,-55.25" /><path
         id="path148"
         style="fill:#d2c3a8;fill-opacity:1;fill-rule:nonzero;stroke:none"
         d="m 5471.15,5615.19 -49.36,199.5 -169.78,71.68 -32.18,-114.77 91.09,-114.71 12.64,-101.65 147.59,59.95" /><path
         id="path150"
         style="fill:#40495f;fill-opacity:1;fill-rule:nonzero;stroke:none"
         d="m 4899.76,4605.23 531.11,213.6 -166.46,837.1 191.56,22.79 321,-873.58 -66.13,-264.68 -600.96,-404.89 -210.12,469.66" /><path
         id="path152"
         style="fill:#f4c700;fill-opacity:1;fill-rule:nonzero;stroke:none"
         d="M 6694.42,7683.47 3815.58,7671.05 C 3666.47,7670.41 3545,7547.89 3545.64,7398.77 l 6.16,-1428.83 c 0.65,-149.11 123.17,-270.59 272.28,-269.94 l 1994.59,8.6 474.02,-639.66 82.82,642.06 327.41,1.41 c 149.11,0.65 270.59,123.17 269.94,272.29 l -6.16,1428.83 c -0.64,149.11 -123.16,270.59 -272.28,269.94" /><path
         id="path154"
         style="fill:#e1cfb5;fill-opacity:1;fill-rule:nonzero;stroke:none"
         d="m 7666.81,3315 50.57,-74.08 -102.56,-133.58 -114.05,9.32 -56.09,88.01 71.64,51.43 -10,20.84 14.36,31.14 146.13,6.92" /><path
         id="path156"
         style="fill:#abb8c3;fill-opacity:1;fill-rule:nonzero;stroke:none"
         d="m 7655.19,4620.11 588.69,-677.23 28.77,-296.64 -580.68,-458.41 -104.18,150.75 375.54,400.97 -363.8,356.16 55.66,524.4" /><path
         id="path158"
         style="fill:#3c3c3c;fill-opacity:1;fill-rule:nonzero;stroke:none"
         d="m 9382.27,231.391 150.11,138.66 c 43.56,22.031 89.63,37.429 126.97,36.949 27.11,-0.34 49.61,-9.039 63.17,-29.621 13.04,-19.75 15.68,-45.77 6.81,-66.848 -3.26,-7.711 -7.87,-14.609 -13.05,-21.121 h 0.01 l -0.07,-0.07 c -4.47,-5.598 -9.36,-10.91 -14.23,-16.141 -3.1,-3.34 -6.52,-6.91 -10.15,-10.64 -31.07,-33.668 -83.13,-88.508 -103.78,-100.899 -30.32,-18.18 -97,-66.6795 -175.8,-12.129 l 0.91,0.77 c -28.65,19.398 -37.08,51.281 -30.9,81.09" /><path
         id="path160"
         style="fill:#d2c3a8;fill-opacity:1;fill-rule:nonzero;stroke:none"
         d="m 9500.1,1438.95 12.12,-174.01 59.47,-847.131 -59.47,-98.539 c 0,0 -12.12,-78.801 78.81,-72.75 27.05,1.812 122.85,123.621 122.85,123.621 l -13.85,55.808 67.41,636.061 -0.61,184.75 32.24,205.12 -298.97,-12.93" /><path
         id="path162"
         style="fill:#3c3c3c;fill-opacity:1;fill-rule:nonzero;stroke:none"
         d="m 10451.7,446.488 c 28,8.801 54,7.461 74.9,-9.097 20,-15.891 31.5,-41.7 29.5,-66.34 -1.4,-16.789 -8.5,-32.352 -15.5,-47.52 -36.3,-78.582 -137.9,-256.2302 -254.6,-223.6716 -49,13.6916 -67.6,63.7306 -57.6,107.9416 15,66.597 129.9,209.308 223.3,238.687" /><path
         id="path164"
         style="fill:#d2c3a8;fill-opacity:1;fill-rule:nonzero;stroke:none"
         d="m 9863.72,1540.56 20.32,-250.55 491.86,-885.549 c 0,0 -70.7,-123.5 -25.9,-134.242 44.9,-10.719 176.3,26.679 176.6,166.16 -51.7,168.891 -254.9,742.421 -254.9,742.421 l -95.2,148 1.4,278.12 -314.18,-64.36" /><path
         id="path166"
         style="fill:#454446;fill-opacity:1;fill-rule:nonzero;stroke:none"
         d="m 10419.4,2379.26 c 3.9,73.86 -19.7,266.56 -44,335.62 -88.5,251.79 -105.5,375.88 -105.5,580.83 0,204.94 -39.5,845.33 -39.5,845.33 l -185.5,199.03 -378.68,-10.63 -210.28,-69.35 c 0,0 -44.51,-817.54 -57.16,-1081.04 -9.01,-188.03 -22.07,-350.9 -39.26,-568.78 0,0 -48.2,-496.95 26.26,-1029.67 0,0 16.62,-176.9 24.08,-192.4 0.99,-5.26 1.54,-8.08 1.54,-8.08 l 3.02,-0.01 842.08,0.01 v 303.59 c 28,97.44 54.6,195.32 80.2,293.45 32.4,124.72 75.5,265.02 82.7,402.1" /><path
         id="path168"
         style="fill:#6d6e6f;fill-opacity:1;fill-rule:nonzero;stroke:none"
         d="m 10241.3,4282.8 71.9,-85.82 c 0,0 -37.5,-770.67 -43.3,-901.27 -5.9,-130.6 162.4,-652.48 162.4,-652.48 l -697.1,-90.94 c 0,0 -102.54,557.36 -132.05,834.23 -29.5,276.88 392.28,951.85 392.28,951.85 l 245.87,-55.57" /><path
         id="path170"
         style="fill:#6d6e6f;fill-opacity:1;fill-rule:nonzero;stroke:none"
         d="m 9542.42,4295.94 -142.27,-67.51 c 0,0 20.01,-831.96 -16.48,-1043.26 -22.23,-128.81 -108.82,-545.92 -108.82,-545.92 l 225.13,-77.04 c 0,0 138.6,521.75 166.14,798.62 27.54,276.88 -2.46,965.42 -2.46,965.42 l -121.24,-30.31" /><path
         id="path172"
         style="fill:#454446;fill-opacity:1;fill-rule:nonzero;stroke:none"
         d="m 9570.02,4600.71 c -18.47,-71.48 23.94,-142.1 61.04,-202.38 15.16,-24.63 38.66,-58.91 19.1,-87.02 -21.9,-31.48 -76.29,-25.17 -100.22,-1.63 -16.89,16.61 -25.2,39.14 -32.41,61.12 -32.3,98.44 -77.39,236.34 -68.57,339.82 7.07,82.98 108.83,230.34 213.66,177.62 19.03,-9.57 31.23,-27.55 41.67,-45.23 6.23,-10.56 12.24,-21.62 13.48,-33.66 4.95,-48.05 -41.38,-60.41 -71.82,-86.24 -37.55,-31.85 -64.13,-76.76 -75.93,-122.4" /><path
         id="path174"
         style="fill:#d2c3a8;fill-opacity:1;fill-rule:nonzero;stroke:none"
         d="m 9744.94,4343.93 c -70.01,8.9 -128.53,57.83 -159.85,116.75 -31.31,58.91 -38.79,126.71 -37.56,192.82 4.08,219.98 295.79,232.2 409.21,74.11 98.86,-137.78 -8.23,-409.54 -211.8,-383.68" /><path
         id="path176"
         style="fill:#454446;fill-opacity:1;fill-rule:nonzero;stroke:none"
         d="m 9944.07,4623.76 c 2.41,-26.64 15.96,-54.89 19.7,-82.26 6.88,-50.38 -4.4,-115.75 14.04,-161.78 51.19,7.01 113.39,39 151.29,74.1 38.7,35.85 31.7,89.16 40.4,141.97 8,48.84 18.2,97.94 15.4,147.35 -15.3,270.56 -285.29,418.52 -523.16,296.46 -89.99,-46.17 -129.35,-163.52 -63.16,-240.63 71.2,-82.93 215.86,-46.97 301.13,-108.51 18.91,-13.65 33.46,-38.17 44.36,-66.7" /><path
         id="path178"
         style="fill:#d2c3a8;fill-opacity:1;fill-rule:nonzero;stroke:none"
         d="m 9739.08,4366.63 c 3.55,-16.38 7.1,-32.76 10.65,-49.13 1.63,-7.51 1.01,-29.01 7.48,-34.16 3.37,-2.68 8.38,-2.28 12.8,-1.74 12.64,1.55 125.85,15.97 124.62,23.17 -3.3,19.3 -7,38.21 -13.03,56.65 -4.86,14.89 -6.72,42.92 -15.7,54.22 -19.23,-13.15 -39.11,-21.28 -61.76,-27.71 -21.85,-6.19 -43.83,-12.02 -65.89,-17.5 0.28,-1.26 0.56,-2.53 0.83,-3.8" /><path
         id="path180"
         style="fill:#d2c3a8;fill-opacity:1;fill-rule:nonzero;stroke:none"
         d="m 9286.18,5329.91 69.3,204.59 184.14,60.08 23.56,-123.03 -105.52,-112.1 -22.21,-105.34 -149.27,75.8" /><path
         id="path182"
         style="fill:#6d6e6f;fill-opacity:1;fill-rule:nonzero;stroke:none"
         d="m 9660.86,4110.43 -390.44,359.89 235.87,884.02 -198.6,40.77 -413.29,-886.57 45.89,-283.04 593.66,-477.08 126.91,362.01" /><path
         id="path184"
         style="fill:#777f87;fill-opacity:1;fill-rule:nonzero;stroke:none"
         d="m 9700.95,4354.25 c -93.87,0 -169.96,76.1 -169.96,169.96 h -33.79 c 0,-112.52 91.22,-203.74 203.75,-203.74 v 33.78" /><path
         id="path186"
         style="fill:#434d55;fill-opacity:1;fill-rule:nonzero;stroke:none"
         d="m 9791.46,4367.88 h -65.89 c -16.87,0 -30.54,-13.67 -30.54,-30.54 v -7.09 c 0,-16.86 13.67,-30.53 30.54,-30.53 h 65.89 c 16.86,0 30.53,13.67 30.53,30.53 v 7.09 c 0,16.87 -13.67,30.54 -30.53,30.54" /><path
         id="path188"
         style="fill:#919ca6;fill-opacity:1;fill-rule:nonzero;stroke:none"
         d="m 9533.06,4649.03 v 139.78 c 0,151.06 122.46,273.52 273.52,273.52 151.06,0 273.52,-122.46 273.52,-273.52 v -139.78 h 60.1 v 140.82 c 0,184.25 -149.38,333.61 -333.62,333.61 -184.25,0 -333.61,-149.36 -333.61,-333.61 v -140.82 h 60.09" /><path
         id="path190"
         style="fill:#777f87;fill-opacity:1;fill-rule:nonzero;stroke:none"
         d="m 10220,4673.72 c 10.4,-15.57 10.4,-26.17 10.4,-39.34 v -25.54 -25.54 c 0,-13.17 0,-23.77 -10.4,-39.34 l -16.8,-19.75 v 84.63 84.63 l 16.8,-19.75" /><path
         id="path192"
         style="fill:#434d55;fill-opacity:1;fill-rule:nonzero;stroke:none"
         d="m 10110.3,4483.34 h 36.4 c 31.2,0 56.5,25.29 56.5,56.48 v 138.05 c 0,31.18 -25.3,56.47 -56.5,56.47 h -36.4 c -31.2,0 -56.5,-25.29 -56.5,-56.47 v -138.05 c 0,-31.19 25.3,-56.48 56.5,-56.48" /><path
         id="path194"
         style="fill:#777f87;fill-opacity:1;fill-rule:nonzero;stroke:none"
         d="m 9388.35,4673.72 c -10.32,-15.57 -10.32,-26.17 -10.32,-39.34 v -25.54 -25.54 c 0,-13.17 0,-23.77 10.32,-39.34 l 16.86,-19.75 v 84.63 84.63 l -16.86,-19.75" /><path
         id="path196"
         style="fill:#434d55;fill-opacity:1;fill-rule:nonzero;stroke:none"
         d="m 9498.03,4483.34 h -36.39 c -31.19,0 -56.47,25.29 -56.47,56.48 v 138.05 c 0,31.18 25.28,56.47 56.47,56.47 h 36.39 c 31.19,0 56.47,-25.29 56.47,-56.47 v -138.05 c 0,-31.19 -25.28,-56.48 -56.47,-56.48" /><path
         id="path198"
         style="fill:#b93737;fill-opacity:1;fill-rule:nonzero;stroke:none"
         d="m 8737.29,4908.02 c -85.78,20.66 -166.82,8.17 -240.87,-37.11 -74.05,-45.29 -122.08,-111.75 -142.74,-197.53 -20.69,-85.87 -8.19,-166.91 37.11,-240.87 45.29,-74.04 111.75,-122.06 197.53,-142.73 34.01,-8.19 67.28,-11.17 99.69,-8.95 49.24,3.38 96.46,18.75 141.18,46.06 74.04,45.3 122.07,111.75 142.73,197.53 20.65,85.69 8.17,166.72 -37.13,240.89 -45.37,74.05 -111.82,122.06 -197.5,142.71" /><g
         id="g200"><g
           clip-path="url(#clipPath206)"
           id="g202"><path
             id="path208"
             style="fill:#d9d9d9;fill-opacity:1;fill-rule:nonzero;stroke:none"
             d="m 8587.55,4280.12 h 324.559 v 119.199 H 8587.55 Z" /></g></g><path
         id="path210"
         style="fill:#a63131;fill-opacity:1;fill-rule:nonzero;stroke:none"
         d="m 8667.13,4280.12 c -25.77,0 -52.06,3.22 -78.81,9.66 -0.26,0.06 -0.51,0.12 -0.77,0.18 -22.95,5.59 -44.47,13.21 -64.62,22.69 6.12,0.05 12.22,0.23 18.27,0.64 49.24,3.38 96.47,18.76 141.18,46.06 74.05,45.3 122.07,111.75 142.74,197.53 20.64,85.69 8.16,166.72 -37.13,240.89 -33.08,53.98 -77.41,94.06 -132.19,119.85 0.91,0.01 1.81,0.01 2.72,0.01 25.75,0 52.02,-3.17 78.77,-9.61 85.68,-20.65 152.13,-68.66 197.5,-142.71 31.14,-50.99 46.77,-105.23 46.79,-161.99 0.01,-25.8 -3.2,-52.12 -9.66,-78.9 -11.51,-47.81 -31.53,-89.61 -59.81,-125.1 -22.47,-28.18 -50.15,-52.38 -82.92,-72.43 -44.72,-27.31 -91.94,-42.68 -141.18,-46.06 -6.92,-0.47 -13.88,-0.71 -20.88,-0.71" /><path
         id="path212"
         style="fill:#b93737;fill-opacity:1;fill-rule:nonzero;stroke:none"
         d="m 10360.4,7098.02 c -146.7,219.85 -378.21,369.19 -688.12,443.87 -309.84,74.64 -585.41,47.56 -819.09,-80.47 -203.12,-111.32 -345.6,-286.3 -423.46,-520.1 -13.13,-39.4 -9.1,-82.83 11.05,-119.16 20.15,-36.32 54.85,-62.73 95.21,-72.45 l 184.53,-44.46 c 73.64,-17.72 148.74,22.68 174.64,94.05 45.92,126.56 117.27,215.18 218.13,270.92 122.09,67.47 274.12,79.96 451.87,37.14 177.18,-42.7 305.29,-124.83 380.72,-244.12 75.12,-118.91 91.92,-267.3 50.08,-441.03 -57.7,-239.47 -165.16,-384.27 -319.4,-430.37 -162.41,-48.53 -396.14,-35.04 -695.12,40.15 l -79.85,19.25 c -79.73,19.2 -160.18,-30.03 -179.38,-109.73 l -167.56,-695.46 c -9.31,-38.61 -3.02,-78.53 17.71,-112.41 20.73,-33.89 53.4,-57.67 92.02,-66.97 l 187.17,-45.1 c 15.09,-3.64 30.19,-4.82 44.91,-3.81 63.05,4.33 118.9,48.91 134.48,113.53 l 108.51,450.39 c 1.34,5.58 6.98,9.14 12.53,7.97 351.04,-74.7 637.65,-61.82 851.92,38.32 227.8,106.5 383,325.09 461.2,649.71 77.9,323.34 42.7,599.34 -104.7,820.34" /><path
         id="path214"
         style="fill:#d9d9d9;fill-opacity:1;fill-rule:nonzero;stroke:none"
         d="m 9999.78,5626.08 c 1.32,0.63 2.72,1.25 4.12,1.89 227.8,106.5 383,325.09 461.2,649.71 26.9,111.78 40.3,217.9 40.3,318.05 0,-100.15 -13.4,-206.27 -40.3,-318.05 -78.2,-324.62 -233.4,-543.21 -461.2,-649.71 -1.4,-0.64 -2.8,-1.27 -4.12,-1.89" /><path
         id="path216"
         style="fill:#a63131;fill-opacity:1;fill-rule:nonzero;stroke:none"
         d="m 9565.64,5541.87 c -13.8,0 -27.78,0.19 -41.88,0.58 79.22,14.28 151.87,36.77 217.68,67.53 227.83,106.49 383.06,325.09 461.26,649.71 77.9,323.34 42.7,599.34 -104.7,820.33 -146.69,219.86 -378.22,369.2 -688.15,443.87 -93.84,22.61 -184.52,35.83 -271.87,39.79 66.64,12.86 135.72,19.3 207.18,19.3 104.16,0 213.34,-13.69 327.12,-41.09 309.91,-74.68 541.42,-224.02 688.12,-443.87 96.4,-144.6 144.8,-312.75 145,-502.29 0,-100.15 -13.4,-206.27 -40.3,-318.05 -78.2,-324.62 -233.4,-543.21 -461.2,-649.71 -1.4,-0.64 -2.8,-1.26 -4.12,-1.89 -121.96,-56.14 -267.15,-84.21 -434.14,-84.21" /><path
         id="path218"
         style="fill:#4a6984;fill-opacity:1;fill-rule:nonzero;stroke:none"
         d="m 9895.46,1759.87 -1232.56,40 c -9.65,0.32 -17.21,8.38 -16.89,18.03 l 68,2095.63 c 0.32,9.63 8.39,17.2 18.03,16.89 l 1232.57,-40 c 9.64,-0.31 17.2,-8.39 16.88,-18.03 l -68,-2095.62 c -0.32,-9.65 -8.38,-17.21 -18.03,-16.9" /><path
         id="path220"
         style="fill:#e5e6e7;fill-opacity:1;fill-rule:nonzero;stroke:none"
         d="M 9828.44,2055.8 8748.97,2090.84 8805,3817.06 9884.45,3782.03 9828.44,2055.8" /><path
         id="path222"
         style="fill:#ffffff;fill-opacity:1;fill-rule:nonzero;stroke:none"
         d="m 9412.79,1861.69 -261.64,8.5 c -6.09,0.19 -10.87,5.29 -10.67,11.38 l 2.22,68.2 c 0.19,6.09 5.29,10.86 11.38,10.67 l 261.64,-8.49 c 6.1,-0.19 10.87,-5.3 10.68,-11.39 l -2.22,-68.2 c -0.2,-6.09 -5.29,-10.87 -11.39,-10.67" /><path
         id="path224"
         style="fill:#d2c3a8;fill-opacity:1;fill-rule:nonzero;stroke:none"
         d="m 10163.1,2947.72 -87.8,-197.32 -188.94,-42.84 -12.12,124.69 115.4,101.88 31.86,102.84 141.6,-89.25" /><path
         id="path226"
         style="fill:#6d6e6f;fill-opacity:1;fill-rule:nonzero;stroke:none"
         d="m 10076.5,4154.73 262.9,-571.32 -317.9,-546.44 130.3,-120.83 447.3,561.31 67.4,192.86 -353.3,526.67 -236.7,-42.25" /><path
         id="path228"
         style="fill:#e1cfb5;fill-opacity:1;fill-rule:nonzero;stroke:none"
         d="m 3165.08,4652.99 -18.6,81.27 20,19.45 40,-35.07 51.67,104.15 85,50.73 44.14,-47.92 -72.82,-111.39 -47.59,-70.26 -40.41,-147.63 -69.99,21.47 8.6,135.2" /><path
         id="path230"
         style="fill:#dad9ca;fill-opacity:1;fill-rule:nonzero;stroke:none"
         d="m 3059.24,4218.18 c 27.39,133.49 48.34,268.31 62.75,403.82 56.53,4.56 114.09,-4.32 166.61,-25.72 14.11,-239.28 3.07,-480.03 -32.89,-717.01 -1.54,-10.19 -3.7,-21.38 -11.84,-27.71 -6.8,-5.3 -16.09,-5.79 -24.71,-5.78 -83.76,0.01 -165.46,24.56 -244.66,51.8 -120.82,41.55 -239.29,89.9 -354.68,144.75 12.81,72.98 15.58,147.71 8.2,221.43 -10.22,101.94 13.24,241.3 138.67,162.78 33.97,-21.26 298.33,-180.17 292.55,-208.36" /></g></g></svg>