<?xml version="1.0" encoding="UTF-8" standalone="no"?>
<svg
   xmlns:dc="http://purl.org/dc/elements/1.1/"
   xmlns:cc="http://creativecommons.org/ns#"
   xmlns:rdf="http://www.w3.org/1999/02/22-rdf-syntax-ns#"
   xmlns:svg="http://www.w3.org/2000/svg"
   xmlns="http://www.w3.org/2000/svg"
   viewBox="0 0 1866.6533 1306.6667"
   height="1306.6667"
   width="1866.6533"
   xml:space="preserve"
   id="svg2"
   version="1.1"><metadata
     id="metadata8"><rdf:RDF><cc:Work
         rdf:about=""><dc:format>image/svg+xml</dc:format><dc:type
           rdf:resource="http://purl.org/dc/dcmitype/StillImage" /></cc:Work></rdf:RDF></metadata><defs
     id="defs6" /><g
     transform="matrix(1.3333333,0,0,-1.3333333,0,1306.6667)"
     id="g10"><g
       transform="scale(0.1)"
       id="g12"><path
         id="path14"
         style="fill:transparent;fill-opacity:1;fill-rule:nonzero;stroke:none"
         d="M 13999.9,0 H 0 V 9800 H 13999.9 V 0" /><path
         id="path16"
         style="fill:#ffffff;fill-opacity:1;fill-rule:nonzero;stroke:none"
         d="m 12226.3,4097.57 c -210.7,132.99 -273.5,411.52 -140.5,622.23 132.9,210.59 411.5,273.58 622.1,140.49 210.6,-132.89 273.6,-411.49 140.6,-622.07 -132.9,-210.71 -411.5,-273.64 -622.2,-140.65 z m 722.4,1144.23 c -421.3,265.92 -978.5,139.95 -1244.3,-281.27 -182.4,-288.91 -180.6,-641.88 -25.4,-920.81 l -105.1,-975.61 835.6,514.44 c 318.5,-20.1 638,129.95 820.4,418.91 266,421.23 140,978.29 -281.2,1244.34" /><path
         id="path18"
         style="fill:#ffffff;fill-opacity:1;fill-rule:nonzero;stroke:none"
         d="m 2581.96,4491.8 -158.02,0.34 1.73,635.02 158.09,-0.44 z m -524.92,1.46 -158.05,0.33 1.66,635.06 158.26,-0.51 z m -524.71,1.42 -158.12,0.51 1.8,634.95 158.12,-0.4 z m 452.05,1201.24 c -626.04,1.8 -1134.751,-392.94 -1136.173,-881.75 -0.402,-165.77 57.648,-321.22 158.903,-454.08 l -161.208,-373.07 479.278,103.33 c 184.6,-102.92 410.47,-163.69 654.24,-164.43 626.27,-1.69 1134.92,393.02 1136.24,881.84 1.45,488.94 -505.02,886.4 -1131.28,888.16" /><path
         id="path20"
         style="fill:#ffffff;fill-opacity:1;fill-rule:nonzero;stroke:none"
         d="m 8788.12,7277.66 c -264.54,-0.48 -517.02,61.4 -730.31,178.83 l -66.49,36.63 -297.02,-65.39 94.24,220.96 -71.75,93.35 c -105.53,137.31 -161.42,292.88 -161.72,450.56 -0.82,505.72 550.82,918.19 1229.72,919.35 679.01,1.22 1232.21,-409.08 1233.11,-914.88 0.9,-505.79 -550.78,-918.06 -1229.78,-919.41 z m -3.74,2035.57 c -791.11,-1.32 -1431.75,-503.21 -1430.67,-1121.04 0.45,-209.49 74.64,-405.42 203.4,-572.86 l -201.52,-472.36 605,133.13 c 234.08,-128.72 519.73,-204.27 827.9,-203.66 791.37,1.28 1432.01,503.21 1430.91,1120.97 -1.2,617.83 -643.54,1117.35 -1435.02,1115.82" /><path
         id="path22"
         style="fill:#ffffff;fill-opacity:1;fill-rule:nonzero;stroke:none"
         d="m 9496.14,8458.01 -239.32,-138.8 -0.35,230.56 c -0.06,23.59 -19.33,42.89 -42.96,42.89 l -1051.43,-2.07 c -23.67,0.03 -42.79,-19.26 -42.79,-42.89 l 1.32,-708.2 c 0,-23.57 19.16,-42.89 42.99,-42.8 l 1051.37,2.07 c 23.62,-0.1 42.78,19.19 42.82,42.8 l -0.51,230.44 239.85,-137.77 c 50.28,-29.06 91.55,-5.26 91.41,52.73 l -0.82,418.51 c -0.12,57.99 -41.29,81.72 -91.58,52.53" /><path
         id="path24"
         style="fill:#ffffff;fill-opacity:1;fill-rule:nonzero;stroke:none"
         d="M 6586.31,1281.56 4530.15,2420.95 c 234.93,-434.5 577.48,-1068.55 663.37,-1227.75 l 1392.79,88.36" /><path
         id="path26"
         style="fill:#ffffff;fill-opacity:1;fill-rule:nonzero;stroke:none"
         d="M 6040.23,0.230469 6680.04,1154.8 5101.08,1026.16 4373.05,2433.19 3628.27,1089.37 c -15.94,-29.1 -5.5,-65.72 23.53,-81.86 L 5469.75,0.230469 h 570.48" /><path
         id="path28"
         style="fill:#ffffff;fill-opacity:1;fill-rule:nonzero;stroke:none"
         d="m 4830.76,8571.81 c -22.18,-280.88 -267.82,-490.44 -548.52,-468.26 -280.9,22.21 -490.4,267.75 -468.22,548.55 22.21,280.74 267.62,490.33 548.52,468.09 280.7,-22.08 490.33,-267.62 468.22,-548.38 z m -1196.18,94.53 c -30.15,-380.02 253.54,-712.4 633.45,-742.48 144.35,-11.39 281.69,22.89 398.43,90.07 l 526.99,-617.43 c 101.09,-93.48 195.05,-15.42 195.05,-15.42 103.83,91.42 24.75,198.6 24.75,198.6 l -533.73,625.29 c 73.04,99.83 120.21,220.42 130.69,352.66 29.98,379.89 -253.71,712.23 -633.5,742.14 -379.92,29.98 -712.27,-253.64 -742.13,-633.43" /><path
         id="path30"
         style="fill:#ffffff;fill-opacity:1;fill-rule:nonzero;stroke:none"
         d="m 4623.88,8900.76 c -128.01,150.35 -353.65,168.46 -504,40.45 -15.87,-13.49 -29.9,-28.31 -42.82,-43.78 152.55,39.55 321.05,-7.28 430.03,-135.26 85.12,-99.93 115.74,-227.9 95.02,-347.84 132.68,130.25 144.22,342.65 21.77,486.43" /><path
         id="path32"
         style="fill:#ffffff;fill-opacity:1;fill-rule:nonzero;stroke:none"
         d="m 10507.5,1558.64 c -56.2,-58.05 -119.7,-104.89 -187.6,-140.69 -275.7,-145.07 -624.54,-105.22 -860.86,123.46 -294.25,284.88 -302.07,753.81 -17.49,1048.14 284.91,294.81 754.25,302.68 1048.55,17.77 253.8,-245.57 294.7,-628.37 118.5,-917.8 -28.1,-46.38 -61.8,-90.32 -101.1,-130.88 z m 603.9,691.34 c 63.2,65.08 141,107.02 222.9,126.18 -27.1,122.58 -70.7,242.08 -131.4,354.8 -166.7,-83.5 -374.7,-58.06 -516.7,79.07 -141.6,137.13 -174.1,344.25 -95.9,513.9 -116.1,57.27 -238.6,97.42 -363.6,120.27 -16.4,-81.72 -55.2,-159.75 -117.7,-224.83 -173.67,-179.1 -459.93,-184.12 -639.41,-10.74 -38.25,37.54 -68.1,79.59 -90.37,125.02 -114.06,-53.81 -222.25,-124.03 -321.26,-211.11 145.23,-174.9 137.95,-433.98 -23.43,-601.42 -111.45,-115.29 -269.43,-158.01 -415.86,-128.21 -28.72,-123.5 -40.5,-250.21 -35.2,-375.95 114.99,1.16 230.79,-40.91 320.2,-127.1 179.18,-173.61 184.23,-460.21 10.45,-639.32 -11.87,-12.27 -24.34,-23.25 -36.96,-33.57 39.28,-50.19 82.4,-98.43 128.79,-143.85 47.54,-45.37 96.57,-86.39 148.11,-123.831 9.97,12.863 20.59,25.531 32.25,37.731 174.06,179.59 459.92,184 639.64,10.859 89.25,-86.539 135.03,-200.918 137.59,-315.84 126.06,-1.039 252.06,14.801 374.66,47.883 -34.7,145.039 3,304.418 114.7,419.568 20.9,21.88 43.7,41.03 67.8,57.65 159.8,110.74 376.1,106.64 532.7,-13.63 11.2,13.63 21.9,27.53 32.5,41.64 68.4,90.16 124.4,186.53 168.1,287.61 -47.5,20.76 -92.4,50.19 -131.8,87.9 -179.8,173.58 -184.2,459.88 -10.8,639.32" /><path
         id="path34"
         style="fill:#ffffff;fill-opacity:1;fill-rule:nonzero;stroke:none"
         d="m 2639.5,6720.19 c -48.76,-50.36 -103.93,-91.02 -162.8,-122.08 -239.2,-125.84 -541.83,-91.28 -746.88,107.15 -255.27,247.13 -262.06,653.98 -15.16,909.32 247.17,255.81 654.35,262.63 909.72,15.46 220.21,-213.09 255.64,-545.19 102.78,-796.29 -24.35,-40.25 -53.58,-78.37 -87.66,-113.56 z m 523.9,599.78 c 54.9,56.49 122.32,92.88 193.39,109.49 -23.5,106.38 -61.38,210.01 -113.97,307.8 -144.63,-72.43 -325.12,-50.32 -448.31,68.63 -122.9,118.96 -151.04,298.68 -83.19,445.84 -100.78,49.72 -207.01,84.54 -315.49,104.37 -14.24,-70.93 -47.91,-138.61 -102.1,-195.04 -150.69,-155.41 -399.05,-159.78 -554.76,-9.36 -33.16,32.59 -59.07,69.04 -78.4,108.48 -98.94,-46.69 -192.81,-107.6 -278.73,-183.15 126.01,-151.78 119.7,-376.53 -20.31,-521.8 -96.71,-100.02 -233.77,-137.09 -360.8,-111.22 -24.917,-107.15 -35.128,-217.09 -30.55,-326.2 99.76,1.01 200.24,-35.48 277.82,-110.24 155.44,-150.66 159.81,-399.28 9.05,-554.69 -10.3,-10.65 -21.12,-20.18 -32.07,-29.13 34.07,-43.54 71.51,-85.39 111.76,-124.79 41.23,-39.37 83.76,-74.94 128.48,-107.42 8.65,11.12 17.88,22.14 27.98,32.72 151.03,155.82 399.04,159.61 554.96,9.43 77.41,-75.11 117.12,-174.33 119.36,-274.02 109.33,-0.92 218.71,12.82 325.09,41.54 -30.11,125.83 2.57,264.11 99.45,364.01 18.18,18.99 37.95,35.61 58.87,49.99 138.62,96.09 326.28,92.56 462.15,-11.81 9.66,11.81 18.96,23.88 28.18,36.15 59.37,78.19 107.9,161.82 145.84,249.5 -41.23,18.01 -80.13,43.54 -114.3,76.27 -155.99,150.59 -159.82,399.01 -9.4,554.65" /><path
         id="path36"
         style="fill:#ffffff;fill-opacity:1;fill-rule:nonzero;stroke:none"
         d="m 1636.43,1627.14 278.54,-22.18 c 39.36,376.5 359.26,660.52 733.86,659 l 22.14,279.54 c -528.34,12.65 -982.93,-386.29 -1034.54,-916.36" /><path
         id="path38"
         style="fill:#ffffff;fill-opacity:1;fill-rule:nonzero;stroke:none"
         d="m 856.176,1688.92 278.804,-22.25 c 73.78,806.82 770.76,1412.63 1575.77,1378.28 l 21.94,279.08 C 1774.1,3370.52 942.07,2649.16 856.176,1688.92" /><path
         id="path40"
         style="fill:#ffffff;fill-opacity:1;fill-rule:nonzero;stroke:none"
         d="m 2612.21,1800.89 c 150.35,-12.07 262.52,-143.51 250.69,-293.97 -11.9,-150.38 -143.37,-262.65 -293.83,-250.58 -150.39,11.93 -262.59,143.33 -250.72,293.72 11.97,150.35 143.5,262.73 293.86,250.83" /><path
         id="path42"
         style="fill:#ffffff;fill-opacity:1;fill-rule:nonzero;stroke:none"
         d="m 12687.7,6702.79 v -0.24 h -1248.2 v 0.24 c 0,446.24 69.9,504.06 69.9,504.06 50.8,64.53 173.9,87.69 173.9,87.69 92.5,28.89 176.3,62.13 204.8,81.55 l 29.9,44.86 v 83.35 0 c -29.1,32.12 -53.9,76.2 -64,136.45 0,0 -75.4,20.29 -71.1,141.91 0,0 -2.8,60.81 48,34.69 0,0 -1,5.53 -2.3,15.16 -22.7,26.62 -54.3,81.69 -25.1,162.87 0,0 21.6,48.49 -11.7,67.82 0,0 77.5,27.2 84,56.63 0,0 -16.8,37.53 -51.6,20.72 0,0 51.6,46.48 148.4,20.71 0,0 6.3,55.48 -32.3,61.86 0,0 229.6,33.63 370.1,-135.41 0,0 68.6,-144.25 -12.6,-261.1 -0.9,-5.87 -1.5,-9.26 -1.5,-9.26 50.8,26.12 47.8,-34.69 47.8,-34.69 4.4,-121.62 -70.9,-141.91 -70.9,-141.91 -10.1,-60.25 -34.9,-104.33 -64.1,-136.45 h 0.1 v -83.35 l 29.8,-44.86 c 28.5,-19.42 112.4,-52.66 204.9,-81.55 0,0 123.1,-23.16 173.9,-87.69 0,0 86.2,-190.5 69.9,-504.06 z m 71.4,1922.56 H 11050 c -79.6,0 -144.3,-64.63 -144.3,-144.52 v -295.25 h 179 c 18.4,20.47 44.9,33.46 74.6,33.46 55.4,0 100.3,-44.92 100.3,-100.3 0,-55.23 -44.9,-100.23 -100.3,-100.23 -29.7,0 -56.2,12.88 -74.6,33.5 h -179 v -302.68 h 179 c 18.4,20.42 44.9,33.47 74.6,33.47 55.4,0 100.3,-44.93 100.3,-100.47 0,-55.34 -44.9,-100.24 -100.3,-100.24 -29.7,0 -56.2,12.89 -74.6,33.4 h -179 v -302.5 h 179 c 18.4,20.45 44.9,33.36 74.6,33.36 55.4,0 100.3,-44.83 100.3,-100.33 0,-55.41 -44.9,-100.24 -100.3,-100.24 -29.7,0 -56.2,12.98 -74.6,33.4 h -179 v -302.54 h 179 c 18.4,20.35 44.9,33.37 74.6,33.37 55.4,0 100.3,-44.96 100.3,-100.23 0,-55.52 -44.9,-100.44 -100.3,-100.44 -29.7,0 -56.2,13.01 -74.6,33.5 h -179 V 6387.2 c 0,-79.69 64.7,-144.32 144.3,-144.32 h 1709.1 c 79.8,0 144.5,64.63 144.5,144.32 v 2093.63 c 0,79.89 -64.7,144.52 -144.5,144.52" /><path
         id="path44"
         style="fill:#c04921;fill-opacity:1;fill-rule:nonzero;stroke:none"
         d="M 5284.09,7462.02 H 1980.78 v -351.84 h 3303.31 v 351.84" /><path
         id="path46"
         style="fill:#df5429;fill-opacity:1;fill-rule:nonzero;stroke:none"
         d="M 1980.78,7110.18 V 2301.77 H 5284.09 V 7110.18 H 1980.78" /><path
         id="path48"
         style="fill:#ffffff;fill-opacity:1;fill-rule:nonzero;stroke:none"
         d="m 2343,7214.72 h -48.22 v 155.81 H 2343 v -155.81" /><path
         id="path50"
         style="fill:#ffffff;fill-opacity:1;fill-rule:nonzero;stroke:none"
         d="m 2274.33,7214.72 h -48.22 v 133.81 h 48.22 v -133.81" /><path
         id="path52"
         style="fill:#ffffff;fill-opacity:1;fill-rule:nonzero;stroke:none"
         d="m 2205.73,7214.72 h -48.25 v 113.46 h 48.25 v -113.46" /><path
         id="path54"
         style="fill:#ffffff;fill-opacity:1;fill-rule:nonzero;stroke:none"
         d="m 2137.14,7214.72 h -48.26 v 93.12 h 48.26 v -93.12" /><path
         id="path56"
         style="fill:#ffffff;fill-opacity:1;fill-rule:nonzero;stroke:none"
         d="m 4856.29,7216.11 h 264.7 v 138.75 h -264.7 z m 277.31,-12.55 h -289.99 v 163.92 h 289.99 v -163.92" /><path
         id="path58"
         style="fill:#ffffff;fill-opacity:1;fill-rule:nonzero;stroke:none"
         d="m 5175.65,7245.58 h -25.23 v 79.88 h 25.23 v -79.88" /><path
         id="path60"
         style="fill:#ffffff;fill-opacity:1;fill-rule:nonzero;stroke:none"
         d="m 4913.23,7232.45 h -37.92 v 106.1 h 37.92 v -106.1" /><path
         id="path62"
         style="fill:#ffffff;fill-opacity:1;fill-rule:nonzero;stroke:none"
         d="m 4975.18,7232.45 h -37.98 v 106.1 h 37.98 v -106.1" /><path
         id="path64"
         style="fill:#ffffff;fill-opacity:1;fill-rule:nonzero;stroke:none"
         d="m 5037.03,7232.45 h -37.91 v 106.1 h 37.91 v -106.1" /><path
         id="path66"
         style="fill:#ffffff;fill-opacity:1;fill-rule:nonzero;stroke:none"
         d="m 5098.88,7232.45 h -37.91 v 106.1 h 37.91 v -106.1" /><path
         id="path68"
         style="fill:#c04921;fill-opacity:1;fill-rule:nonzero;stroke:none"
         d="m 3632.47,3433.18 c -225.8,0 -409.49,-183.72 -409.49,-409.49 0,-225.76 183.69,-409.49 409.49,-409.49 225.77,0 409.42,183.73 409.42,409.49 0,225.77 -183.65,409.49 -409.42,409.49 z m 0,-887.16 c -263.48,0 -477.78,214.27 -477.78,477.67 0,263.48 214.3,477.72 477.78,477.72 263.34,0 477.71,-214.24 477.71,-477.72 0,-263.4 -214.37,-477.67 -477.71,-477.67" /><path
         id="path70"
         style="fill:#c04921;fill-opacity:1;fill-rule:nonzero;stroke:none"
         d="m 3391.45,2765.63 129.93,359.59 177.12,-56.56 174.76,213.46 -134.14,-356.36 -174.81,54.26 -172.86,-214.39" /><path
         id="path72"
         style="fill:#414042;fill-opacity:1;fill-rule:nonzero;stroke:none"
         d="M 4673.18,5999.85 H 2591.66 c -97.56,0 -176.7,-78.54 -176.7,-175.31 V 4246.67 c 0,-96.78 79.14,-175.31 176.7,-175.31 h 921.92 c 12.92,-53.72 61.14,-93.72 118.86,-93.72 57.71,0 105.96,40 118.85,93.72 h 921.89 c 97.63,0 176.74,78.53 176.74,175.31 v 1577.87 c 0,96.77 -79.11,175.31 -176.74,175.31" /><path
         id="path74"
         style="fill:#ffffff;fill-opacity:1;fill-rule:nonzero;stroke:none"
         d="m 2638.42,6111.88 c -58.19,0 -105.36,-47.16 -105.36,-105.38 V 4338.32 c 0,-58.15 47.17,-105.35 105.36,-105.35 h 888.66 c 10.82,0 21.26,-1.62 31.06,-4.68 v 1883.59 h -919.72" /><path
         id="path76"
         style="fill:#ffffff;fill-opacity:1;fill-rule:nonzero;stroke:none"
         d="M 4626.48,6111.88 H 3706.7 V 4228.29 c 9.87,3.06 20.28,4.68 31.13,4.68 h 888.65 c 58.16,0 105.33,47.2 105.33,105.35 V 6006.5 c 0,58.22 -47.17,105.38 -105.33,105.38" /><path
         id="path78"
         style="fill:#e6e7e8;fill-opacity:1;fill-rule:nonzero;stroke:none"
         d="M 3558.14,6111.88 V 4228.29 c 43.07,-13.29 74.3,-53.31 74.3,-100.71 0,47.4 31.26,87.42 74.26,100.71 v 1883.59 h -148.56" /><path
         id="path80"
         style="fill:#efeff0;fill-opacity:1;fill-rule:nonzero;stroke:none"
         d="m 3458.38,5559.06 h -825.49 v 80.33 h 825.49 v -80.33" /><path
         id="path82"
         style="fill:#efeff0;fill-opacity:1;fill-rule:nonzero;stroke:none"
         d="m 3458.38,5387.41 h -825.49 v 80.33 h 825.49 v -80.33" /><path
         id="path84"
         style="fill:#efeff0;fill-opacity:1;fill-rule:nonzero;stroke:none"
         d="m 3458.38,5215.73 h -825.49 v 80.36 h 825.49 v -80.36" /><path
         id="path86"
         style="fill:#efeff0;fill-opacity:1;fill-rule:nonzero;stroke:none"
         d="m 3458.38,5044.08 h -825.49 v 80.29 h 825.49 v -80.29" /><path
         id="path88"
         style="fill:#efeff0;fill-opacity:1;fill-rule:nonzero;stroke:none"
         d="m 3458.38,4872.39 h -825.49 v 80.34 h 825.49 v -80.34" /><path
         id="path90"
         style="fill:#efeff0;fill-opacity:1;fill-rule:nonzero;stroke:none"
         d="m 3458.38,4700.71 h -825.49 v 80.36 h 825.49 v -80.36" /><path
         id="path92"
         style="fill:#efeff0;fill-opacity:1;fill-rule:nonzero;stroke:none"
         d="m 4632.02,5559.06 h -825.46 v 80.33 h 825.46 v -80.33" /><path
         id="path94"
         style="fill:#efeff0;fill-opacity:1;fill-rule:nonzero;stroke:none"
         d="m 4632.02,5387.41 h -825.46 v 80.33 h 825.46 v -80.33" /><path
         id="path96"
         style="fill:#efeff0;fill-opacity:1;fill-rule:nonzero;stroke:none"
         d="m 4632.02,5215.73 h -825.46 v 80.36 h 825.46 v -80.36" /><path
         id="path98"
         style="fill:#efeff0;fill-opacity:1;fill-rule:nonzero;stroke:none"
         d="m 4632.02,5044.08 h -825.46 v 80.29 h 825.46 v -80.29" /><path
         id="path100"
         style="fill:#efeff0;fill-opacity:1;fill-rule:nonzero;stroke:none"
         d="m 4632.02,4872.39 h -825.46 v 80.34 h 825.46 v -80.34" /><path
         id="path102"
         style="fill:#efeff0;fill-opacity:1;fill-rule:nonzero;stroke:none"
         d="m 4246.06,4700.71 h -439.5 v 80.36 h 439.5 v -80.36" /><path
         id="path104"
         style="fill:#ffffff;fill-opacity:1;fill-rule:nonzero;stroke:none"
         d="m 12026.5,2216.78 c 0,76.37 54,107.57 120.1,69.38 l 711.5,-410.85 c 66.1,-38.1 66.1,-100.56 0,-138.75 l -711.5,-410.78 c -66.1,-38.11 -120.1,-6.84 -120.1,69.39 v 821.61" /><path
         id="path106"
         style="fill:#cfbd26;fill-opacity:1;fill-rule:nonzero;stroke:none"
         d="M 12089.8,7462.02 H 8786.52 v -351.84 h 3303.28 v 351.84" /><path
         id="path108"
         style="fill:#f3db2b;fill-opacity:1;fill-rule:nonzero;stroke:none"
         d="M 8786.52,7110.18 V 2301.77 H 12089.8 V 7110.18 H 8786.52" /><path
         id="path110"
         style="fill:#ffffff;fill-opacity:1;fill-rule:nonzero;stroke:none"
         d="m 9148.74,7214.72 h -48.21 v 155.81 h 48.21 v -155.81" /><path
         id="path112"
         style="fill:#ffffff;fill-opacity:1;fill-rule:nonzero;stroke:none"
         d="m 9080.07,7214.72 h -48.21 v 133.81 h 48.21 v -133.81" /><path
         id="path114"
         style="fill:#ffffff;fill-opacity:1;fill-rule:nonzero;stroke:none"
         d="m 9011.47,7214.72 h -48.26 v 113.46 h 48.26 v -113.46" /><path
         id="path116"
         style="fill:#ffffff;fill-opacity:1;fill-rule:nonzero;stroke:none"
         d="m 8942.87,7214.72 h -48.24 v 93.12 h 48.24 v -93.12" /><path
         id="path118"
         style="fill:#ffffff;fill-opacity:1;fill-rule:nonzero;stroke:none"
         d="m 11662,7216.11 h 264.7 v 138.75 H 11662 Z m 277.3,-12.55 h -289.9 v 163.92 h 289.9 v -163.92" /><path
         id="path120"
         style="fill:#ffffff;fill-opacity:1;fill-rule:nonzero;stroke:none"
         d="m 11981.4,7245.58 h -25.2 v 79.88 h 25.2 v -79.88" /><path
         id="path122"
         style="fill:#ffffff;fill-opacity:1;fill-rule:nonzero;stroke:none"
         d="m 11719,7232.45 h -37.9 v 106.1 h 37.9 v -106.1" /><path
         id="path124"
         style="fill:#ffffff;fill-opacity:1;fill-rule:nonzero;stroke:none"
         d="m 11780.9,7232.45 h -38 v 106.1 h 38 v -106.1" /><path
         id="path126"
         style="fill:#ffffff;fill-opacity:1;fill-rule:nonzero;stroke:none"
         d="m 11842.8,7232.45 h -37.9 v 106.1 h 37.9 v -106.1" /><path
         id="path128"
         style="fill:#ffffff;fill-opacity:1;fill-rule:nonzero;stroke:none"
         d="m 11904.6,7232.45 h -37.9 v 106.1 h 37.9 v -106.1" /><path
         id="path130"
         style="fill:#cbb926;fill-opacity:1;fill-rule:nonzero;stroke:none"
         d="m 10438.2,3460.38 c -235.3,0 -426.8,-191.49 -426.8,-426.85 0,-235.37 191.5,-426.86 426.8,-426.86 235.3,0 426.8,191.49 426.8,426.86 0,235.36 -191.5,426.85 -426.8,426.85 z m 0,-887.18 c -253.9,0 -460.42,206.52 -460.42,460.33 0,253.84 206.52,460.36 460.42,460.36 253.9,0 460.4,-206.52 460.4,-460.36 0,-253.81 -206.5,-460.33 -460.4,-460.33" /><path
         id="path132"
         style="fill:#cbb926;fill-opacity:1;fill-rule:nonzero;stroke:none"
         d="m 10429,2797.82 v -79.69 h 18.3 v 79.69 h -18.3" /><path
         id="path134"
         style="fill:#cbb926;fill-opacity:1;fill-rule:nonzero;stroke:none"
         d="m 10429,3061.77 v -75.88 h 18.3 v 75.88 h -18.3" /><path
         id="path136"
         style="fill:#cbb926;fill-opacity:1;fill-rule:nonzero;stroke:none"
         d="m 10179.7,3077.1 h 517 v 169.47 h -517 z m 526.1,-18.27 h -535.2 c -4.9,0 -9.1,4.06 -9.1,9.11 v 187.69 c 0,4.99 4.2,9.16 9.1,9.16 h 535.2 c 4.9,0 9,-4.17 9,-9.16 v -187.69 c 0,-5.05 -4.1,-9.11 -9,-9.11" /><path
         id="path138"
         style="fill:#cbb926;fill-opacity:1;fill-rule:nonzero;stroke:none"
         d="m 10179.7,2805.49 h 517 v 169.55 h -517 z m 526.1,-18.18 h -535.2 c -4.9,0 -9.1,4.08 -9.1,9.03 v 187.71 c 0,5.13 4.2,9.15 9.1,9.15 h 535.2 c 4.9,0 9,-4.02 9,-9.15 v -187.71 c 0,-4.95 -4.1,-9.03 -9,-9.03" /><path
         id="path140"
         style="fill:#cbb926;fill-opacity:1;fill-rule:nonzero;stroke:none"
         d="m 10339.9,3161.81 c 0,-6.24 -4.9,-11.33 -11.2,-11.33 -6.4,0 -11.4,5.09 -11.4,11.33 0,6.24 5,11.35 11.4,11.35 6.3,0 11.2,-5.11 11.2,-11.35" /><path
         id="path142"
         style="fill:#cbb926;fill-opacity:1;fill-rule:nonzero;stroke:none"
         d="m 10393.8,3161.81 c 0,-6.24 -5,-11.33 -11.3,-11.33 -6.1,0 -11.3,5.09 -11.3,11.33 0,6.24 5.2,11.35 11.3,11.35 6.3,0 11.3,-5.11 11.3,-11.35" /><path
         id="path144"
         style="fill:#cbb926;fill-opacity:1;fill-rule:nonzero;stroke:none"
         d="m 10447.8,3161.81 c 0,-6.24 -5.1,-11.33 -11.3,-11.33 -6.4,0 -11.4,5.09 -11.4,11.33 0,6.24 5,11.35 11.4,11.35 6.2,0 11.3,-5.11 11.3,-11.35" /><path
         id="path146"
         style="fill:#cbb926;fill-opacity:1;fill-rule:nonzero;stroke:none"
         d="m 10501.6,3161.81 c 0,-6.24 -4.9,-11.33 -11.2,-11.33 -6.3,0 -11.4,5.09 -11.4,11.33 0,6.24 5.1,11.35 11.4,11.35 6.3,0 11.2,-5.11 11.2,-11.35" /><path
         id="path148"
         style="fill:#cbb926;fill-opacity:1;fill-rule:nonzero;stroke:none"
         d="m 10555.7,3161.81 c 0,-6.24 -5.1,-11.33 -11.3,-11.33 -6.4,0 -11.4,5.09 -11.4,11.33 0,6.24 5,11.35 11.4,11.35 6.2,0 11.3,-5.11 11.3,-11.35" /><path
         id="path150"
         style="fill:#cbb926;fill-opacity:1;fill-rule:nonzero;stroke:none"
         d="m 10609.5,3161.81 c 0,-6.24 -5,-11.33 -11.3,-11.33 -6.1,0 -11.2,5.09 -11.2,11.33 0,6.24 5.1,11.35 11.2,11.35 6.3,0 11.3,-5.11 11.3,-11.35" /><path
         id="path152"
         style="fill:#cbb926;fill-opacity:1;fill-rule:nonzero;stroke:none"
         d="m 10663.4,3161.81 c 0,-6.24 -5,-11.33 -11.2,-11.33 -6.3,0 -11.3,5.09 -11.3,11.33 0,6.24 5,11.35 11.3,11.35 6.2,0 11.2,-5.11 11.2,-11.35" /><path
         id="path154"
         style="fill:#cbb926;fill-opacity:1;fill-rule:nonzero;stroke:none"
         d="m 10339.9,2890.32 c 0,-6.33 -4.9,-11.38 -11.2,-11.38 -6.4,0 -11.4,5.05 -11.4,11.38 0,6.18 5,11.2 11.4,11.2 6.3,0 11.2,-5.02 11.2,-11.2" /><path
         id="path156"
         style="fill:#cbb926;fill-opacity:1;fill-rule:nonzero;stroke:none"
         d="m 10393.8,2890.32 c 0,-6.33 -5,-11.38 -11.3,-11.38 -6.1,0 -11.3,5.05 -11.3,11.38 0,6.18 5.2,11.2 11.3,11.2 6.3,0 11.3,-5.02 11.3,-11.2" /><path
         id="path158"
         style="fill:#cbb926;fill-opacity:1;fill-rule:nonzero;stroke:none"
         d="m 10447.8,2890.32 c 0,-6.33 -5.1,-11.38 -11.3,-11.38 -6.4,0 -11.4,5.05 -11.4,11.38 0,6.18 5,11.2 11.4,11.2 6.2,0 11.3,-5.02 11.3,-11.2" /><path
         id="path160"
         style="fill:#cbb926;fill-opacity:1;fill-rule:nonzero;stroke:none"
         d="m 10501.6,2890.32 c 0,-6.33 -4.9,-11.38 -11.2,-11.38 -6.3,0 -11.4,5.05 -11.4,11.38 0,6.18 5.1,11.2 11.4,11.2 6.3,0 11.2,-5.02 11.2,-11.2" /><path
         id="path162"
         style="fill:#cbb926;fill-opacity:1;fill-rule:nonzero;stroke:none"
         d="m 10555.7,2890.32 c 0,-6.33 -5.1,-11.38 -11.3,-11.38 -6.4,0 -11.4,5.05 -11.4,11.38 0,6.18 5,11.2 11.4,11.2 6.2,0 11.3,-5.02 11.3,-11.2" /><path
         id="path164"
         style="fill:#cbb926;fill-opacity:1;fill-rule:nonzero;stroke:none"
         d="m 10609.5,2890.32 c 0,-6.33 -5,-11.38 -11.3,-11.38 -6.1,0 -11.2,5.05 -11.2,11.38 0,6.18 5.1,11.2 11.2,11.2 6.3,0 11.3,-5.02 11.3,-11.2" /><path
         id="path166"
         style="fill:#cbb926;fill-opacity:1;fill-rule:nonzero;stroke:none"
         d="m 10663.4,2890.32 c 0,-6.33 -5,-11.38 -11.2,-11.38 -6.3,0 -11.3,5.05 -11.3,11.38 0,6.18 5,11.2 11.3,11.2 6.2,0 11.2,-5.02 11.2,-11.2" /><path
         id="path168"
         style="fill:#cbb926;fill-opacity:1;fill-rule:nonzero;stroke:none"
         d="m 10244.2,3187.61 c 14.4,0 25.8,-11.62 25.8,-25.8 0,-14.17 -11.4,-25.78 -25.8,-25.78 -14.1,0 -25.6,11.61 -25.6,25.78 0,14.18 11.5,25.8 25.6,25.8 z m 0,-67.92 c 23.4,0 42.2,18.85 42.2,42.12 0,23.33 -18.8,42.17 -42.2,42.17 -23.2,0 -42.1,-18.84 -42.1,-42.17 0,-23.27 18.9,-42.12 42.1,-42.12" /><path
         id="path170"
         style="fill:#cbb926;fill-opacity:1;fill-rule:nonzero;stroke:none"
         d="m 10244.2,2864.49 c -14.1,0 -25.6,11.53 -25.6,25.83 0,14.11 11.5,25.64 25.6,25.64 14.4,0 25.8,-11.53 25.8,-25.64 0,-14.3 -11.4,-25.83 -25.8,-25.83 z m 0,67.95 c -23.2,0 -42.1,-18.89 -42.1,-42.12 0,-23.33 18.9,-42.18 42.1,-42.18 23.4,0 42.2,18.85 42.2,42.18 0,23.23 -18.8,42.12 -42.2,42.12" /><path
         id="path172"
         style="fill:#414042;fill-opacity:1;fill-rule:nonzero;stroke:none"
         d="m 9152.64,4054.43 c 0,-58.96 48.25,-107.18 107.22,-107.18 h 2375.94 c 58.9,0 107.1,48.22 107.1,107.18 v 131.74 H 9152.64 v -131.74" /><path
         id="path174"
         style="fill:#f15f4c;fill-opacity:1;fill-rule:nonzero;stroke:none"
         d="m 11742.9,5894.42 c 0,58.97 -48.2,107.19 -107.1,107.19 H 9259.86 c -58.97,0 -107.22,-48.22 -107.22,-107.19 v -133.97 h 2590.26 v 133.97" /><path
         id="path176"
         style="fill:#ffffff;fill-opacity:1;fill-rule:nonzero;stroke:none"
         d="M 9152.64,5760.45 V 4186.17 H 11742.9 V 5760.45 H 9152.64" /><path
         id="path178"
         style="fill:#18bfc8;fill-opacity:1;fill-rule:nonzero;stroke:none"
         d="m 10681,5307.75 c 0,0 0.2,1.63 0.7,4.69 0.1,-1.46 0.2,-2.85 0.2,-4.21 -0.2,-0.16 -0.6,-0.27 -0.9,-0.48 z m 323.4,-614.36 c -51.1,65.04 -175.1,88.26 -175.1,88.26 -93,29.27 -177.4,62.5 -206,82.1 l -30,45.1 v 83.82 l -0.1,0.07 c 29.3,32.39 54.3,76.77 64.4,137.26 0,0 75.8,20.42 71.5,142.83 0,0 2.5,53.64 -39.1,38.86 79.7,265.88 -77.7,357.34 -77.7,357.34 l -12.3,-19.4 c -156.1,66.67 -264.7,3.16 -264.7,3.16 l -50.5,29.87 2,-43.4 c 0,0 -120.7,-3.53 -76.7,-3.43 44.1,0.1 51.4,-22.28 51.4,-22.28 -104.7,-97.86 -91.5,-229.9 -74.6,-299.48 -24.2,-3.26 -22.4,-41.24 -22.4,-41.24 -4.4,-122.41 71.4,-142.83 71.4,-142.83 10.1,-60.56 35.1,-104.87 64.5,-137.26 l -0.1,-0.07 v -83.82 l -30.1,-45.1 c -28.6,-19.6 -113,-52.83 -206,-82.1 0,0 -123.91,-23.22 -175.05,-88.26 0,0 -70.25,-58.13 -70.25,-506.98 v -0.24 h 1255.7 v 0.24 c 16.4,315.46 -70.2,506.98 -70.2,506.98" /><path
         id="path180"
         style="fill:#414042;fill-opacity:1;fill-rule:nonzero;stroke:none"
         d="m 10447.8,5372.46 c -231.4,0 -419.6,-188.27 -419.6,-419.6 0,-231.4 188.2,-419.59 419.6,-419.59 231.3,0 419.6,188.19 419.6,419.59 0,231.33 -188.3,419.6 -419.6,419.6 z m 0,-909.11 c -269.9,0 -489.51,219.6 -489.51,489.51 0,269.92 219.61,489.45 489.51,489.45 269.9,0 489.5,-219.53 489.5,-489.45 0,-269.91 -219.6,-489.51 -489.5,-489.51" /><path
         id="path182"
         style="fill:#414042;fill-opacity:1;fill-rule:nonzero;stroke:none"
         d="m 10311.9,5137.02 c 0,34.22 24.1,48.22 53.8,31.1 l 319,-184.2 c 29.6,-17.09 29.6,-45.06 0,-62.19 l -319,-184.16 c -29.7,-17.08 -53.8,-3.08 -53.8,31.09 v 368.36" /><path
         id="path184"
         style="fill:#00acc2;fill-opacity:1;fill-rule:nonzero;stroke:none"
         d="M 11619.2,4089.23 H 9548.09 l 0.75,-45.04 h 2070.36 c 12.5,0 22.5,10.08 22.5,22.55 0,12.38 -10,22.49 -22.5,22.49" /><path
         id="path186"
         style="fill:#d75544;fill-opacity:1;fill-rule:nonzero;stroke:none"
         d="m 11348.5,5881.03 c 0,-25.5 -20.7,-46.12 -46.2,-46.12 -25.5,0 -46.1,20.62 -46.1,46.12 0,25.5 20.6,46.15 46.1,46.15 25.5,0 46.2,-20.65 46.2,-46.15" /><path
         id="path188"
         style="fill:#d75544;fill-opacity:1;fill-rule:nonzero;stroke:none"
         d="m 11498,5881.03 c 0,-25.5 -20.6,-46.12 -46.1,-46.12 -25.5,0 -46.2,20.62 -46.2,46.12 0,25.5 20.7,46.15 46.2,46.15 25.5,0 46.1,-20.65 46.1,-46.15" /><path
         id="path190"
         style="fill:#d75544;fill-opacity:1;fill-rule:nonzero;stroke:none"
         d="m 11647.7,5881.03 c 0,-25.5 -20.7,-46.12 -46.2,-46.12 -25.5,0 -46.1,20.62 -46.1,46.12 0,25.5 20.6,46.15 46.1,46.15 25.5,0 46.2,-20.65 46.2,-46.15" /><path
         id="path192"
         style="fill:#0290a3;fill-opacity:1;fill-rule:nonzero;stroke:none"
         d="m 9276.42,4089.23 c -12.32,0 -22.25,-9.93 -22.25,-22.25 0,-12.24 9.93,-22.24 22.25,-22.24 h 269.22 l -0.73,44.49 h -268.49" /><path
         id="path194"
         style="fill:#ffffff;fill-opacity:1;fill-rule:nonzero;stroke:none"
         d="m 9590.68,4066.74 c 0,-24.91 -20.17,-45.06 -45,-45.06 -24.92,0 -45.06,20.15 -45.06,45.06 0,24.82 20.14,44.97 45.06,44.97 24.83,0 45,-20.15 45,-44.97" /><path
         id="path196"
         style="fill:#414042;fill-opacity:1;fill-rule:nonzero;stroke:none"
         d="m 9056.23,1724.66 c 0,-86.06 -69.75,-155.71 -155.74,-155.71 H 5241.44 c -86.06,0 -155.75,69.65 -155.75,155.71 v 6314.46 c 0,86 69.69,155.71 155.75,155.71 h 3659.05 c 85.99,0 155.74,-69.71 155.74,-155.71 V 1724.66" /><path
         id="path198"
         style="fill:#1ca8b0;fill-opacity:1;fill-rule:nonzero;stroke:none"
         d="M 8722.61,7692.57 H 5419.29 v -351.85 h 3303.32 v 351.85" /><path
         id="path200"
         style="fill:#18bfc8;fill-opacity:1;fill-rule:nonzero;stroke:none"
         d="M 5419.29,7340.72 V 2532.31 H 8722.61 V 7340.72 H 5419.29" /><path
         id="path202"
         style="fill:#28282a;fill-opacity:1;fill-rule:nonzero;stroke:none"
         d="m 7803.96,2063.11 c 0,-107.9 -87.55,-195.49 -195.45,-195.49 H 6533.38 c -107.94,0 -195.42,87.59 -195.42,195.49 v 0 c 0,108.03 87.48,195.48 195.42,195.48 h 1075.13 c 107.9,0 195.45,-87.45 195.45,-195.48 v 0" /><path
         id="path204"
         style="fill:#28282a;fill-opacity:1;fill-rule:nonzero;stroke:none"
         d="m 7554.73,7933.63 c 0,-53.95 -43.74,-97.69 -97.76,-97.69 h -772.08 c -53.98,0 -97.7,43.74 -97.7,97.69 v 0 c 0,53.95 43.72,97.69 97.7,97.69 h 772.08 c 54.02,0 97.76,-43.74 97.76,-97.69 v 0" /><path
         id="path206"
         style="fill:#1ca8b0;fill-opacity:1;fill-rule:nonzero;stroke:none"
         d="m 7070.98,3673.57 c -225.8,0 -409.49,-183.73 -409.49,-409.49 0,-225.77 183.69,-409.49 409.49,-409.49 225.76,0 409.42,183.72 409.42,409.49 0,225.76 -183.66,409.49 -409.42,409.49 z m 0,-887.18 c -263.48,0 -477.78,214.28 -477.78,477.69 0,263.47 214.3,477.72 477.78,477.72 263.34,0 477.71,-214.25 477.71,-477.72 0,-263.41 -214.37,-477.69 -477.71,-477.69" /><path
         id="path208"
         style="fill:#1ca8b0;fill-opacity:1;fill-rule:nonzero;stroke:none"
         d="m 6938.29,3443.87 c 0,33.3 23.67,46.99 52.49,30.34 l 311.39,-179.83 c 28.83,-16.61 28.83,-43.93 0,-60.69 l -311.39,-179.72 c -28.82,-16.65 -52.49,-3.05 -52.49,30.4 v 359.5" /><path
         id="path210"
         style="fill:#ffffff;fill-opacity:1;fill-rule:nonzero;stroke:none"
         d="m 5781.51,7445.26 h -48.22 v 155.82 h 48.22 v -155.82" /><path
         id="path212"
         style="fill:#ffffff;fill-opacity:1;fill-rule:nonzero;stroke:none"
         d="m 5712.84,7445.26 h -48.22 v 133.82 h 48.22 v -133.82" /><path
         id="path214"
         style="fill:#ffffff;fill-opacity:1;fill-rule:nonzero;stroke:none"
         d="m 5644.24,7445.26 h -48.25 v 113.47 h 48.25 v -113.47" /><path
         id="path216"
         style="fill:#ffffff;fill-opacity:1;fill-rule:nonzero;stroke:none"
         d="m 5575.64,7445.26 h -48.25 v 93.12 h 48.25 v -93.12" /><path
         id="path218"
         style="fill:#ffffff;fill-opacity:1;fill-rule:nonzero;stroke:none"
         d="m 8294.79,7446.66 h 264.7 v 138.76 h -264.7 z m 277.32,-12.55 h -289.99 v 163.92 h 289.99 v -163.92" /><path
         id="path220"
         style="fill:#ffffff;fill-opacity:1;fill-rule:nonzero;stroke:none"
         d="m 8614.16,7476.13 h -25.23 v 79.89 h 25.23 v -79.89" /><path
         id="path222"
         style="fill:#ffffff;fill-opacity:1;fill-rule:nonzero;stroke:none"
         d="m 8351.74,7463 h -37.91 v 106.1 h 37.91 V 7463" /><path
         id="path224"
         style="fill:#ffffff;fill-opacity:1;fill-rule:nonzero;stroke:none"
         d="m 8413.68,7463 h -37.97 v 106.1 h 37.97 V 7463" /><path
         id="path226"
         style="fill:#ffffff;fill-opacity:1;fill-rule:nonzero;stroke:none"
         d="m 8475.54,7463 h -37.91 v 106.1 h 37.91 V 7463" /><path
         id="path228"
         style="fill:#ffffff;fill-opacity:1;fill-rule:nonzero;stroke:none"
         d="m 8537.39,7463 h -37.91 v 106.1 h 37.91 V 7463" /><path
         id="path230"
         style="fill:#e6be80;fill-opacity:1;fill-rule:nonzero;stroke:none"
         d="M 7240.83,568.762 6990.65,139.199 c 0,0 4.68,-56.9998 27.8,-139.199 h 961.81 l 416.57,1590.11 -1.79,10.98 c -29.16,178.1 -197.15,298.71 -375,269.61 -177.86,-29.08 -298.55,-196.98 -269.35,-375.13 l -236.75,1445.99 c -29.16,178.06 -196.98,298.5 -374.8,269.45 -178.06,-29.19 -298.74,-196.91 -269.52,-374.9 L 7240.83,568.762" /><path
         id="path232"
         style="fill:#d1ad74;fill-opacity:1;fill-rule:nonzero;stroke:none"
         d="m 7980.26,0 h 1997.52 c -1.18,14.3398 -2.23,27.9414 -4.61,42.5508 l -54.35,332.3402 -193.42,1181.639 -6.95,42.36 c -29.15,177.99 -197.05,298.57 -374.96,269.48 -177.86,-29.1 -298.59,-197.08 -269.45,-374.97 l -20.62,126.07 c -29.15,177.82 -196.92,298.54 -374.77,269.46 -177.96,-29.17 -298.49,-196.96 -269.37,-374.98 l -12.45,76.16 L 7980.26,0" /><path
         id="path234"
         style="fill:#c2a16e;fill-opacity:1;fill-rule:nonzero;stroke:none"
         d="m 7248.43,2530.49 217.65,35.66 -56.38,344.18 c 0,0 -46.32,168.33 -245.57,135.71 -199.25,-32.66 -189.59,-206.88 -189.59,-206.88 l 56.32,-344.19 217.57,35.52" /><path
         id="path236"
         style="fill:#c2a16e;fill-opacity:1;fill-rule:nonzero;stroke:none"
         d="m 6722.32,1045.08 c -4.98,167.75 -164.08,349.71 -164.08,349.71 -123.4,88.64 -214.85,-17.12 -253.62,-76.8 l 309.26,-535.869 c 153.3,51.199 108.44,262.959 108.44,262.959" /><path
         id="path238"
         style="fill:#e6be80;fill-opacity:1;fill-rule:nonzero;stroke:none"
         d="m 7419.46,534.98 -278.53,499.59 c 0,0 -252.18,441.97 -497.28,497.41 0,0 -291.62,64.64 -342.55,-207.86 l 3.52,-6.13 c 38.77,59.68 130.22,165.44 253.62,76.8 0,0 159.1,-181.96 164.08,-349.71 0,0 44.86,-211.76 -108.44,-262.959 L 6991.6,127.699 7419.46,534.98" /><path
         id="path240"
         style="fill:#c04921;fill-opacity:1;fill-rule:nonzero;stroke:none"
         d="m 5845.36,4697.76 c 4.61,19.73 12.14,34.73 20.82,46.93 -27.23,-9.02 -61.31,-31.46 -74.36,-87 -20.82,-88.74 37.13,-169.76 147.64,-206.37 l 1098.49,-458.46 v 71.82 L 5993,4491.39 c -110.54,36.62 -168.49,117.66 -147.64,206.37" /><path
         id="path242"
         style="fill:#ffffff;fill-opacity:1;fill-rule:nonzero;stroke:none"
         d="m 5917.22,4749.44 c -4.89,0.88 -10.11,1.28 -15.57,1.28 -5.46,0 -19.29,-0.6 -35.47,-6.03 -8.68,-12.2 -16.21,-27.2 -20.82,-46.93 -20.85,-88.71 37.1,-169.75 147.64,-206.37 l 1044.95,-426.71 v 208.81 l -1120.73,475.95" /><path
         id="path244"
         style="fill:#c04a25;fill-opacity:1;fill-rule:nonzero;stroke:none"
         d="M 8426.98,4626.48 7037.95,4002.89 v -96.82 l 1389.03,623.65 v 96.76" /><path
         id="path246"
         style="fill:#b64622;fill-opacity:1;fill-rule:nonzero;stroke:none"
         d="M 8426.98,4834.96 7037.95,4266.27 v 86.77 l 1389.03,568.66 v -86.74" /><path
         id="path248"
         style="fill:#dedfe0;fill-opacity:1;fill-rule:nonzero;stroke:none"
         d="M 8356.07,4601.19 7037.95,4002.89 V 4268 l 1317.89,539.73 0.23,-206.54" /><path
         id="path250"
         style="fill:#a23e1e;fill-opacity:1;fill-rule:nonzero;stroke:none"
         d="M 8356.07,4644.86 7037.95,4064.68 v -71.82 l 1389.03,623.59 -70.91,28.41" /><path
         id="path252"
         style="fill:#7e2c0a;fill-opacity:1;fill-rule:nonzero;stroke:none"
         d="m 7384.8,5370.66 c -24.81,3.22 -48.45,1.7 -68.89,-1.86 L 5848.96,4829.57 c 0,0 -87.05,-27.29 -103.26,-127.57 24.25,103.25 115.36,130.72 171.65,118.45 l 1120.6,-477.85 1389.03,579.1 -1042.18,448.96" /><path
         id="path254"
         style="fill:#df5429;fill-opacity:1;fill-rule:nonzero;stroke:none"
         d="m 5939.46,4451.32 c -110.51,36.61 -168.46,117.63 -147.64,206.37 13.05,55.54 47.13,77.98 74.36,87 16.18,5.43 30.01,6.03 35.47,6.03 5.46,0 10.68,-0.4 15.57,-1.28 l 1120.73,-483.17 v 86.77 l -1095.75,465 -6.47,2.04 c -77.28,16.91 -186.71,-25.78 -214.88,-145.71 -24.66,-105 26.27,-236.11 192.9,-291.23 l 1124.2,-477.07 v 86.79 l -1098.49,458.46" /><path
         id="path256"
         style="fill:#2c2d2d;fill-opacity:1;fill-rule:nonzero;stroke:none"
         d="m 5845.36,5175.21 c 4.61,19.66 12.14,34.65 20.82,46.93 -27.23,-9.02 -61.31,-31.54 -74.36,-87.08 -20.82,-88.71 37.13,-169.72 147.64,-206.38 l 1098.49,-458.46 v 71.86 L 5993,4968.8 c -110.54,36.65 -168.49,117.64 -147.64,206.41" /><path
         id="path258"
         style="fill:#ffffff;fill-opacity:1;fill-rule:nonzero;stroke:none"
         d="m 5917.22,5226.88 c -4.89,0.82 -10.11,1.26 -15.57,1.26 -5.46,0 -19.29,-0.61 -35.47,-6 -8.68,-12.28 -16.21,-27.27 -20.82,-46.93 -20.85,-88.77 37.1,-169.76 147.64,-206.41 l 1044.95,-426.72 v 208.79 l -1120.73,476.01" /><path
         id="path260"
         style="fill:#313132;fill-opacity:1;fill-rule:nonzero;stroke:none"
         d="M 8426.98,5103.93 7037.95,4480.27 v -96.78 l 1389.03,623.59 v 96.85" /><path
         id="path262"
         style="fill:#333334;fill-opacity:1;fill-rule:nonzero;stroke:none"
         d="m 8426.98,5312.37 -1389.03,-568.7 v 86.75 l 1389.03,568.73 v -86.78" /><path
         id="path264"
         style="fill:#dedfe0;fill-opacity:1;fill-rule:nonzero;stroke:none"
         d="M 8356.07,5078.63 7037.95,4480.27 v 265.11 l 1317.89,539.76 0.23,-206.51" /><path
         id="path266"
         style="fill:#242325;fill-opacity:1;fill-rule:nonzero;stroke:none"
         d="M 8356.07,5122.27 7037.95,4542.08 v -71.86 l 1389.03,623.6 -70.91,28.45" /><path
         id="path268"
         style="fill:#19181a;fill-opacity:1;fill-rule:nonzero;stroke:none"
         d="m 7384.8,5848.04 c -24.81,3.25 -48.45,1.73 -68.89,-1.83 L 5848.96,5306.98 c 0,0 -87.05,-27.3 -103.26,-127.57 24.25,103.26 115.36,130.69 171.65,118.45 l 1120.6,-477.89 1389.03,579.18 -1042.18,448.89" /><path
         id="path270"
         style="fill:#414042;fill-opacity:1;fill-rule:nonzero;stroke:none"
         d="m 5939.46,4928.68 c -110.51,36.66 -168.46,117.67 -147.64,206.38 13.05,55.54 47.13,78.06 74.36,87.08 16.18,5.39 30.01,6 35.47,6 5.46,0 10.68,-0.44 15.57,-1.26 l 1120.73,-483.21 v 86.75 l -1095.75,465.03 -6.47,2.04 c -77.28,16.95 -186.71,-25.78 -214.88,-145.68 -24.66,-105.05 26.27,-236.14 192.9,-291.28 l 1124.2,-477.04 v 86.73 l -1098.49,458.46" /><path
         id="path272"
         style="fill:#c2b226;fill-opacity:1;fill-rule:nonzero;stroke:none"
         d="m 5845.36,5652.58 c 4.61,19.71 12.14,34.69 20.82,46.93 -27.23,-9.02 -61.31,-31.5 -74.36,-87.01 -20.82,-88.77 37.13,-169.75 147.64,-206.4 l 1098.49,-458.46 v 71.86 L 5993,5446.21 c -110.54,36.62 -168.49,117.63 -147.64,206.37" /><path
         id="path274"
         style="fill:#ffffff;fill-opacity:1;fill-rule:nonzero;stroke:none"
         d="m 5917.22,5704.26 c -4.89,0.88 -10.11,1.29 -15.57,1.29 -5.46,0 -19.29,-0.61 -35.47,-6.04 -8.68,-12.24 -16.21,-27.22 -20.82,-46.93 -20.85,-88.74 37.1,-169.75 147.64,-206.37 L 7037.95,5019.5 v 208.81 l -1120.73,475.95" /><path
         id="path276"
         style="fill:#dcc728;fill-opacity:1;fill-rule:nonzero;stroke:none"
         d="M 8426.98,5581.3 7037.95,4957.71 v -96.84 l 1389.03,623.63 v 96.8" /><path
         id="path278"
         style="fill:#d8c428;fill-opacity:1;fill-rule:nonzero;stroke:none"
         d="M 8426.98,5789.78 7037.95,5221.05 v 86.78 l 1389.03,568.69 v -86.74" /><path
         id="path280"
         style="fill:#dedfe0;fill-opacity:1;fill-rule:nonzero;stroke:none"
         d="m 8356.07,5556.01 -1318.12,-598.3 v 265.07 l 1317.89,539.74 0.23,-206.51" /><path
         id="path282"
         style="fill:#b5a627;fill-opacity:1;fill-rule:nonzero;stroke:none"
         d="M 8356.07,5599.69 7037.95,5019.5 v -71.86 l 1389.03,623.62 -70.91,28.43" /><path
         id="path284"
         style="fill:#f3db2b;fill-opacity:1;fill-rule:nonzero;stroke:none"
         d="m 7384.8,6325.48 c -24.81,3.19 -48.45,1.69 -68.89,-1.9 L 5848.96,5784.36 c 0,0 -87.05,-27.27 -103.26,-127.57 24.25,103.29 115.36,130.71 171.65,118.47 l 1120.6,-477.88 1389.03,579.14 -1042.18,448.96" /><path
         id="path286"
         style="fill:#e4ce29;fill-opacity:1;fill-rule:nonzero;stroke:none"
         d="m 5939.46,5406.1 c -110.51,36.65 -168.46,117.63 -147.64,206.4 13.05,55.51 47.13,77.99 74.36,87.01 16.18,5.43 30.01,6.04 35.47,6.04 5.46,0 10.68,-0.41 15.57,-1.29 l 1120.73,-483.21 v 86.78 l -1095.75,464.99 -6.47,2.04 c -77.28,16.95 -186.71,-25.77 -214.88,-145.68 -24.66,-105.01 26.27,-236.14 192.9,-291.21 l 1124.2,-477.1 v 86.77 L 5939.46,5406.1" /><path
         id="path288"
         style="fill:#df5429;fill-opacity:1;fill-rule:nonzero;stroke:none"
         d="m 6964.67,5885.47 -485.82,170.94 v -157.92 c 0,-109.12 277.65,-197.45 620.2,-197.45 342.59,0 620.31,88.33 620.31,197.45 v 0 163.99 l -446.55,-172.4 c -84.27,-32.51 -222.92,-34.65 -308.14,-4.61" /><path
         id="path290"
         style="fill:#bc4820;fill-opacity:1;fill-rule:nonzero;stroke:none"
         d="m 6478.85,6445.92 v -389.51 l 485.82,-170.94 c 85.22,-30.04 223.87,-27.9 308.14,4.61 l 446.55,172.4 v 383.44 H 6478.85" /><path
         id="path292"
         style="fill:#df5429;fill-opacity:1;fill-rule:nonzero;stroke:none"
         d="m 7272.81,6132.64 c -84.27,-32.52 -222.92,-34.62 -308.14,-4.58 l -876.32,308.3 c -85.18,30.01 -86.77,83.19 -3.53,118.18 l 883.34,371.24 c 83.29,35.03 220.38,37.06 304.65,4.54 l 879.74,-339.67 c 84.31,-32.55 84.31,-85.82 0,-118.35 l -879.74,-339.66" /><path
         id="path294"
         style="fill:#2d3a46;fill-opacity:1;fill-rule:nonzero;stroke:none"
         d="m 8225.24,6132.13 c -24.26,0 -44,19.67 -44,43.98 v 246.35 c 0,62.9 -92.84,63.68 -96.81,63.68 h -964.89 c -24.29,0 -43.98,19.67 -43.98,43.99 0,24.31 19.69,43.97 43.98,43.97 h 964.89 c 63.91,0 184.84,-31.67 184.84,-151.64 v -246.35 c 0,-24.31 -19.74,-43.98 -44.03,-43.98" /><path
         id="path296"
         style="fill:#2d3a46;fill-opacity:1;fill-rule:nonzero;stroke:none"
         d="m 8353.54,5881.78 c -32.18,71.24 -36.49,163.37 -36.49,163.37 -1.43,105.56 -91.81,98.1 -91.81,98.1 0,0 -79.36,7.46 -80.76,-98.1 0,0 -4.3,-92.13 -36.59,-163.37 0,0 -49.84,-57.55 0,-71.25 h 128.35 117.3 c 49.88,13.7 0,71.25 0,71.25" /><path
         id="path298"
         style="fill:#354350;fill-opacity:1;fill-rule:nonzero;stroke:none"
         d="m 8306.03,6143.25 c 0,-44.62 -36.23,-80.77 -80.79,-80.77 -44.58,0 -80.76,36.15 -80.76,80.77 0,44.59 36.18,80.74 80.76,80.74 44.56,0 80.79,-36.15 80.79,-80.74" /></g></g></svg>