<?xml version="1.0" encoding="UTF-8" standalone="no"?>
<svg
   xmlns:dc="http://purl.org/dc/elements/1.1/"
   xmlns:cc="http://creativecommons.org/ns#"
   xmlns:rdf="http://www.w3.org/1999/02/22-rdf-syntax-ns#"
   xmlns:svg="http://www.w3.org/2000/svg"
   xmlns="http://www.w3.org/2000/svg"
   viewBox="0 0 1461.3333 1040"
   height="1040"
   width="1461.3333"
   xml:space="preserve"
   id="svg2"
   version="1.1"><metadata
     id="metadata8"><rdf:RDF><cc:Work
         rdf:about=""><dc:format>image/svg+xml</dc:format><dc:type
           rdf:resource="http://purl.org/dc/dcmitype/StillImage" /></cc:Work></rdf:RDF></metadata><defs
     id="defs6" /><g
     transform="matrix(1.3333333,0,0,-1.3333333,0,1040)"
     id="g10"><g
       transform="scale(0.1)"
       id="g12"><path
         id="path14"
         style="fill:transparent;fill-opacity:1;fill-rule:nonzero;stroke:none"
         d="M 0,0 H 10970 V 7800 H 0 Z" /><path
         id="path16"
         style="fill:#000;fill-opacity:1;fill-rule:nonzero;stroke:none"
         d="m 4775.86,2098.6 c -185.19,0 -368.15,-122.13 -368.15,-235.46 0,-113.33 0,-999.999 0,-999.999 h 148.15 v -380 h 440 v 380 H 5144 c 0,0 0,826.669 0,966.669 0,140 -182.95,268.79 -368.14,268.79" /><path
         id="path18"
         style="fill:#000;fill-opacity:1;fill-rule:nonzero;stroke:none"
         d="m 3298.37,1113.74 c -121.57,-69.45 -142.65,-292.189 -50.79,-452.99 91.86,-160.801 288.65,-259.09 387.06,-202.871 98.41,56.211 487.58,278.531 487.58,278.531 l -365.21,639.33 c 0,0 -337.08,-192.56 -458.64,-262" /><path
         id="path20"
         style="fill:#000;fill-opacity:1;fill-rule:nonzero;stroke:none"
         d="m 10226.1,4699.6 691.2,1249.61 c 20.5,37.09 7.1,83.79 -30,104.31 L 8027.52,7635.38 c -37.09,20.51 -83.79,7.08 -104.3,-30.01 l -171.08,-309.28 c -126.51,35.79 -267.51,15.86 -382.68,-66.69 L 7187.7,7099.12 H 4225.8 L 4061.75,7618.91 376.484,6455.82 1127,4077.81 825.328,3291.58 c 0,0 -84.152,-226.66 63.715,-283.39 147.867,-56.74 236.927,168.03 236.927,168.03 L 1282.66,3584.6 1606.63,2558.09 177.938,469.602 167.254,-23.7891 1420.31,-10 l 1261.6,2025.21 837.15,264.21 V 2170.55 H 6271.38 L 5568.94,948.289 6944.55,157.719 7443.43,1025.78 c 151.68,-110.132 362.71,-116.768 523.42,-1.57 L 8398.96,1333.93 9311.3,-10 h 1535.9 l -1437.11,2068.68 1100.31,788.69 c 200.8,143.94 246.9,423.42 103,624.24 l -810.51,1130.76 -199.86,-17.92 c -91.65,-8.23 -176.29,28.08 -225.47,96.69 l -475.19,662.95 1219.43,-674.5 c 37,-20.51 83.7,-7.08 104.3,30.01" /><path
         id="path22"
         style="fill:#2d5763;fill-opacity:1;fill-rule:nonzero;stroke:none"
         d="m 9435.77,4584.45 c -91.64,-8.22 -176.29,28.08 -225.47,96.69 l -479.92,669.56 c -49.18,68.61 -56.37,160.43 -19.15,244.58 l 81.17,183.51 -965.95,1347.63 c -143.94,200.81 -423.42,246.92 -624.24,102.98 L 4658.65,5406.24 C 4457.84,5262.29 4411.73,4982.81 4555.67,4782 L 7175.36,1127.19 C 7319.3,926.371 7598.78,880.262 7799.6,1024.21 l 2543.6,1823.16 c 200.8,143.94 246.9,423.42 102.9,624.24 l -810.47,1130.76 -199.86,-17.92" /><path
         id="path24"
         style="fill:#f48912;fill-opacity:1;fill-rule:nonzero;stroke:none"
         d="m 7518.76,1990.57 c -54.86,31.53 -73.78,101.56 -42.25,156.42 31.53,54.86 101.56,73.78 156.43,42.25 54.86,-31.53 73.77,-101.56 42.24,-156.42 -31.53,-54.87 -101.56,-73.78 -156.42,-42.25 z m -299.12,171.9 c -54.86,31.53 -73.77,101.57 -42.24,156.42 31.52,54.87 101.56,73.78 156.42,42.25 54.86,-31.53 73.77,-101.56 42.25,-156.42 -31.53,-54.86 -101.57,-73.78 -156.43,-42.25 z m -299.11,171.91 c -54.86,31.53 -73.78,101.56 -42.25,156.42 31.53,54.86 101.56,73.77 156.42,42.25 54.86,-31.53 73.78,-101.57 42.25,-156.43 -31.53,-54.86 -101.56,-73.77 -156.42,-42.24 z m -299.12,171.9 c -54.86,31.53 -73.78,101.56 -42.25,156.42 31.53,54.86 101.56,73.78 156.43,42.25 54.86,-31.53 73.77,-101.56 42.24,-156.42 -31.53,-54.86 -101.56,-73.78 -156.42,-42.25 z M 6531.97,2915.01 5401.69,948.289 6777.3,157.719 7907.58,2124.45 6531.97,2915.01" /><path
         id="path26"
         style="fill:#6a5e50;fill-opacity:1;fill-rule:nonzero;stroke:none"
         d="m 6705.1,2123.88 c -1.31,0 -2.58,-0.06 -3.81,-0.2 -8.77,-0.95 -12.61,-5.08 -14.74,-8.1 -7.57,-10.76 -2.74,-28.74 5.39,-41.79 14.52,-23.31 36.69,-38.63 62.68,-50.7 13.95,7.81 24.1,18.33 25.43,31.7 1.9,19.08 -15.45,38.03 -25.97,47.64 -14.08,12.86 -33.99,21.45 -48.98,21.45 z m -117.02,176.64 c -17.74,0 -35.13,-2.59 -51.58,-7.86 -55.11,-17.68 -96.46,-67.04 -100.55,-120.07 -4.25,-55.01 32.38,-114.23 89.08,-143.99 59.04,-31 127.49,-29.4 177.09,-21.67 -17.12,11.9 -32.24,26.63 -44.12,45.7 -14.68,23.53 -23.48,58.49 -4.16,85.96 10.03,14.27 24.94,22.87 43.09,24.86 17.99,1.91 38.74,-2.91 57.74,-12.95 l -6.74,4.36 c 23.57,36.48 -12.33,87.8 -47.32,110.82 -34.78,22.88 -74.41,34.84 -112.53,34.84 z m 851.8,-975.8 c -35.84,0 -74.56,1.95 -110.45,16.91 -41.97,17.48 -83.41,59.01 -81.35,112.39 0.31,8.23 1.65,15.84 2.94,23.2 1.39,7.98 2.72,15.52 2.33,22.19 -1.69,28.75 -34.58,47.76 -44.62,52.9 -10.84,5.55 -22.34,10.05 -34.53,14.81 -17.25,6.74 -35.09,13.71 -51.82,24.18 -6.05,3.78 -24.54,15.31 -28.62,36.17 -2.15,10.94 0.37,20.62 2.38,28.39 1.06,4.03 2.25,8.62 1.86,10.64 -0.93,4.77 -17.1,6.65 -28.9,8.01 -9.3,1.09 -18.9,2.2 -28.02,4.74 -25.94,7.26 -44.97,30.36 -49.64,60.31 -2.57,16.45 -0.4,32.26 5.83,45.62 l -115.57,36.28 -3.77,7.78 c -12.31,25.48 4.47,47.31 16.73,63.25 5.67,7.38 14.24,18.54 12.64,22.27 -0.42,1.01 -2.16,3.02 -7.99,6.81 -27.1,17.66 -60.9,28.91 -93.58,39.78 -16.9,5.62 -33.98,11.31 -50.5,17.94 -11.51,-4.49 -24.36,-8.03 -38.39,-10.48 -80.5,-14.05 -153.27,-5.63 -210.4,24.38 -71.55,37.55 -115.9,110.88 -110.38,182.49 5.32,68.79 58.04,132.56 128.23,155.06 63.2,20.3 137.33,8.46 198.31,-31.65 56.07,-36.89 94.55,-110.83 58.92,-165.95 l -7.98,5.16 c 2.58,-2.01 5.09,-4.12 7.51,-6.33 28.13,-25.68 41.54,-53.74 38.8,-81.16 -1.68,-16.85 -9.23,-31.98 -21.8,-44.68 6.69,-2.29 13.47,-4.55 20.31,-6.82 35.09,-11.68 71.37,-23.75 102.78,-44.22 8.53,-5.56 17.93,-12.83 22.96,-24.64 10.78,-25.24 -5.7,-46.68 -17.73,-62.33 -3.16,-4.11 -8.07,-10.5 -10.74,-15.39 l 161.87,-50.82 -35.17,-23.17 c -11.06,-7.28 -13.04,-22.33 -11.37,-33.01 1.67,-10.66 8.13,-24.39 20.89,-27.95 6.08,-1.69 13.75,-2.59 21.86,-3.53 22.72,-2.64 57.05,-6.62 63.56,-40.13 2.11,-10.92 -0.39,-20.56 -2.41,-28.32 -1.05,-4.04 -2.24,-8.63 -1.84,-10.64 0.12,-0.65 1.22,-4.1 10.55,-9.94 13.59,-8.49 28.94,-14.5 45.19,-20.84 12.58,-4.92 25.58,-10 38.2,-16.47 40.14,-20.55 64.31,-51.95 66.31,-86.15 0.68,-11.33 -1.2,-22.02 -2.86,-31.46 -1.1,-6.32 -2.16,-12.3 -2.37,-17.83 -1.3,-33.99 28.51,-62.15 56.77,-73.91 34.79,-14.51 74.95,-14.14 113.74,-13.71 l 0.4,-40 c -6.24,-0.06 -12.6,-0.13 -19.07,-0.13" /><path
         id="path28"
         style="fill:#6a5e50;fill-opacity:1;fill-rule:nonzero;stroke:none"
         d="m 6397.26,1845.07 c -3.07,0 -6.13,-0.44 -8.89,-1.45 -23.48,-8.55 -42.24,-33.68 -47.23,-62.94 21.12,13.66 41.86,27.86 62.16,42.57 3.76,2.73 12.55,9.1 13.37,13.37 0.14,0.71 0.26,1.36 -1.65,2.99 -3.71,3.17 -10.76,5.46 -17.76,5.46 z M 6892,900.699 c -14.13,61.031 -35.48,125.611 -86.75,141.861 -4.92,1.55 -10.43,2.83 -16.27,4.17 -20.09,4.63 -45.11,10.4 -58.56,33.32 -17.29,29.45 -1.17,57.97 11.78,80.89 2.75,4.87 5.53,9.8 7.99,14.67 -42.87,-5.91 -86.3,-8.08 -129.51,-6.48 -12.59,0.47 -36.05,1.34 -52.92,16.95 -10.45,9.65 -16.24,22.72 -16.75,37.78 -0.71,20.57 8.87,43.97 25.01,61.1 6.79,7.23 14.13,13.56 21.22,19.67 2.95,2.55 5.86,5.06 8.66,7.57 l -168.54,16.61 c -9.07,0.89 -27.98,2.74 -38.71,18.54 -10.59,15.59 -5.56,33.71 -3.14,42.41 l 19.36,69.78 c -69.82,9.91 -143.8,-19.58 -219.6,-53.52 l -19.44,34.77 130.85,89.22 c 20,13.63 37.05,26.29 43.27,43.06 8.91,24.02 -4.95,51.89 -19.63,81.39 -2.57,5.17 -5.11,10.3 -7.52,15.36 -6.9,14.55 -12.27,28.79 -16.09,42.67 -32.02,-18.75 -64.74,-36.29 -97.98,-52.51 l -17.54,35.94 c 36.94,18.05 73.23,37.75 108.6,58.97 -0.42,9.99 0.03,19.75 1.41,29.24 6.53,45.09 35.36,83.19 73.47,97.07 21.6,7.88 49.47,3.18 66.3,-11.14 12.49,-10.65 17.95,-25.6 14.98,-41.01 -3.81,-19.8 -20.32,-31.76 -29.17,-38.18 -27.35,-19.81 -55.45,-38.73 -84.18,-56.67 3.07,-14.99 8.52,-30.77 16.34,-47.24 2.3,-4.84 4.73,-9.74 7.19,-14.68 17,-34.15 36.25,-72.87 21.32,-113.12 -11.15,-30.09 -38.36,-48.64 -58.23,-62.2 l -2.67,-1.81 c 39.51,8.05 78.89,9.3 118.32,-0.82 l 19.76,-5.08 -30.58,-110.19 c -1.33,-4.76 -1.78,-7.44 -1.87,-8.94 1.43,-0.47 4.13,-1.02 9.1,-1.5 l 233.65,-23.02 -12.21,-25.71 c -9.33,-19.64 -25.28,-33.4 -39.35,-45.54 -6.61,-5.71 -12.85,-11.1 -18.23,-16.81 -8.68,-9.21 -14.5,-22.49 -14.15,-32.3 0.19,-5.7 2.34,-8.32 3.94,-9.81 5.26,-4.86 16.2,-5.91 27.24,-6.32 50.91,-1.93 102.12,1.76 152.2,10.86 l 23.75,4.32 -0.18,-24.14 c -0.16,-22.15 -11.19,-41.67 -20.92,-58.89 -12.05,-21.33 -17.17,-32.32 -12.1,-40.97 4.73,-8.05 18.48,-11.23 33.05,-14.58 6.35,-1.46 12.92,-2.97 19.37,-5.02 70.43,-22.32 96.97,-98.948 113.63,-170.971 l -38.97,-9.02" /><path
         id="path30"
         style="fill:#6a5e50;fill-opacity:1;fill-rule:nonzero;stroke:none"
         d="m 6281.03,915.059 c -22.85,5.132 -32.91,28.382 -32.59,47.812 0.12,7.199 1.31,13.91 2.35,19.828 0.95,5.332 1.84,10.364 1.75,14.629 -0.51,26.532 -36.67,43.892 -66.91,53.792 -27.5,9 -91.91,30.07 -98.87,85.37 -1.43,11.31 0.02,22.19 1.28,31.79 1.39,10.56 2.6,19.68 -0.12,26.16 -5.68,13.48 -28.89,17.12 -53.12,19.05 -51.22,4.07 -84.3,25.41 -90.78,58.54 -1.57,8.06 -1.24,15.54 -0.95,22.13 0.2,4.66 0.4,9.05 -0.19,12.41 -2.43,13.83 -20.01,24.34 -38.63,33.65 l 17.87,35.78 c 18.84,-9.41 53.89,-26.91 60.16,-62.5 1.34,-7.68 1.03,-14.8 0.75,-21.09 -0.21,-4.79 -0.41,-9.32 0.25,-12.7 3.22,-16.48 30.36,-24.42 54.69,-26.34 24.78,-1.97 70.92,-5.64 86.82,-43.42 6.93,-16.47 4.79,-32.64 2.91,-46.91 -1.05,-7.9 -2.04,-15.36 -1.25,-21.55 3.36,-26.73 40.04,-42.02 71.63,-52.36 61.89,-20.25 93.68,-50.88 94.46,-91.028 0.16,-8.172 -1.18,-15.711 -2.35,-22.364 -0.87,-4.886 -1.68,-9.519 -1.75,-13.547 -0.07,-4.211 1.48,-7.761 2.37,-8.57 l -1.02,0.461 -8.76,-39.023" /><path
         id="path32"
         style="fill:#f4f4f4;fill-opacity:1;fill-rule:nonzero;stroke:none"
         d="M 209.23,6455.82 3894.5,7618.91 5377.86,2918.86 1692.6,1755.77 209.23,6455.82" /><path
         id="path34"
         style="fill:#52423b;fill-opacity:1;fill-rule:nonzero;stroke:none"
         d="M 662.633,6314.76 3616.27,7246.95 3771.91,6753.82 818.266,5821.63 662.633,6314.76" /><path
         id="path36"
         style="fill:#52423b;fill-opacity:1;fill-rule:nonzero;stroke:none"
         d="m 1248.01,4457.52 1412.17,445.69 155.64,-493.13 -1412.18,-445.69 -155.63,493.13" /><path
         id="path38"
         style="fill:#967e72;fill-opacity:1;fill-rule:nonzero;stroke:none"
         d="m 865.984,5670.43 2953.646,932.19 55.1,-174.6 -2953.64,-932.19 -55.106,174.6" /><path
         id="path40"
         style="fill:#967e72;fill-opacity:1;fill-rule:nonzero;stroke:none"
         d="m 974.426,5326.83 2953.644,932.19 55.1,-174.59 -2953.64,-932.19 -55.104,174.59" /><path
         id="path42"
         style="fill:#967e72;fill-opacity:1;fill-rule:nonzero;stroke:none"
         d="m 1082.87,4983.24 2953.64,932.19 55.1,-174.6 -2953.64,-932.19 -55.1,174.6" /><path
         id="path44"
         style="fill:#967e72;fill-opacity:1;fill-rule:nonzero;stroke:none"
         d="m 1775.07,3916 1083.2,341.87 55.1,-174.6 -1083.2,-341.86 -55.1,174.59" /><path
         id="path46"
         style="fill:#967e72;fill-opacity:1;fill-rule:nonzero;stroke:none"
         d="m 1872.88,3606.1 1083.19,341.86 55.11,-174.59 -1083.2,-341.86 -55.1,174.59" /><path
         id="path48"
         style="fill:#967e72;fill-opacity:1;fill-rule:nonzero;stroke:none"
         d="m 1970.69,3296.2 1083.19,341.86 55.1,-174.59 -1083.19,-341.87 -55.1,174.6" /><path
         id="path50"
         style="fill:#967e72;fill-opacity:1;fill-rule:nonzero;stroke:none"
         d="m 2068.49,2986.29 1083.2,341.87 55.1,-174.6 -1083.19,-341.86 -55.11,174.59" /><path
         id="path52"
         style="fill:#967e72;fill-opacity:1;fill-rule:nonzero;stroke:none"
         d="m 2166.3,2676.39 1083.2,341.87 55.1,-174.6 -1083.2,-341.86 -55.1,174.59" /><path
         id="path54"
         style="fill:#bfb290;fill-opacity:1;fill-rule:nonzero;stroke:none"
         d="m 1775.07,3916 782.94,247.1 55.1,-174.59 -782.94,-247.1 -55.1,174.59" /><path
         id="path56"
         style="fill:#bfb290;fill-opacity:1;fill-rule:nonzero;stroke:none"
         d="m 1872.88,3606.1 655.74,206.96 55.11,-174.6 -655.75,-206.95 -55.1,174.59" /><path
         id="path58"
         style="fill:#bfb290;fill-opacity:1;fill-rule:nonzero;stroke:none"
         d="m 1970.69,3296.2 797.61,251.73 55.1,-174.6 -797.61,-251.73 -55.1,174.6" /><path
         id="path60"
         style="fill:#bfb290;fill-opacity:1;fill-rule:nonzero;stroke:none"
         d="m 2068.49,2986.29 900.34,284.16 55.11,-174.6 -900.34,-284.15 -55.11,174.59" /><path
         id="path62"
         style="fill:#bfb290;fill-opacity:1;fill-rule:nonzero;stroke:none"
         d="m 2166.3,2676.39 641.07,202.33 55.1,-174.6 -641.07,-202.32 -55.1,174.59" /><path
         id="path64"
         style="fill:#c3846d;fill-opacity:1;fill-rule:nonzero;stroke:none"
         d="m 1476.92,3725.91 c -15.22,48.21 11.53,99.63 59.74,114.85 48.22,15.22 99.64,-11.53 114.85,-59.74 15.22,-48.22 -11.53,-99.64 -59.74,-114.85 -48.22,-15.22 -99.64,11.53 -114.85,59.74" /><path
         id="path66"
         style="fill:#c3846d;fill-opacity:1;fill-rule:nonzero;stroke:none"
         d="m 1574.73,3416.01 c -15.22,48.21 11.53,99.63 59.74,114.85 48.21,15.21 99.63,-11.54 114.85,-59.75 15.22,-48.21 -11.53,-99.63 -59.75,-114.85 -48.21,-15.21 -99.63,11.54 -114.84,59.75" /><path
         id="path68"
         style="fill:#c3846d;fill-opacity:1;fill-rule:nonzero;stroke:none"
         d="m 1672.53,3106.11 c -15.21,48.21 11.54,99.63 59.75,114.84 48.21,15.22 99.63,-11.53 114.85,-59.74 15.21,-48.21 -11.54,-99.63 -59.75,-114.85 -48.21,-15.22 -99.63,11.53 -114.85,59.75" /><path
         id="path70"
         style="fill:#c3846d;fill-opacity:1;fill-rule:nonzero;stroke:none"
         d="m 1770.34,2796.2 c -15.22,48.21 11.53,99.63 59.75,114.85 48.21,15.22 99.63,-11.53 114.84,-59.74 15.22,-48.22 -11.53,-99.64 -59.74,-114.85 -48.21,-15.22 -99.63,11.53 -114.85,59.74" /><path
         id="path72"
         style="fill:#c3846d;fill-opacity:1;fill-rule:nonzero;stroke:none"
         d="m 1868.15,2486.3 c -15.22,48.21 11.53,99.63 59.74,114.85 48.22,15.21 99.64,-11.54 114.85,-59.75 15.22,-48.21 -11.53,-99.63 -59.74,-114.85 -48.22,-15.21 -99.64,11.54 -114.85,59.75" /><path
         id="path74"
         style="fill:#967e72;fill-opacity:1;fill-rule:nonzero;stroke:none"
         d="m 3168.24,4419.13 c -116.35,368.67 88.19,761.87 456.86,878.22 368.68,116.36 761.87,-88.18 878.23,-456.86 116.35,-368.67 -88.19,-761.87 -456.87,-878.22 -368.67,-116.36 -761.86,88.19 -878.22,456.86" /><path
         id="path76"
         style="fill:#c3846d;fill-opacity:1;fill-rule:nonzero;stroke:none"
         d="m 4503.33,4840.49 c -55.48,175.78 -173.96,314.12 -322.64,398.28 l -344.91,-608.96 210.68,-667.54 c 368.68,116.35 573.22,509.55 456.87,878.22" /><path
         id="path78"
         style="fill:#bfb290;fill-opacity:1;fill-rule:nonzero;stroke:none"
         d="m 3835.78,4629.81 400.9,573.68 c -172.1,120.08 -395.99,161.91 -611.58,93.86 -128.66,-40.6 -237.24,-114.99 -319.26,-210.22 l 529.94,-457.32" /><path
         id="path80"
         style="fill:#ed1c24;fill-opacity:1;fill-rule:nonzero;stroke:none"
         d="m 1490.27,5571.15 c -3.09,51.54 -1.17,97.89 3.11,141.44 4.35,43.55 11.07,84.37 19.66,125.1 8.6,40.73 19.36,81.39 33.25,124.21 13.85,42.81 31.13,87.81 54.87,136.13 4.14,8.13 8.47,17.76 14.84,28.67 3.05,5.52 6.36,11.49 9.95,17.99 3.91,6.32 8.12,13.14 12.7,20.55 18.72,29.25 44.96,66.95 87.52,111.53 18.75,18.55 39.27,38.65 63.38,57.38 11.61,9.92 24.73,18.64 37.64,28.32 13.58,8.73 27.1,18.33 41.91,26.57 14.39,8.96 29.96,16.56 45.53,24.84 16.07,7.3 32.21,15.21 49.33,21.62 33.93,13.37 69.93,25.12 107.44,33.01 74.82,16.3 155.21,20.97 233.78,10.25 78.53,-10.33 155.11,-34.21 222.56,-68.88 67.52,-34.53 126.3,-78.45 172.88,-125.25 47.04,-46.5 82,-95.45 107.28,-138.75 25.42,-43.34 40.86,-81.26 51.04,-107.57 4.6,-13.36 8.18,-23.74 10.61,-30.79 2.09,-7.15 3.19,-10.91 3.19,-10.91 0,0 0.9,-3.16 2.63,-9.18 1.7,-6.03 4.51,-14.85 6.98,-26.52 1.36,-5.81 2.87,-12.27 4.52,-19.35 1.6,-7.08 2.75,-14.9 4.33,-23.24 0.77,-4.18 1.55,-8.51 2.37,-12.97 0.58,-4.5 1.18,-9.15 1.8,-13.93 1.12,-9.57 2.87,-19.65 3.43,-30.37 3.88,-42.68 4.1,-94.2 -3.39,-150.97 -4.01,-28.32 -9.42,-58.03 -17.97,-88.19 -3.74,-15.23 -9.13,-30.29 -14,-45.77 -5.83,-15.16 -11.15,-30.8 -18.15,-46.01 -6.31,-15.51 -14.17,-30.56 -21.69,-45.96 -8.3,-15.01 -16.46,-30.31 -25.95,-45.02 -18.62,-29.58 -39.29,-58.69 -62.95,-85.69 -23.55,-27.06 -49.32,-52.58 -76.9,-76.02 -27.6,-23.43 -57.4,-44.16 -88.11,-62.77 -30.66,-18.75 -62.87,-34.36 -95.44,-47.49 -16.16,-6.92 -32.79,-12.24 -49.1,-17.91 -8.23,-2.6 -16.53,-4.8 -24.72,-7.22 -8.16,-2.54 -16.4,-4.56 -24.63,-6.37 -65.53,-16.09 -129.76,-20.49 -187.66,-18.43 -82.18,3.87 -147.34,20.8 -197.05,37.82 -49.61,17.76 -84.43,35.24 -107.57,48.33 -47.18,25.94 -87.16,52.87 -123.08,79.98 -35.96,27.09 -68.11,54.2 -98.53,82.62 -30.42,28.42 -59.34,57.99 -87.91,91.15 -28.5,33.2 -56.68,70.05 -83.73,114.02 3.28,-51.49 11.93,-99.48 25.4,-145.08 13.52,-45.58 31.87,-88.85 56.1,-130.65 24.23,-41.81 54.62,-82.03 93.04,-120.57 38.37,-38.53 85.08,-75.26 142.63,-107.68 28.26,-16.26 70.82,-38.04 131.7,-59.97 60.97,-21.13 141.07,-42.11 242.3,-46.9 71.31,-2.72 150.51,2.82 230.98,22.51 10.11,2.26 20.21,4.76 30.22,7.82 10.04,2.94 20.21,5.69 30.29,8.88 20.02,6.87 40.35,13.51 60.23,21.95 39.99,16.14 79.6,35.42 117.39,58.47 37.83,22.91 74.48,48.55 108.46,77.4 33.96,28.86 65.65,60.28 94.56,93.61 29.01,33.26 54.47,68.97 77.26,105.34 11.58,18.1 21.68,36.85 31.77,55.32 9.31,18.88 18.8,37.43 26.61,56.45 8.49,18.71 15.15,37.87 22.18,56.53 6.07,18.99 12.51,37.54 17.17,56.23 10.39,37.09 17.1,73.61 21.94,108.45 9.17,69.84 8.76,133.28 3.92,185.76 -0.79,13.18 -2.82,25.57 -4.26,37.34 -0.78,5.87 -1.55,11.58 -2.29,17.1 -0.99,5.49 -1.95,10.8 -2.88,15.93 -1.93,10.25 -3.44,19.84 -5.39,28.53 -2.03,8.68 -3.88,16.6 -5.55,23.72 -3.13,14.3 -6.5,25.11 -8.6,32.48 -2.13,7.37 -3.25,11.23 -3.25,11.23 0,0 -1.35,4.6 -3.92,13.35 -2.95,8.63 -7.31,21.34 -12.92,37.71 -12.34,32.28 -31.28,78.84 -62.46,132.22 -31.01,53.31 -74.02,113.6 -131.76,170.88 -57.25,57.59 -129.31,111.66 -212.2,154.1 -82.77,42.59 -176.78,72.14 -273.46,84.88 -96.69,13.18 -195.87,7.6 -287.81,-12.48 -46.09,-9.76 -90.12,-24.01 -131.8,-40.46 -20.97,-7.95 -40.89,-17.55 -60.59,-26.65 -19.22,-10.07 -38.3,-19.59 -56.06,-30.55 -18.19,-10.24 -34.93,-21.93 -51.57,-32.8 -15.98,-11.83 -32.01,-22.75 -46.36,-34.89 -29.6,-23.19 -54.93,-47.83 -77.86,-70.79 -52.32,-54.85 -84.42,-101.25 -107.26,-137.25 -5.57,-9.12 -10.69,-17.52 -15.44,-25.3 -4.38,-7.99 -8.41,-15.33 -12.14,-22.12 -7.65,-13.47 -12.97,-25.28 -17.92,-35.31 -28.51,-59.58 -45.67,-116.46 -54.97,-170.04 -9.34,-53.6 -11.13,-103.98 -6.97,-152.12 4.14,-48.14 13.96,-94.1 29.05,-139.19 15.15,-45.07 35.61,-89.34 62.49,-133.39" /><path
         id="path82"
         style="fill:#ed1c24;fill-opacity:1;fill-rule:nonzero;stroke:none"
         d="m 1766.78,5736.2 c 78.48,-67.02 145.12,-121.75 218.89,-173.23 36.88,-25.75 75.55,-50.68 118.36,-75.94 21.41,-12.62 43.85,-25.33 67.63,-38.26 11.94,-6.37 24.17,-12.89 36.71,-19.58 6.51,-3.38 13.1,-6.79 19.79,-10.26 13.02,-6.57 26.22,-13.23 39.59,-19.97 12.35,-6.19 26.02,-13.03 74.21,-37.15 10.45,8.26 22.53,17.8 55.43,43.8 12.63,9.89 26.68,20.9 55.7,43.63 -0.32,17.5 -0.66,35.72 -1.05,57.11 0.03,10.58 -0.91,22.44 -0.14,34.51 0.62,6.66 1.29,13.9 2.03,21.87 0.65,6.76 1.41,14.68 2.24,23.36 0.93,8.71 2.56,18.32 3.88,28.24 1.38,9.94 2.82,20.25 4.25,30.53 1.53,10.29 3.77,20.63 5.51,30.5 3.82,19.75 6.72,37.81 9.69,50.91 3.03,13.11 4.92,21.27 4.92,21.27 0,0 1.66,6.82 4.39,17.98 2.84,11.16 6.2,26.71 10.95,44.08 4.96,17.35 10.45,36.58 15.78,55.24 5.31,18.67 10.19,36.81 15.32,51.76 6.89,21.24 13.45,41.46 19.69,60.7 3.12,9.62 6.16,19 9.11,28.13 3.29,9.07 6.48,17.89 9.6,26.48 12.53,34.33 23.68,64.87 33.52,91.84 21.47,53.49 37.26,92.85 48.09,119.85 2.71,6.84 5.39,13.59 8.02,20.26 2.81,6.61 5.58,13.14 8.31,19.59 5.34,12.95 10.54,25.56 15.63,37.89 9.96,24.75 19.05,48.5 27.4,71.57 8.37,23.08 16.43,45.29 24.3,66.96 7.68,21.74 14.76,43.11 21.37,64.41 6.62,21.29 12.77,42.51 18.62,63.95 6.21,21.27 12.47,42.6 18.38,64.54 11.92,43.83 23.23,89.71 35.25,140.05 -33.99,-38.6 -65,-74.52 -94.12,-110.02 -14.52,-17.78 -28.75,-35.35 -42.31,-53.28 -13.22,-18.13 -26.1,-36.45 -38.8,-55.25 -12.69,-18.8 -25.2,-38.07 -37.64,-58.12 -12.41,-20.06 -25.08,-40.72 -36.6,-63.12 -11.79,-22.24 -23.64,-45.56 -35.66,-70.26 -5.91,-12.4 -11.96,-25.09 -18.17,-38.11 -3.03,-6.55 -6.09,-13.19 -9.19,-19.91 -2.85,-6.86 -5.74,-13.8 -8.67,-20.84 -11.41,-27.91 -28.33,-68.44 -50.49,-123.93 -10.34,-28.13 -22.05,-59.97 -35.2,-95.76 -3.26,-8.96 -6.61,-18.17 -10.05,-27.63 -3.13,-9.61 -6.34,-19.48 -9.64,-29.6 -6.59,-20.25 -13.52,-41.53 -20.79,-63.88 -5.46,-15.62 -10.71,-34.98 -16.29,-54.87 -5.53,-19.9 -11.24,-40.41 -16.39,-58.91 -4.9,-18.61 -8.43,-35.56 -11.33,-47.6 -2.79,-12.08 -4.49,-19.46 -4.49,-19.46 0,0 -2.13,-8.78 -5.56,-22.89 -3.36,-14.14 -6.87,-34.1 -11.2,-55.74 -2.01,-10.89 -4.48,-22.08 -6.27,-33.61 -1.67,-11.58 -3.34,-23.19 -4.95,-34.38 -1.53,-11.23 -3.27,-21.9 -4.32,-31.96 -0.88,-10.13 -1.69,-19.37 -2.37,-27.25 -0.57,-6.38 -1.08,-12.17 -1.56,-17.49 l 0.04,0.15 0.05,0.11 0.09,0.14 0.22,-0.26 0.03,-0.12 -0.08,-0.17 c -6.37,3.05 -12.66,6.06 -18.86,9.03 -12.89,6 -25.45,11.85 -37.72,17.57 -24.62,11.23 -48.27,21.52 -71.23,31.04 -45.92,19.04 -89.09,34.95 -131.84,48.95 -85.48,28.01 -169.28,48.37 -270.01,70.81" /><path
         id="path84"
         style="fill:#f9ab60;fill-opacity:1;fill-rule:nonzero;stroke:none"
         d="M 3581.14,4600.6 2717,4355.23 l 50.25,-779.42 236.49,-95.5 702.51,344.53 -125.11,775.76" /><path
         id="path86"
         style="fill:#fbfbfb;fill-opacity:1;fill-rule:nonzero;stroke:none"
         d="M 3351.8,7099.12 H 7216.25 V 2170.55 H 3351.8 v 4928.57" /><path
         id="path88"
         style="fill:#705799;fill-opacity:1;fill-rule:nonzero;stroke:none"
         d="m 5045.21,5257.02 c -20.29,385.58 -429.07,505.9 -429.07,505.9 l -238.96,-32.62 h -19.27 l -238.96,32.62 c 0,0 -408.77,-120.32 -429.07,-505.9 0,0 257.72,-166.93 677.67,-148 419.94,-18.93 677.66,148 677.66,148" /><path
         id="path90"
         style="fill:#ffffff;fill-opacity:1;fill-rule:nonzero;stroke:none"
         d="m 4648.82,5729.58 c -40.77,18.54 -32.68,33.34 -32.68,33.34 l -238.96,-32.62 h -19.27 l -238.96,32.62 c 0,0 21.52,-6.48 -14.86,-22.51 l 96.58,-475.29 60.37,-156.96 c 34.24,-0.96 69.71,-0.8 106.51,0.86 44.07,-1.99 86.25,-1.83 126.64,-0.13 l 154.63,620.69" /><path
         id="path92"
         style="fill:#f6ef71;fill-opacity:1;fill-rule:nonzero;stroke:none"
         d="m 4172.58,5767.81 c 0,0 116.99,-209.28 185.33,-209.28 68.34,0 185.76,156.28 185.76,156.28 l 140.6,148.12 -179.74,104.37 -431.97,-55.08 100.02,-144.41" /><path
         id="path94"
         style="fill:#fff985;fill-opacity:1;fill-rule:nonzero;stroke:none"
         d="m 4087.06,5982.52 c 0,0 128.74,-241.34 270.85,-252.22 198.8,-15.22 290.12,217.43 290.12,217.43 l 95.68,439.22 -328.33,182.64 -302.23,-226.13 -113.06,-104.37 86.97,-256.57" /><path
         id="path96"
         style="fill:#967e72;fill-opacity:1;fill-rule:nonzero;stroke:none"
         d="m 4601.65,5729.58 -11.24,29.82 25.73,3.52 c 0,0 1.79,-0.53 5.07,-1.61 57.52,-100.37 127.33,-230.2 154.39,-312.95 5.79,-31.89 -113.07,23.2 -113.07,23.2 0,0 78.28,-107.27 72.48,-182.65 -3.06,-39.71 -89.78,-113.99 -171.17,-175.42 -50.63,-4.65 -104.61,-6.92 -161.91,-5.67 57.99,140.88 156.19,398.19 199.72,621.76" /><path
         id="path98"
         style="fill:#967e72;fill-opacity:1;fill-rule:nonzero;stroke:none"
         d="m 4133.44,5729.58 11.25,29.82 -25.74,3.52 c 0,0 -1.79,-0.53 -5.07,-1.61 -57.51,-100.37 -127.33,-230.2 -154.38,-312.95 -5.8,-31.89 113.06,23.2 113.06,23.2 0,0 -78.27,-107.27 -72.47,-182.65 3.05,-39.71 89.77,-113.99 171.17,-175.42 50.63,-4.65 104.6,-6.92 161.9,-5.67 -57.98,140.88 -156.18,398.19 -199.72,621.76" /><path
         id="path100"
         style="fill:#52423b;fill-opacity:1;fill-rule:nonzero;stroke:none"
         d="m 4456.69,6380.42 c 0,0 -208.73,-208.73 -356.58,-243.52 0,0 69.57,-321.8 73.92,-382.68 4.35,-60.88 -243.52,-43.49 -265.27,0 -21.74,43.48 -147.85,974.09 521.84,974.09 417.47,-30.44 430.52,-752.31 378.33,-982.79 -39.13,-73.93 -213.08,-35.33 -265.26,-30.71 -52.19,4.62 132.6,88.62 106.5,414.77 0,0 -97.81,172.57 -193.48,250.84" /><path
         id="path102"
         style="fill:#52423b;fill-opacity:1;fill-rule:nonzero;stroke:none"
         d="m 5253.83,6828.14 h 1585.15 v -517.1 H 5253.83 v 517.1" /><path
         id="path104"
         style="fill:#52423b;fill-opacity:1;fill-rule:nonzero;stroke:none"
         d="M 3741.73,4893.39 H 6850.17 V 4376.28 H 3741.73 v 517.11" /><path
         id="path106"
         style="fill:#967e72;fill-opacity:1;fill-rule:nonzero;stroke:none"
         d="M 5253.83,6152.48 H 6838.98 V 5969.4 H 5253.83 v 183.08" /><path
         id="path108"
         style="fill:#967e72;fill-opacity:1;fill-rule:nonzero;stroke:none"
         d="M 5253.83,5792.18 H 6838.98 V 5609.1 H 5253.83 v 183.08" /><path
         id="path110"
         style="fill:#967e72;fill-opacity:1;fill-rule:nonzero;stroke:none"
         d="M 5253.83,5431.88 H 6838.98 V 5248.8 H 5253.83 v 183.08" /><path
         id="path112"
         style="fill:#967e72;fill-opacity:1;fill-rule:nonzero;stroke:none"
         d="M 3740.31,4218.34 H 6838.98 V 4035.26 H 3740.31 v 183.08" /><path
         id="path114"
         style="fill:#967e72;fill-opacity:1;fill-rule:nonzero;stroke:none"
         d="M 3740.31,3893.37 H 6838.98 V 3710.29 H 3740.31 v 183.08" /><path
         id="path116"
         style="fill:#967e72;fill-opacity:1;fill-rule:nonzero;stroke:none"
         d="M 3740.31,3568.4 H 6838.98 V 3385.32 H 3740.31 v 183.08" /><path
         id="path118"
         style="fill:#967e72;fill-opacity:1;fill-rule:nonzero;stroke:none"
         d="M 3740.31,3243.43 H 6838.98 V 3060.35 H 3740.31 v 183.08" /><path
         id="path120"
         style="fill:#967e72;fill-opacity:1;fill-rule:nonzero;stroke:none"
         d="M 3740.31,2918.46 H 6838.98 V 2735.38 H 3740.31 v 183.08" /><path
         id="path122"
         style="fill:#ffffff;fill-opacity:1;fill-rule:nonzero;stroke:none"
         d="m 5436.32,6477.69 c -4.11,-1.95 -12.11,-3.46 -22.06,-3.46 -37.18,0 -54.91,30.7 -54.91,72 0,54.92 30.48,76.33 58.81,76.33 9.94,0 16.86,-1.95 19.67,-3.9 l -4.75,-23.77 c -3.25,1.51 -6.92,2.8 -13.19,2.8 -16,0 -30.49,-13.84 -30.49,-49.94 0,-34.82 13.19,-48.44 30.49,-48.44 4.75,0 10.16,1.08 13.62,2.17 l 2.81,-23.79" /><path
         id="path124"
         style="fill:#ffffff;fill-opacity:1;fill-rule:nonzero;stroke:none"
         d="m 5479.34,6621.26 v -94.7 c 0,-21.41 6.49,-27.9 13.84,-27.9 8.22,0 14.06,5.84 14.06,27.9 v 94.7 h 28.32 v -89.73 c 0,-37.41 -14.06,-57.73 -42.16,-57.73 -30.49,0 -42.38,20.98 -42.38,57.51 v 89.95 h 28.32" /><path
         id="path126"
         style="fill:#ffffff;fill-opacity:1;fill-rule:nonzero;stroke:none"
         d="m 5588.31,6555.53 h 4.97 c 12.33,0 19.46,9.94 19.46,22.7 0,12.33 -4.97,21.2 -17.73,21.63 -2.37,0 -5.19,-0.22 -6.7,-0.87 z m -28.33,63.56 c 8.87,1.73 20.12,2.82 30.93,2.82 15.56,0 29.4,-2.16 38.91,-10.81 8.87,-8 11.47,-17.73 11.47,-30.28 0,-15.56 -7.57,-29.62 -22.49,-36.53 v -0.44 c 9.94,-3.89 14.92,-13.18 17.72,-28.75 2.82,-16.22 6.71,-34.16 9.3,-39.57 h -29.62 c -1.73,4.11 -4.97,18.81 -7.13,34.81 -2.6,18.16 -7.14,23.35 -16.65,23.35 h -4.11 v -58.16 h -28.33 v 143.56" /><path
         id="path128"
         style="fill:#ffffff;fill-opacity:1;fill-rule:nonzero;stroke:none"
         d="m 5689.93,6555.53 h 4.97 c 12.33,0 19.46,9.94 19.46,22.7 0,12.33 -4.98,21.2 -17.73,21.63 -2.38,0 -5.18,-0.22 -6.7,-0.87 z m -28.33,63.56 c 8.87,1.73 20.11,2.82 30.92,2.82 15.57,0 29.4,-2.16 38.93,-10.81 8.85,-8 11.45,-17.73 11.45,-30.28 0,-15.56 -7.57,-29.62 -22.49,-36.53 v -0.44 c 9.95,-3.89 14.92,-13.18 17.73,-28.75 2.82,-16.22 6.7,-34.16 9.3,-39.57 h -29.62 c -1.73,4.11 -4.98,18.81 -7.14,34.81 -2.59,18.16 -7.14,23.35 -16.65,23.35 h -4.1 v -58.16 h -28.33 v 143.56" /><path
         id="path130"
         style="fill:#ffffff;fill-opacity:1;fill-rule:nonzero;stroke:none"
         d="m 5791.54,6621.26 v -145.73 h -28.33 v 145.73 h 28.33" /><path
         id="path132"
         style="fill:#ffffff;fill-opacity:1;fill-rule:nonzero;stroke:none"
         d="m 5886.68,6477.69 c -4.11,-1.95 -12.11,-3.46 -22.06,-3.46 -37.19,0 -54.91,30.7 -54.91,72 0,54.92 30.48,76.33 58.81,76.33 9.94,0 16.86,-1.95 19.67,-3.9 l -4.76,-23.77 c -3.24,1.51 -6.92,2.8 -13.19,2.8 -16,0 -30.48,-13.84 -30.48,-49.94 0,-34.82 13.19,-48.44 30.48,-48.44 4.76,0 10.16,1.08 13.63,2.17 l 2.81,-23.79" /><path
         id="path134"
         style="fill:#ffffff;fill-opacity:1;fill-rule:nonzero;stroke:none"
         d="m 5929.7,6621.26 v -94.7 c 0,-21.41 6.48,-27.9 13.84,-27.9 8.21,0 14.05,5.84 14.05,27.9 v 94.7 h 28.33 v -89.73 c 0,-37.41 -14.06,-57.73 -42.17,-57.73 -30.49,0 -42.37,20.98 -42.37,57.51 v 89.95 h 28.32" /><path
         id="path136"
         style="fill:#ffffff;fill-opacity:1;fill-rule:nonzero;stroke:none"
         d="m 6010.33,6621.26 h 28.33 v -121.73 h 37.4 v -24 h -65.73 v 145.73" /><path
         id="path138"
         style="fill:#ffffff;fill-opacity:1;fill-rule:nonzero;stroke:none"
         d="m 6115.63,6621.26 v -94.7 c 0,-21.41 6.49,-27.9 13.84,-27.9 8.22,0 14.06,5.84 14.06,27.9 v 94.7 h 28.33 v -89.73 c 0,-37.41 -14.07,-57.73 -42.17,-57.73 -30.49,0 -42.38,20.98 -42.38,57.51 v 89.95 h 28.32" /><path
         id="path140"
         style="fill:#ffffff;fill-opacity:1;fill-rule:nonzero;stroke:none"
         d="m 6285.35,6526.56 c -0.64,13.83 -1.73,32.64 -1.3,48.22 h -0.64 c -2.6,-15.58 -6.49,-33.52 -9.3,-44.77 l -12.54,-52.1 h -20.11 l -12.1,51.24 c -2.82,11.67 -6.71,29.84 -8.87,45.63 h -0.66 c -0.43,-15.79 -1.29,-34.17 -2.15,-48.65 l -2.38,-50.6 h -24.43 l 10.59,145.73 h 29.84 l 11.68,-52.76 c 4.1,-18.37 7.78,-34.59 10.37,-51.03 h 0.44 c 2.16,16.22 5.4,32.66 9.3,51.03 l 11.45,52.76 h 29.84 l 8.86,-145.73 h -25.29 l -2.6,51.03" /><path
         id="path142"
         style="fill:#ffffff;fill-opacity:1;fill-rule:nonzero;stroke:none"
         d="m 6386.32,6475.53 -32.65,145.73 h 31.36 l 10.37,-62.92 c 2.6,-15.56 5.63,-33.51 7.57,-50.59 h 0.43 c 1.95,17.29 4.32,34.81 6.92,51.24 l 9.94,62.27 h 31.15 l -33.3,-145.73 h -31.79" /><path
         id="path144"
         style="fill:#ffffff;fill-opacity:1;fill-rule:nonzero;stroke:none"
         d="m 6492.05,6621.26 v -145.73 h -28.33 v 145.73 h 28.33" /><path
         id="path146"
         style="fill:#ffffff;fill-opacity:1;fill-rule:nonzero;stroke:none"
         d="m 6533.12,6595.1 h -25.73 v 26.16 h 80 v -26.16 h -25.94 v -119.57 h -28.33 v 119.57" /><path
         id="path148"
         style="fill:#ffffff;fill-opacity:1;fill-rule:nonzero;stroke:none"
         d="m 6641.66,6530.88 -4.77,30.49 c -1.51,8.87 -3.45,23.35 -4.75,33.08 h -0.65 c -1.51,-9.73 -3.67,-24.87 -5.18,-33.3 l -5.41,-30.27 z m -23.57,-22.05 -6.49,-33.3 h -27.46 l 31.57,145.73 h 33.95 l 28.32,-145.73 h -27.46 l -6.27,33.3 h -26.16" /><path
         id="path150"
         style="fill:#ffffff;fill-opacity:1;fill-rule:nonzero;stroke:none"
         d="m 6755.6,6539.53 h -33.3 v -39.35 h 37.62 v -24.65 h -65.95 v 145.73 h 63.35 v -24.65 h -35.02 v -33.51 h 33.3 v -23.57" /><path
         id="path152"
         style="fill:#ed1c24;fill-opacity:1;fill-rule:nonzero;stroke:none"
         d="m 4784.7,3878.66 c 12.56,50.08 28.35,93.71 45.53,133.95 17.26,40.22 35.95,77.12 56.41,113.38 20.45,36.26 42.96,71.78 69.08,108.44 26.1,36.66 56.12,74.37 93.3,113.31 6.4,6.5 13.42,14.39 22.78,22.87 4.58,4.35 9.53,9.05 14.91,14.16 5.62,4.85 11.7,10.09 18.29,15.77 26.66,22.27 63.03,50.32 117.04,80.02 23.46,12.05 49.07,25.04 77.7,35.65 14.06,5.97 29.2,10.33 44.42,15.68 15.58,4.24 31.36,9.32 47.97,12.72 16.41,4.21 33.55,6.77 50.89,9.98 17.52,2.13 35.29,4.82 53.55,5.78 36.38,2.54 74.25,2.91 112.39,-0.86 76.26,-6.98 154.33,-26.72 226.04,-60.59 71.77,-33.48 137.61,-79.31 191.5,-132.66 54,-53.26 96.83,-112.83 127.17,-171.49 30.86,-58.5 49.47,-115.7 60.54,-164.6 11.2,-48.98 14.51,-89.79 16.3,-117.94 0.37,-14.13 0.66,-25.11 0.85,-32.56 -0.16,-7.45 -0.24,-11.37 -0.24,-11.37 0,0 -0.09,-3.28 -0.26,-9.54 -0.19,-6.26 -0.16,-15.52 -1.32,-27.39 -0.45,-5.95 -0.96,-12.57 -1.51,-19.81 -0.61,-7.24 -1.87,-15.04 -2.87,-23.48 -0.53,-4.21 -1.08,-8.57 -1.65,-13.07 -0.8,-4.47 -1.62,-9.08 -2.47,-13.83 -1.81,-9.46 -3.18,-19.6 -5.87,-29.99 -9.15,-41.87 -24.44,-91.07 -48.67,-142.95 -12.34,-25.8 -26.45,-52.5 -43.68,-78.69 -8.15,-13.4 -17.82,-26.14 -27.12,-39.44 -10.12,-12.69 -19.9,-26.02 -31.16,-38.41 -10.69,-12.89 -22.71,-24.88 -34.52,-37.3 -12.43,-11.81 -24.82,-23.96 -38.29,-35.13 -26.66,-22.6 -55.14,-44.14 -85.83,-62.76 -30.6,-18.73 -62.86,-35.3 -96.21,-49.35 -33.37,-14.04 -68.04,-24.84 -102.92,-33.35 -34.88,-8.65 -70.29,-13.84 -105.31,-16.56 -17.49,-1.74 -34.95,-1.8 -52.21,-2.3 -8.63,-0.01 -17.21,0.4 -25.75,0.55 -8.54,0.04 -17,0.59 -25.4,1.34 -67.33,4.38 -129.91,19.52 -184.51,38.91 -77.2,28.42 -134.25,64.18 -176.53,95.37 -41.96,31.87 -69.91,59.02 -88.03,78.46 -37.19,38.94 -67.21,76.66 -93.31,113.32 -26.13,36.66 -48.63,72.19 -69.09,108.44 -20.45,36.27 -39.14,73.17 -56.4,113.39 -17.18,40.23 -32.97,83.85 -45.53,133.93 -12.37,-50.09 -18.56,-98.46 -19.45,-145.99 -0.82,-47.54 3.65,-94.33 14.19,-141.49 10.52,-47.16 27.39,-94.66 52.43,-142.97 24.99,-48.3 58.49,-97.38 103.61,-145.62 22.05,-24.01 56.08,-57.59 107.54,-96.83 51.78,-38.5 121.86,-82.62 216.95,-117.65 67.18,-24.06 144.38,-42.61 227.05,-48.05 10.31,-0.89 20.7,-1.54 31.17,-1.64 10.46,-0.22 20.98,-0.66 31.56,-0.65 21.16,0.52 42.54,0.74 64.04,2.8 43,3.36 86.57,9.83 129.54,20.44 42.97,10.45 85.65,23.88 126.74,41.16 41.06,17.3 80.74,37.73 118.34,60.81 37.68,22.98 72.7,49.38 105.39,77.2 16.49,13.78 31.76,28.62 46.94,43.2 14.56,15.2 29.2,30.03 42.36,45.81 13.74,15.3 25.86,31.57 38.17,47.24 11.51,16.29 23.23,32.03 33.31,48.46 21.06,32.24 38.45,65.04 53.55,96.82 29.77,63.84 48.47,124.46 59.66,175.97 3.2,12.8 4.99,25.23 7.17,36.88 1.02,5.84 2,11.51 2.96,17 0.71,5.54 1.39,10.89 2.05,16.06 1.24,10.35 2.68,19.95 3.45,28.83 0.67,8.89 1.29,17 1.84,24.29 1.32,14.58 1.35,25.9 1.57,33.56 0.19,7.67 0.29,11.68 0.29,11.68 0,0 0.09,4.8 0.28,13.92 -0.22,9.11 -0.55,22.56 -0.98,39.85 -2.05,34.5 -6.1,84.6 -19.76,144.88 -13.53,60.18 -36.41,130.62 -74.23,202.62 -37.26,72.15 -89.71,145.4 -155.97,210.82 -66.12,65.53 -146.88,122.01 -235.24,163.25 -88.24,41.67 -184.5,66.21 -278.22,74.73 -46.89,4.56 -93.16,4.22 -137.86,1.07 -22.4,-1.26 -44.29,-4.42 -65.81,-7.17 -21.36,-3.82 -42.42,-7.15 -62.66,-12.26 -20.42,-4.29 -39.91,-10.4 -59.05,-15.76 -18.79,-6.48 -37.37,-12.06 -54.71,-19.32 -35.2,-13.21 -66.77,-29.08 -95.55,-44.08 -66.41,-36.56 -110.98,-71.14 -143.6,-98.6 -8.05,-7.02 -15.47,-13.49 -22.34,-19.48 -6.58,-6.3 -12.63,-12.09 -18.23,-17.44 -11.35,-10.54 -19.98,-20.2 -27.72,-28.28 -45.11,-48.23 -78.6,-97.31 -103.6,-145.61 -25.04,-48.31 -41.9,-95.8 -52.43,-142.96 -10.53,-47.16 -15.01,-93.95 -14.18,-141.49 0.88,-47.54 7.07,-95.91 19.44,-146.01" /><path
         id="path154"
         style="fill:#ed1c24;fill-opacity:1;fill-rule:nonzero;stroke:none"
         d="m 5098.06,3952.83 c 54.67,-87.53 101.75,-159.78 156.6,-231.07 27.43,-35.66 56.8,-71.07 90.03,-108.04 16.61,-18.49 34.19,-37.36 52.97,-56.85 9.47,-9.67 19.17,-19.56 29.11,-29.72 5.2,-5.18 10.46,-10.42 15.79,-15.73 10.44,-10.19 21.02,-20.51 31.75,-30.97 9.91,-9.61 20.89,-20.25 59.58,-57.76 12.45,4.73 26.85,10.2 66.05,25.08 15.02,5.64 31.73,11.9 66.24,24.85 4.96,16.78 10.13,34.26 16.19,54.78 3.21,10.08 5.89,21.67 10.25,32.95 2.6,6.16 5.42,12.86 8.53,20.25 2.65,6.25 5.75,13.57 9.16,21.6 3.51,8.03 7.95,16.7 12.2,25.76 4.31,9.06 8.78,18.46 13.24,27.83 4.56,9.36 9.8,18.54 14.44,27.43 9.58,17.69 17.78,34.03 24.56,45.64 6.84,11.58 11.09,18.8 11.09,18.8 0,0 3.64,6 9.6,15.83 6.06,9.78 13.96,23.6 23.71,38.73 9.95,15.06 20.98,31.75 31.68,47.94 10.68,16.2 20.79,32.03 30.18,44.75 12.96,18.17 25.31,35.49 37.05,51.95 5.87,8.24 11.58,16.27 17.15,24.09 5.87,7.65 11.57,15.11 17.12,22.36 22.28,28.96 42.11,54.73 59.62,77.5 36.56,44.54 63.47,77.32 81.93,99.81 4.64,5.71 9.22,11.35 13.75,16.91 4.66,5.46 9.27,10.85 13.81,16.17 8.99,10.75 17.75,21.22 26.31,31.44 16.95,20.6 32.76,40.51 47.67,60 14.93,19.49 29.3,38.25 43.32,56.54 13.88,18.43 27.06,36.68 39.77,54.99 12.72,18.32 24.98,36.7 37,55.39 12.33,18.41 24.72,36.87 36.96,56.01 24.55,38.21 49.15,78.56 75.76,122.95 -44.03,-26.58 -84.41,-51.51 -122.86,-76.6 -19.2,-12.58 -38.06,-25.05 -56.39,-38.07 -18.06,-13.31 -35.86,-26.9 -53.63,-41.01 -17.76,-14.1 -35.48,-28.72 -53.38,-44.09 -17.87,-15.4 -36.17,-31.29 -53.9,-49.18 -17.94,-17.66 -36.26,-36.34 -55.16,-56.27 -9.37,-10.04 -18.96,-20.33 -28.8,-30.88 -4.85,-5.33 -9.77,-10.74 -14.75,-16.22 -4.79,-5.68 -9.63,-11.43 -14.54,-17.26 -19.28,-23.18 -47.62,-56.74 -85.45,-102.99 -18.33,-23.71 -39.07,-50.55 -62.39,-80.72 -5.81,-7.57 -11.77,-15.34 -17.9,-23.33 -5.88,-8.22 -11.91,-16.66 -18.11,-25.32 -12.37,-17.33 -25.38,-35.54 -39.04,-54.66 -9.91,-13.26 -20.74,-30.14 -32.05,-47.43 -11.27,-17.31 -22.88,-35.15 -33.36,-51.25 -10.27,-16.27 -18.74,-31.37 -25.14,-41.97 -6.29,-10.69 -10.13,-17.21 -10.13,-17.21 0,0 -4.68,-7.74 -12.19,-20.16 -7.47,-12.47 -16.82,-30.45 -27.46,-49.79 -5.2,-9.77 -10.92,-19.7 -16.1,-30.16 -5.08,-10.54 -10.16,-21.11 -15.07,-31.3 -4.83,-10.25 -9.71,-19.89 -13.73,-29.18 -3.89,-9.39 -7.44,-17.95 -10.47,-25.27 -2.46,-5.91 -4.69,-11.27 -6.74,-16.21 l 0.08,0.14 0.07,0.09 0.14,0.1 0.13,-0.31 -0.01,-0.13 -0.13,-0.13 c -5.16,4.82 -10.24,9.59 -15.27,14.29 -10.48,9.6 -20.7,18.96 -30.68,28.1 -20.1,18.12 -39.55,35.06 -58.59,51.04 -38.06,31.98 -74.44,60.14 -110.98,86.36 -73.1,52.44 -146.88,97.08 -236.19,148.79" /><path
         id="path156"
         style="fill:#ed1c24;fill-opacity:1;fill-rule:nonzero;stroke:none"
         d="m 6505.68,3686.55 c 0,0 -285.3,-63.94 -285.3,-92.23 0,-28.28 285.3,-92.23 285.3,-92.23 v 184.46" /><path
         id="path158"
         style="fill:#fdde31;fill-opacity:1;fill-rule:nonzero;stroke:none"
         d="m 9164.4,3701.31 h 36.9 v 100.84 h -587.83 v -34.43 h 531.26 l 19.67,-66.41" /><path
         id="path160"
         style="fill:#fcd683;fill-opacity:1;fill-rule:nonzero;stroke:none"
         d="m 8486.81,2894.59 c -3.69,36.89 -132.81,951.83 -173.4,977.65 -40.58,25.83 -708.33,254.56 -763.67,254.56 -55.34,0 -812.86,-282.84 -874.35,-332.03 0,0 -36.9,-46.73 -12.3,-98.38 0,0 415.65,9.84 418.11,-9.84 1.22,-9.71 -62.32,4.51 -125.33,-3.71 -64.62,-8.44 -128.69,-40.47 -121.85,-146.32 0.7,-10.79 3.12,-22.31 6.96,-34.43 34.38,-108.43 188.3,-267.07 350.9,-423.04 180.78,-173.39 295.14,-213.97 379.99,-531.25 84.86,-317.27 516.5,-398.44 516.5,-398.44 l 623.48,354.17 c 0,0 -221.35,354.17 -225.04,391.06" /><path
         id="path162"
         style="fill:#f9ab60;fill-opacity:1;fill-rule:nonzero;stroke:none"
         d="m 7184.5,3671.8 c 0,0 334.5,113.13 366.47,140.19 31.97,27.05 277.92,-61.49 322.19,-110.68 44.27,-49.19 76.25,-236.11 71.33,-400.9 -4.92,-164.79 -71.33,-228.73 -137.73,-216.44 -123.52,9.84 -371.39,327.12 -504.2,405.82 L 7184.5,3671.8" /><path
         id="path164"
         style="fill:#51ade5;fill-opacity:1;fill-rule:nonzero;stroke:none"
         d="m 6955.87,3682.84 2.36,3.71 h -452.55 v -184.46 h 335.3 c -3.84,12.12 -6.26,23.64 -6.96,34.43 -6.84,105.85 57.23,137.88 121.85,146.32" /><path
         id="path166"
         style="fill:#51ade5;fill-opacity:1;fill-rule:nonzero;stroke:none"
         d="M 7081.2,3686.55 H 8497.88 V 3489.79 H 7302.56 c 0,0 -164.79,189.38 -221.36,196.76" /><path
         id="path168"
         style="fill:#fdde31;fill-opacity:1;fill-rule:nonzero;stroke:none"
         d="m 8448.69,3735.74 v -285.98 c 0,0 725.55,0 762.44,0 36.9,0 71.33,285.98 -34.43,285.98 -105.76,0 -728.01,0 -728.01,0" /><path
         id="path170"
         style="fill:#fddd10;fill-opacity:1;fill-rule:nonzero;stroke:none"
         d="m 6279.11,3563.12 c 8.18,-2.83 16.93,-5.69 26.08,-8.55 2.21,18.34 4.43,48.31 0.94,79.51 -9.03,-2.82 -17.66,-5.63 -25.75,-8.41 2.82,-16.57 4.35,-39.39 -1.27,-62.55" /><path
         id="path172"
         style="fill:#e9e9e9;fill-opacity:1;fill-rule:nonzero;stroke:none"
         d="m 8658.66,2771.44 c -70.4,31.29 -816.1,-601.46 -863.03,-626.65 -46.93,-25.18 192.94,-306.78 192.94,-306.78 l 876.07,589.26 c 0,0 -135.58,312.89 -205.98,344.17" /><path
         id="path174"
         style="fill:#6f4323;fill-opacity:1;fill-rule:nonzero;stroke:none"
         d="M 8901.14,2550.53 7889.49,1838.01 9144.05,-10 H 10680 L 8901.14,2550.53" /><path
         id="path176"
         style="fill:#fdde31;fill-opacity:1;fill-rule:nonzero;stroke:none"
         d="m 8426.89,4203.78 c -46.73,0 -87.27,25.97 -109.08,61.41 -29.78,48.41 -26.06,118.12 49.4,164.72 158.23,97.74 366.7,228.89 475.74,301.59 52.75,35.18 106.2,30.5 138.62,14.38 27.96,-13.9 44.94,-37.5 46.59,-64.76 2.27,-37.54 -24.87,-76.9 -76.41,-110.81 -95.95,-63.12 -194.66,-134.37 -281.76,-197.23 -58.68,-42.37 -109.36,-78.94 -147.45,-104.48 -35.23,-23.64 -78.06,-27.04 -114.48,-9.11 -29.08,14.31 -47.51,39.3 -49.31,66.87 -1.96,29.86 16.04,59.02 50.66,82.11 l 114.76,76.51 11.09,-16.64 -114.75,-76.51 c -28.43,-18.96 -43.27,-41.74 -41.81,-64.16 1.32,-20.04 15.95,-39.29 38.18,-50.23 29.96,-14.74 65.31,-11.84 94.53,7.76 37.79,25.36 88.35,61.84 146.87,104.09 87.27,62.99 186.17,134.36 282.47,197.72 45.31,29.82 69.27,62.81 67.45,92.9 -1.21,19.92 -14.16,37.44 -35.53,48.06 -27.41,13.61 -72.98,17.32 -118.63,-13.11 -109.24,-72.83 -317.95,-204.14 -476.33,-301.96 -68.08,-42.06 -65.64,-100.21 -42.87,-137.23 27.78,-45.12 91.75,-71.93 155.65,-32.76 129.86,79.6 349.8,244.35 352.01,246 l 11.99,-16 c -2.2,-1.66 -222.9,-166.97 -353.55,-247.05 -25.18,-15.43 -50.41,-22.08 -74.05,-22.08" /><path
         id="path178"
         style="fill:#f6874d;fill-opacity:1;fill-rule:nonzero;stroke:none"
         d="m 8382.02,4685.93 c -2.27,0 -4.56,0.04 -6.89,0.13 -185.78,6.4 -431.63,12.87 -562.59,12.87 h -0.6 c -63.39,0 -105.24,33.52 -123.28,64.91 -15.56,27.07 -16.61,56.13 -2.86,79.73 18.93,32.49 63.67,50.12 125.04,49.82 114.89,-0.73 236.62,3.86 344.02,7.87 72.25,2.71 134.64,5.03 180.47,5.18 h 0.4 c 42.25,0 79.57,-20.88 99.9,-55.92 16.26,-28.03 17.74,-59.05 3.95,-83 -14.93,-25.93 -46.07,-40.21 -87.7,-40.22 l -137.92,-0.02 v 20 l 137.92,0.02 c 34.16,0.01 59.16,10.73 70.38,30.2 10.02,17.41 8.51,41.54 -3.93,62.98 -16.7,28.8 -47.57,45.96 -82.61,45.96 h -0.33 c -45.48,-0.14 -107.72,-2.47 -179.78,-5.16 -107.59,-4.02 -229.61,-8.66 -344.89,-7.89 -54.02,0.29 -92.46,-13.84 -107.63,-39.89 -10.05,-17.25 -8.99,-39 2.91,-59.7 15.25,-26.52 51.1,-54.87 105.94,-54.87 h 0.6 c 131.19,0 377.31,-6.47 563.27,-12.89 80.24,-2.67 110.21,46.98 111.78,90.42 1.92,52.93 -36.46,110.72 -111.36,113.57 -152.11,5.77 -426.57,-9.33 -429.34,-9.48 l -1.11,19.96 c 2.76,0.16 278.09,15.3 431.21,9.5 87.86,-3.34 132.86,-71.67 130.59,-134.28 -2.01,-55.3 -41.66,-109.79 -125.56,-109.8" /><path
         id="path180"
         style="fill:#51ade5;fill-opacity:1;fill-rule:nonzero;stroke:none"
         d="m 7893.02,5087.76 c -18.82,0 -36.08,6.32 -49.57,18.59 -27.83,25.29 -35.87,72.42 -22.63,132.69 24.65,112.21 45.6,232.18 64.08,338.04 12.44,71.24 23.2,132.76 32.62,177.62 8.72,41.51 36.99,73.82 75.62,86.43 30.79,10.06 61.45,5.02 81.99,-13.46 22.25,-20.02 29.72,-53.46 21.04,-94.17 l -28.77,-134.89 -19.55,4.18 28.77,134.89 c 7.12,33.41 1.85,60.09 -14.86,75.13 -14.92,13.42 -38.86,16.99 -62.41,9.3 -31.75,-10.36 -55.02,-37.1 -62.26,-71.53 -9.36,-44.51 -20.07,-105.88 -32.48,-176.93 -18.53,-106.06 -39.51,-226.27 -64.26,-338.91 -11.63,-52.97 -5.75,-93.31 16.55,-113.6 14.76,-13.4 36.24,-16.93 58.99,-9.6 29.13,9.38 64.34,38.53 75.8,92.2 27.32,128.18 85.12,367.95 130.27,548.72 19.4,77.65 -22.95,117.58 -65.1,128.19 -51.34,12.96 -115.9,-12.53 -134.31,-85.21 -37.42,-147.62 -79.9,-419.13 -80.32,-421.85 l -19.77,3.08 c 0.43,2.74 43.05,275.16 80.69,423.69 21.61,85.24 97.85,114.99 158.59,99.68 55.13,-13.87 101.12,-66.38 79.62,-152.42 -45.11,-180.61 -102.83,-420.11 -130.12,-548.06 -13.22,-62.01 -54.77,-95.96 -89.23,-107.06 -9.87,-3.18 -19.63,-4.74 -28.99,-4.74" /><path
         id="path182"
         style="fill:#fddd10;fill-opacity:1;fill-rule:nonzero;stroke:none"
         d="M 1197.48,4697.39 1498.12,4582.04 958.715,3176.22 658.074,3291.58 1197.48,4697.39" /><path
         id="path184"
         style="fill:#f4f4f4;fill-opacity:1;fill-rule:nonzero;stroke:none"
         d="m 1311.02,4653.83 73.56,-28.23 -539.408,-1405.81 -73.555,28.22 539.403,1405.82" /><path
         id="path186"
         style="fill:#ed1c24;fill-opacity:1;fill-rule:nonzero;stroke:none"
         d="m 658.074,3291.58 c 0,0 -84.152,-226.66 63.715,-283.39 147.867,-56.74 236.926,168.03 236.926,168.03 l -300.641,115.36" /><path
         id="path188"
         style="fill:#f89b52;fill-opacity:1;fill-rule:nonzero;stroke:none"
         d="m 1197.48,4697.39 300.64,-115.35 c 0,0 63.5,341.53 15.36,489.48 -74.59,-27.68 -316,-374.13 -316,-374.13" /><path
         id="path190"
         style="fill:#393536;fill-opacity:1;fill-rule:nonzero;stroke:none"
         d="m 1370.74,4928.74 c 29.92,-29.12 79.87,-60.05 159.55,-66.02 3.35,78.04 0.43,155.83 -16.81,208.8 -29.71,-11.03 -85.89,-72.64 -142.74,-142.78" /><path
         id="path192"
         style="fill:#d3d2d2;fill-opacity:1;fill-rule:nonzero;stroke:none"
         d="M 4388.6,1000.5 V 483.141 h 440 V 1000.5 h -440" /><path
         id="path194"
         style="fill:#918f90;fill-opacity:1;fill-rule:nonzero;stroke:none"
         d="M 4445.95,683.832 V 567.859 h 98.64 v 115.973 h -98.64" /><path
         id="path196"
         style="fill:#918f90;fill-opacity:1;fill-rule:nonzero;stroke:none"
         d="M 4672.62,683.832 V 567.859 h 98.63 v 115.973 h -98.63" /><path
         id="path198"
         style="fill:#2d5763;fill-opacity:1;fill-rule:nonzero;stroke:none"
         d="m 4240.46,863.141 h 736.29 c 0,0 0,826.669 0,966.669 0,140 -182.96,268.79 -368.15,268.79 -185.19,0 -368.14,-122.13 -368.14,-235.46 0,-113.33 0,-999.999 0,-999.999" /><path
         id="path200"
         style="fill:#2d5763;fill-opacity:1;fill-rule:nonzero;stroke:none"
         d="m 3954.97,736.41 -365.22,639.33 c 0,0 -337.07,-192.56 -458.64,-262 -121.56,-69.44 -142.64,-292.189 -50.78,-452.99 91.85,-160.801 288.65,-259.09 387.05,-202.871 98.41,56.211 487.59,278.531 487.59,278.531" /><path
         id="path202"
         style="fill:#f4f4f4;fill-opacity:1;fill-rule:nonzero;stroke:none"
         d="M 7860.27,7635.38 10720,6053.52 c 37.1,-20.52 50.5,-67.22 30,-104.31 L 10058.8,4699.6 c -20.5,-37.09 -67.21,-50.52 -104.3,-30.01 L 7094.75,6251.45 c -37.09,20.52 -50.52,67.21 -30.01,104.3 l 691.22,1249.62 c 20.52,37.08 67.22,50.52 104.31,30.01" /><path
         id="path204"
         style="fill:#d3d2d2;fill-opacity:1;fill-rule:nonzero;stroke:none"
         d="m 8903.59,6224.75 1216.31,-672.77 c 21.2,-11.77 28.9,-38.57 17.2,-59.85 l -267.13,-482.89 c -11.77,-21.28 -38.57,-28.99 -59.85,-17.22 L 8593.85,5664.8 c -21.28,11.77 -28.99,38.57 -17.22,59.85 l 267.1,482.88 c 11.78,21.29 38.57,29 59.86,17.22" /><path
         id="path206"
         style="fill:#fcd683;fill-opacity:1;fill-rule:nonzero;stroke:none"
         d="m 3349.98,4407.19 c 0,0 -399.72,-77.29 -436.82,-136.65 -37.1,-59.35 -178.06,-549.01 126.12,-623.2 304.19,-74.2 482.25,645.46 816.11,519.34 333.86,-126.13 -140.96,-497.09 -430.31,-660.31 -192.9,-118.7 -103.87,-378.38 -333.86,-541.6 -229.99,-163.22 -452.57,-311.6 -600.95,-229.99 l -452.57,408.05 c 0,0 200.32,289.35 259.67,370.96 59.35,81.61 170.64,919.98 259.67,964.49 89.03,44.51 682.56,289.35 793.85,267.09 l -0.91,-338.18" /><path
         id="path208"
         style="fill:#e9e9e9;fill-opacity:1;fill-rule:nonzero;stroke:none"
         d="m 2037.7,3306.05 c 66.77,29.68 774.06,-570.48 818.58,-594.37 44.51,-23.89 -183.01,-290.98 -183.01,-290.98 l -830.94,558.91 c 0,0 128.6,296.77 195.37,326.44" /><path
         id="path210"
         style="fill:#6f4323;fill-opacity:1;fill-rule:nonzero;stroke:none"
         d="M 1807.71,3096.52 2767.25,2420.7 1253.05,-10 0,-23.7891 10.6836,469.602 1807.71,3096.52" /><path
         id="path212" /></g></g></svg>